<?xml version="1.0" encoding="UTF-8" standalone="no"?>
<!DOCTYPE svg PUBLIC "-//W3C//DTD SVG 1.1//EN" "http://www.w3.org/Graphics/SVG/1.1/DTD/svg11.dtd">
<svg width="100%" height="100%" viewBox="0 0 2000 2000" version="1.1" xmlns="http://www.w3.org/2000/svg" xmlns:xlink="http://www.w3.org/1999/xlink" xml:space="preserve" xmlns:serif="http://www.serif.com/" style="fill-rule:evenodd;clip-rule:evenodd;stroke-linejoin:round;stroke-miterlimit:2;">
    <g transform="matrix(0.462148,0,0,0.462148,1000,1000)">
        <g transform="matrix(1,0,0,1,-2083.333333,-2083.333333)">
            <g transform="matrix(5.555556,0,0,5.555556,0,0.000014)">
                <path d="M477.512,0C473.977,0.004 470.449,0.094 466.918,0.27C463.391,0.445 459.867,0.703 456.352,1.051C452.836,1.395 449.332,1.824 445.836,2.34C442.34,2.852 438.859,3.449 435.391,4.133C431.926,4.816 428.477,5.578 425.047,6.43C421.617,7.277 418.211,8.207 414.828,9.219C411.441,10.234 408.082,11.328 404.75,12.504C401.422,13.676 398.117,14.934 394.848,16.266C391.574,17.602 388.34,19.012 385.137,20.504C381.93,21.992 378.766,23.562 375.637,25.203C372.512,26.848 369.426,28.566 366.379,30.359C363.336,32.148 360.336,34.016 357.379,35.953C354.426,37.887 351.52,39.895 348.66,41.973C345.801,44.051 342.996,46.195 340.242,48.406C337.484,50.621 334.785,52.898 332.141,55.242C329.496,57.582 326.91,59.988 324.383,62.457C321.852,64.926 319.383,67.453 316.977,70.039C314.57,72.625 312.227,75.27 309.949,77.969C307.668,80.668 305.457,83.422 303.309,86.23C301.16,89.035 299.086,91.895 297.074,94.801C295.066,97.707 293.129,100.66 291.262,103.66C289.395,106.66 287.602,109.707 285.883,112.793C284.164,115.879 282.52,119.008 280.949,122.172C279.383,125.34 277.891,128.543 276.477,131.781C275.062,135.02 273.727,138.289 272.469,141.594C271.211,144.895 270.035,148.227 268.941,151.586C267.844,154.945 266.832,158.328 265.898,161.738C264.965,165.145 264.113,168.574 263.348,172.023C262.578,175.473 261.895,178.941 261.297,182.422C260.695,185.906 260.18,189.402 259.746,192.906C259.316,196.414 258.969,199.93 258.707,203.457C258.445,206.98 258.27,210.508 258.176,214.039C252.66,214.895 247.18,215.938 241.734,217.168C236.289,218.398 230.895,219.816 225.547,221.418C220.199,223.023 214.914,224.809 209.691,226.773C204.469,228.742 199.316,230.887 194.242,233.211C189.164,235.531 184.176,238.027 179.27,240.691C174.363,243.359 169.559,246.188 164.848,249.188C160.141,252.184 155.539,255.34 151.047,258.652C146.555,261.969 142.18,265.434 137.926,269.051C133.672,272.664 129.551,276.422 125.555,280.324C121.559,284.223 117.703,288.254 113.988,292.422C110.27,296.586 106.699,300.875 103.277,305.285C99.855,309.699 96.59,314.223 93.48,318.859C90.371,323.496 87.426,328.234 84.641,333.074C81.855,337.914 79.242,342.844 76.797,347.863C74.355,352.883 72.086,357.98 69.992,363.156C67.898,368.332 65.984,373.574 64.254,378.883L526.133,378.883C524.402,373.582 522.492,368.348 520.406,363.176C518.316,358.008 516.051,352.918 513.613,347.902C511.172,342.891 508.566,337.965 505.789,333.133C503.012,328.297 500.07,323.566 496.969,318.934C493.863,314.301 490.605,309.781 487.191,305.375C483.777,300.965 480.219,296.68 476.508,292.52C472.801,288.355 468.953,284.324 464.969,280.43C460.984,276.531 456.871,272.773 452.625,269.16C448.383,265.543 444.02,262.078 439.539,258.762C435.055,255.449 430.465,252.293 425.766,249.293C421.07,246.293 416.273,243.457 411.379,240.789C406.484,238.121 401.504,235.621 396.441,233.297C391.375,230.969 386.234,228.82 381.023,226.848C375.809,224.871 370.535,223.082 365.199,221.473C359.859,219.859 354.477,218.438 349.043,217.195C343.605,215.957 338.137,214.906 332.629,214.039C332.719,211.695 332.863,209.352 333.062,207.016C333.266,204.676 333.523,202.344 333.836,200.02C334.148,197.691 334.52,195.375 334.949,193.066C335.375,190.758 335.855,188.461 336.395,186.176C336.934,183.895 337.527,181.621 338.176,179.367C338.82,177.109 339.523,174.871 340.281,172.648C341.039,170.43 341.848,168.227 342.711,166.043C343.574,163.863 344.492,161.703 345.461,159.562C346.43,157.426 347.449,155.312 348.52,153.223C349.59,151.137 350.711,149.074 351.883,147.039C353.051,145.004 354.273,143 355.539,141.027C356.809,139.051 358.125,137.109 359.484,135.199C360.848,133.285 362.258,131.41 363.711,129.566C365.164,127.723 366.66,125.918 368.203,124.148C369.742,122.379 371.324,120.645 372.949,118.953C374.578,117.262 376.242,115.605 377.945,113.996C379.652,112.383 381.395,110.812 383.176,109.285C384.957,107.758 386.777,106.273 388.629,104.832C390.48,103.395 392.371,102 394.289,100.652C396.211,99.305 398.164,98.004 400.148,96.75C402.133,95.496 404.145,94.293 406.188,93.137C408.23,91.984 410.301,90.879 412.395,89.824C414.492,88.766 416.613,87.766 418.758,86.812C420.902,85.859 423.07,84.961 425.258,84.113C427.445,83.266 429.652,82.473 431.879,81.734C434.105,80.992 436.352,80.309 438.609,79.676C440.871,79.047 443.145,78.473 445.434,77.949C447.723,77.43 450.02,76.965 452.332,76.555C454.641,76.148 456.961,75.793 459.289,75.5C461.617,75.203 463.949,74.961 466.289,74.781C468.629,74.598 470.973,74.469 473.316,74.402C475.664,74.332 478.008,74.32 480.355,74.363C482.699,74.41 485.043,74.512 487.387,74.668C489.727,74.828 492.062,75.043 494.395,75.312C496.723,75.586 499.047,75.914 501.363,76.297C503.676,76.68 505.98,77.121 508.273,77.617C510.566,78.113 512.848,78.664 515.113,79.273C517.383,79.879 519.633,80.543 521.867,81.258C524.102,81.973 526.316,82.742 528.516,83.566C530.711,84.391 532.887,85.266 535.043,86.195C537.195,87.125 539.328,88.105 541.434,89.141C543.543,90.172 545.621,91.258 547.676,92.391C549.73,93.523 551.758,94.707 553.754,95.938C555.754,97.172 557.719,98.449 559.652,99.777C561.59,101.105 563.492,102.48 565.359,103.898C567.227,105.32 569.062,106.781 570.859,108.293C572.656,109.801 574.414,111.352 576.137,112.945C577.859,114.539 579.543,116.176 581.184,117.852C582.828,119.527 584.43,121.242 585.988,122.996C587.551,124.75 589.066,126.539 590.539,128.367C592.012,130.195 593.438,132.055 594.82,133.953C596.203,135.848 597.539,137.777 598.828,139.738C600.117,141.699 601.359,143.691 602.551,145.715C603.742,147.734 604.887,149.785 605.977,151.863C607.07,153.938 608.113,156.043 609.105,158.168C610.094,160.297 611.035,162.445 611.922,164.621C612.809,166.793 613.641,168.988 614.422,171.199C615.203,173.414 615.926,175.645 616.598,177.895C617.27,180.145 617.887,182.406 618.449,184.688C619.012,186.965 619.52,189.254 619.969,191.559C620.422,193.863 620.816,196.176 621.156,198.5C621.496,200.82 621.777,203.148 622.004,205.488C622.227,207.824 622.398,210.164 622.508,212.508C622.621,214.852 622.676,217.199 622.676,219.547L622.676,747.508L696.992,747.508L696.992,219.547C696.988,215.953 696.898,212.363 696.719,208.777C696.539,205.188 696.27,201.609 695.914,198.035C695.559,194.461 695.117,190.895 694.586,187.344C694.055,183.789 693.438,180.254 692.734,176.73C692.031,173.207 691.242,169.707 690.367,166.223C689.492,162.738 688.531,159.277 687.488,155.844C686.441,152.406 685.312,148.996 684.102,145.617C682.891,142.234 681.598,138.887 680.219,135.566C678.844,132.25 677.387,128.969 675.852,125.723C674.312,122.477 672.699,119.27 671.004,116.102C669.309,112.934 667.539,109.812 665.691,106.73C663.844,103.648 661.922,100.617 659.926,97.633C657.934,94.645 655.863,91.711 653.723,88.824C651.586,85.941 649.375,83.109 647.098,80.332C644.82,77.559 642.473,74.84 640.062,72.176C637.648,69.516 635.176,66.914 632.637,64.375C630.098,61.836 627.496,59.359 624.836,56.949C622.176,54.535 619.457,52.191 616.684,49.91C613.906,47.633 611.078,45.422 608.195,43.281C605.309,41.141 602.375,39.074 599.391,37.078C596.406,35.078 593.371,33.156 590.293,31.309C587.215,29.461 584.09,27.691 580.926,25.996C577.758,24.301 574.555,22.688 571.309,21.148C568.062,19.613 564.781,18.156 561.465,16.777C558.148,15.402 554.801,14.109 551.418,12.895C548.039,11.684 544.633,10.555 541.195,9.508C537.762,8.465 534.301,7.504 530.82,6.629C527.336,5.754 523.836,4.965 520.312,4.258C516.793,3.555 513.254,2.938 509.703,2.41C506.152,1.879 502.59,1.434 499.016,1.078C495.441,0.723 491.863,0.457 488.277,0.277C484.691,0.098 481.102,0.004 477.512,0Z" style="fill:white;fill-rule:nonzero;"/>
            </g>
            <g transform="matrix(5.555556,0,0,5.555556,0,0.000014)">
                <path d="M537.535,438.492C536.93,429.387 535.828,420.34 534.23,411.355L56.156,411.355C54.559,420.34 53.453,429.383 52.852,438.492C52.82,438.988 52.812,439.488 52.832,439.984C52.852,440.484 52.895,440.98 52.965,441.473C53.035,441.969 53.129,442.457 53.25,442.941C53.367,443.426 53.512,443.902 53.68,444.371C53.848,444.84 54.039,445.301 54.254,445.75C54.469,446.199 54.707,446.637 54.969,447.062C55.227,447.488 55.508,447.898 55.812,448.297C56.113,448.691 56.434,449.07 56.773,449.438C57.117,449.801 57.473,450.145 57.852,450.473C58.227,450.801 58.617,451.109 59.023,451.395C59.434,451.684 59.855,451.949 60.289,452.191C60.723,452.438 61.168,452.656 61.625,452.855C62.082,453.055 62.551,453.23 63.023,453.379C63.5,453.531 63.98,453.656 64.469,453.758C64.957,453.863 65.449,453.938 65.945,453.988C66.441,454.039 66.938,454.066 67.438,454.066L522.949,454.066C523.449,454.066 523.945,454.039 524.441,453.988C524.938,453.938 525.43,453.859 525.918,453.758C526.406,453.656 526.887,453.531 527.363,453.379C527.836,453.23 528.301,453.055 528.762,452.855C529.219,452.656 529.664,452.438 530.098,452.191C530.531,451.949 530.953,451.684 531.359,451.395C531.77,451.105 532.16,450.801 532.535,450.473C532.914,450.145 533.27,449.801 533.613,449.438C533.953,449.07 534.273,448.691 534.574,448.293C534.879,447.898 535.156,447.488 535.418,447.062C535.68,446.637 535.914,446.199 536.129,445.75C536.348,445.301 536.539,444.84 536.707,444.371C536.875,443.902 537.02,443.426 537.137,442.941C537.258,442.457 537.352,441.969 537.422,441.473C537.492,440.98 537.535,440.484 537.555,439.984C537.574,439.488 537.566,438.988 537.535,438.492Z" style="fill:white;fill-rule:nonzero;"/>
            </g>
            <g transform="matrix(5.555556,0,0,5.555556,0,0.000014)">
                <path d="M179.84,649.207C180.805,648.242 181.688,647.215 182.496,646.117C183.305,645.023 184.027,643.875 184.66,642.668C185.297,641.465 185.836,640.219 186.285,638.934C186.73,637.648 187.082,636.336 187.332,635C187.582,633.66 187.73,632.312 187.777,630.949C187.828,629.59 187.773,628.234 187.617,626.883C187.461,625.527 187.203,624.195 186.848,622.883C186.488,621.566 186.039,620.289 185.488,619.043L160.641,574.566L135.793,619.043C135.16,620.48 134.652,621.965 134.277,623.488C133.902,625.016 133.66,626.562 133.551,628.133C133.441,629.699 133.469,631.266 133.633,632.832C133.797,634.395 134.094,635.934 134.527,637.445C134.957,638.957 135.516,640.418 136.199,641.836C136.883,643.25 137.688,644.594 138.605,645.871C139.523,647.148 140.543,648.336 141.668,649.434C142.793,650.531 144.004,651.523 145.301,652.414C146.598,653.301 147.961,654.07 149.395,654.723C150.824,655.371 152.301,655.895 153.82,656.289C155.344,656.688 156.887,656.945 158.453,657.074C160.02,657.199 161.586,657.191 163.148,657.047C164.715,656.898 166.258,656.621 167.773,656.207C169.289,655.797 170.758,655.254 172.184,654.586C173.605,653.918 174.961,653.133 176.246,652.23C177.531,651.324 178.73,650.32 179.844,649.207L179.84,649.207Z" style="fill:white;fill-rule:nonzero;"/>
            </g>
            <g transform="matrix(5.555556,0,0,5.555556,0,0.000014)">
                <path d="M269.543,649.207C270.504,648.246 271.391,647.215 272.199,646.121C273.004,645.023 273.727,643.875 274.363,642.668C274.996,641.465 275.539,640.219 275.984,638.934C276.434,637.648 276.781,636.336 277.035,635C277.285,633.66 277.434,632.312 277.48,630.949C277.527,629.59 277.473,628.234 277.316,626.883C277.16,625.527 276.906,624.195 276.547,622.883C276.191,621.566 275.738,620.289 275.191,619.043L250.34,574.566L225.496,619.043C224.859,620.48 224.355,621.965 223.977,623.488C223.602,625.016 223.359,626.562 223.25,628.133C223.145,629.699 223.172,631.266 223.336,632.832C223.5,634.395 223.797,635.934 224.227,637.445C224.656,638.957 225.215,640.418 225.898,641.836C226.586,643.25 227.387,644.594 228.305,645.871C229.223,647.148 230.246,648.336 231.371,649.434C232.492,650.531 233.703,651.523 235,652.414C236.297,653.301 237.664,654.07 239.094,654.723C240.523,655.375 242,655.895 243.52,656.293C245.043,656.688 246.586,656.945 248.152,657.074C249.719,657.199 251.285,657.191 252.852,657.047C254.414,656.902 255.957,656.621 257.473,656.207C258.988,655.797 260.461,655.254 261.883,654.586C263.305,653.918 264.66,653.133 265.945,652.23C267.23,651.324 268.43,650.32 269.543,649.207Z" style="fill:white;fill-rule:nonzero;"/>
            </g>
            <g transform="matrix(5.555556,0,0,5.555556,0,0.000014)">
                <path d="M359.246,649.207C360.207,648.242 361.094,647.215 361.898,646.117C362.707,645.023 363.43,643.875 364.062,642.668C364.699,641.465 365.238,640.219 365.688,638.934C366.137,637.648 366.484,636.336 366.734,635C366.984,633.66 367.133,632.312 367.18,630.949C367.23,629.59 367.176,628.234 367.02,626.883C366.863,625.527 366.605,624.195 366.25,622.883C365.891,621.566 365.438,620.289 364.891,619.043L340.043,574.566L315.195,619.043C314.562,620.48 314.059,621.965 313.68,623.488C313.305,625.016 313.062,626.562 312.953,628.133C312.844,629.699 312.871,631.266 313.035,632.832C313.199,634.395 313.496,635.934 313.93,637.445C314.359,638.957 314.918,640.422 315.602,641.836C316.285,643.25 317.09,644.598 318.008,645.871C318.926,647.148 319.945,648.336 321.07,649.434C322.195,650.531 323.406,651.523 324.703,652.414C326,653.301 327.363,654.07 328.793,654.723C330.227,655.375 331.703,655.898 333.223,656.293C334.746,656.688 336.289,656.949 337.855,657.074C339.422,657.199 340.988,657.191 342.551,657.047C344.117,656.902 345.66,656.621 347.176,656.211C348.691,655.797 350.16,655.254 351.586,654.586C353.008,653.918 354.363,653.133 355.648,652.23C356.934,651.324 358.133,650.32 359.246,649.207Z" style="fill:white;fill-rule:nonzero;"/>
            </g>
            <g transform="matrix(5.555556,0,0,5.555556,0,0.000014)">
                <path d="M448.945,649.207C449.91,648.242 450.793,647.215 451.602,646.117C452.41,645.023 453.129,643.875 453.766,642.668C454.398,641.465 454.941,640.219 455.391,638.934C455.836,637.648 456.188,636.336 456.438,635C456.688,633.66 456.836,632.312 456.883,630.949C456.93,629.59 456.875,628.234 456.719,626.883C456.562,625.527 456.309,624.195 455.949,622.883C455.594,621.566 455.141,620.289 454.594,619.043L429.746,574.566L404.898,619.043C404.266,620.48 403.758,621.965 403.383,623.488C403.004,625.016 402.762,626.562 402.656,628.133C402.547,629.699 402.574,631.266 402.738,632.832C402.902,634.395 403.199,635.934 403.629,637.445C404.062,638.957 404.617,640.422 405.305,641.836C405.988,643.25 406.789,644.598 407.707,645.871C408.629,647.148 409.648,648.336 410.773,649.434C411.898,650.531 413.109,651.523 414.406,652.414C415.703,653.301 417.066,654.07 418.496,654.723C419.926,655.375 421.402,655.898 422.926,656.293C424.445,656.688 425.988,656.949 427.559,657.074C429.125,657.199 430.688,657.191 432.254,657.047C433.82,656.902 435.359,656.621 436.879,656.211C438.395,655.797 439.863,655.254 441.285,654.586C442.707,653.918 444.062,653.133 445.352,652.23C446.637,651.324 447.836,650.32 448.945,649.207Z" style="fill:white;fill-rule:nonzero;"/>
            </g>
            <g transform="matrix(5.555556,0,0,5.555556,0,0.000014)">
                <path d="M186.289,739.551C187.402,740.664 188.598,741.672 189.887,742.574C191.172,743.48 192.527,744.266 193.949,744.934C195.371,745.602 196.844,746.141 198.359,746.555C199.875,746.969 201.418,747.246 202.98,747.391C204.547,747.539 206.113,747.547 207.68,747.422C209.246,747.293 210.789,747.031 212.312,746.637C213.832,746.242 215.309,745.719 216.738,745.07C218.168,744.418 219.535,743.648 220.832,742.758C222.129,741.871 223.34,740.879 224.465,739.781C225.586,738.68 226.609,737.492 227.527,736.219C228.445,734.941 229.246,733.598 229.934,732.18C230.617,730.766 231.176,729.301 231.605,727.789C232.035,726.277 232.336,724.742 232.496,723.176C232.66,721.613 232.691,720.047 232.582,718.477C232.473,716.91 232.23,715.363 231.855,713.836C231.477,712.309 230.973,710.828 230.34,709.387L205.492,664.91L180.645,709.387C180.094,710.633 179.641,711.914 179.285,713.227C178.93,714.543 178.672,715.875 178.516,717.227C178.359,718.578 178.305,719.934 178.352,721.297C178.398,722.656 178.551,724.008 178.801,725.344C179.051,726.684 179.398,727.992 179.848,729.281C180.293,730.566 180.836,731.809 181.469,733.016C182.105,734.219 182.828,735.367 183.633,736.465C184.441,737.559 185.328,738.59 186.289,739.551Z" style="fill:white;fill-rule:nonzero;"/>
            </g>
            <g transform="matrix(5.555556,0,0,5.555556,0,0.000014)">
                <path d="M314.395,739.551C315.355,738.59 316.242,737.562 317.047,736.465C317.855,735.367 318.578,734.219 319.211,733.016C319.848,731.812 320.387,730.566 320.836,729.281C321.285,727.996 321.633,726.684 321.883,725.344C322.133,724.008 322.285,722.656 322.332,721.297C322.379,719.938 322.324,718.578 322.168,717.227C322.012,715.875 321.754,714.543 321.398,713.227C321.043,711.914 320.59,710.633 320.043,709.387L295.191,664.91L270.344,709.387C269.711,710.828 269.207,712.309 268.828,713.836C268.453,715.363 268.211,716.91 268.102,718.477C267.996,720.047 268.023,721.613 268.188,723.176C268.352,724.738 268.648,726.277 269.078,727.789C269.508,729.301 270.066,730.766 270.75,732.18C271.438,733.594 272.238,734.941 273.156,736.219C274.074,737.492 275.098,738.68 276.219,739.777C277.344,740.879 278.555,741.871 279.852,742.758C281.148,743.648 282.512,744.418 283.945,745.066C285.375,745.719 286.852,746.242 288.371,746.637C289.895,747.031 291.438,747.293 293.004,747.418C294.57,747.547 296.137,747.535 297.703,747.391C299.266,747.246 300.809,746.969 302.324,746.555C303.84,746.141 305.309,745.602 306.734,744.934C308.156,744.266 309.512,743.477 310.797,742.574C312.082,741.672 313.281,740.664 314.395,739.551Z" style="fill:white;fill-rule:nonzero;"/>
            </g>
            <g transform="matrix(5.555556,0,0,5.555556,0,0.000014)">
                <path d="M404.094,739.551C405.059,738.59 405.941,737.559 406.75,736.465C407.559,735.367 408.281,734.219 408.914,733.016C409.551,731.809 410.09,730.566 410.539,729.281C410.984,727.996 411.336,726.684 411.586,725.344C411.836,724.008 411.984,722.656 412.031,721.297C412.082,719.938 412.027,718.578 411.871,717.227C411.715,715.875 411.457,714.543 411.102,713.227C410.742,711.914 410.289,710.633 409.742,709.387L384.895,664.91L360.047,709.387C359.414,710.828 358.906,712.309 358.531,713.836C358.152,715.363 357.91,716.91 357.805,718.477C357.695,720.047 357.723,721.613 357.887,723.176C358.051,724.738 358.348,726.277 358.777,727.789C359.211,729.301 359.77,730.766 360.453,732.18C361.137,733.598 361.938,734.941 362.859,736.219C363.777,737.492 364.797,738.68 365.922,739.777C367.047,740.879 368.258,741.871 369.555,742.758C370.852,743.648 372.215,744.418 373.645,745.066C375.078,745.719 376.551,746.242 378.074,746.637C379.594,747.031 381.141,747.293 382.707,747.418C384.273,747.547 385.84,747.535 387.402,747.391C388.969,747.246 390.508,746.969 392.027,746.555C393.543,746.141 395.012,745.602 396.434,744.934C397.859,744.266 399.211,743.48 400.5,742.574C401.785,741.672 402.984,740.664 404.094,739.551Z" style="fill:white;fill-rule:nonzero;"/>
            </g>
            <g transform="matrix(5.555556,0,0,5.555556,0,0.000014)">
                <path d="M230.34,528.695L205.492,484.219L180.645,528.695C180.418,529.211 180.207,529.73 180.012,530.258C179.816,530.785 179.641,531.32 179.477,531.859C179.316,532.398 179.172,532.941 179.047,533.488C178.918,534.035 178.809,534.586 178.715,535.141C178.621,535.695 178.543,536.25 178.484,536.809C178.426,537.367 178.387,537.93 178.359,538.492C178.336,539.051 178.332,539.613 178.34,540.176C178.352,540.738 178.379,541.301 178.426,541.859C178.473,542.418 178.535,542.977 178.613,543.535C178.695,544.09 178.793,544.645 178.906,545.195C179.023,545.746 179.152,546.289 179.301,546.832C179.449,547.375 179.617,547.91 179.797,548.445C179.98,548.977 180.176,549.5 180.391,550.02C180.605,550.539 180.836,551.055 181.082,551.559C181.328,552.062 181.59,552.562 181.867,553.051C182.145,553.539 182.438,554.02 182.742,554.488C183.051,554.961 183.371,555.422 183.707,555.871C184.043,556.324 184.391,556.762 184.754,557.191C185.117,557.621 185.492,558.039 185.883,558.445C186.27,558.852 186.672,559.246 187.086,559.625C187.5,560.008 187.922,560.375 188.359,560.73C188.797,561.082 189.242,561.426 189.699,561.75C190.156,562.078 190.621,562.391 191.098,562.688C191.574,562.984 192.062,563.27 192.555,563.535C193.051,563.805 193.551,564.055 194.062,564.293C194.57,564.531 195.086,564.75 195.609,564.953C196.133,565.16 196.664,565.348 197.199,565.52C197.734,565.691 198.273,565.844 198.82,565.984C199.363,566.121 199.91,566.242 200.465,566.348C201.016,566.449 201.57,566.539 202.129,566.609C202.688,566.676 203.246,566.73 203.809,566.766C204.367,566.801 204.93,566.816 205.492,566.816C206.055,566.816 206.613,566.801 207.176,566.766C207.734,566.73 208.297,566.676 208.852,566.609C209.41,566.539 209.965,566.449 210.52,566.348C211.07,566.242 211.617,566.121 212.164,565.984C212.707,565.844 213.246,565.691 213.781,565.52C214.316,565.348 214.848,565.16 215.371,564.953C215.895,564.75 216.41,564.531 216.922,564.293C217.43,564.055 217.934,563.805 218.426,563.535C218.922,563.27 219.406,562.984 219.883,562.688C220.359,562.391 220.824,562.078 221.281,561.75C221.738,561.426 222.188,561.082 222.621,560.73C223.059,560.375 223.484,560.008 223.895,559.625C224.309,559.246 224.711,558.852 225.098,558.445C225.488,558.039 225.863,557.621 226.227,557.191C226.59,556.762 226.938,556.324 227.273,555.871C227.609,555.422 227.93,554.961 228.238,554.488C228.543,554.02 228.836,553.539 229.113,553.051C229.391,552.559 229.652,552.062 229.898,551.559C230.145,551.055 230.375,550.539 230.59,550.02C230.805,549.5 231.004,548.977 231.184,548.445C231.367,547.91 231.531,547.375 231.68,546.832C231.828,546.289 231.961,545.746 232.074,545.195C232.191,544.645 232.285,544.09 232.367,543.535C232.449,542.977 232.512,542.418 232.555,541.859C232.602,541.301 232.629,540.738 232.641,540.176C232.652,539.613 232.645,539.051 232.621,538.492C232.598,537.93 232.555,537.367 232.496,536.809C232.438,536.25 232.363,535.695 232.27,535.141C232.176,534.586 232.062,534.035 231.938,533.488C231.809,532.941 231.664,532.398 231.504,531.859C231.344,531.32 231.164,530.785 230.969,530.258C230.777,529.73 230.566,529.211 230.34,528.695Z" style="fill:white;fill-rule:nonzero;"/>
            </g>
            <g transform="matrix(5.555556,0,0,5.555556,0,0.000014)">
                <path d="M314.395,558.859C315.355,557.898 316.242,556.867 317.047,555.773C317.855,554.676 318.578,553.527 319.211,552.324C319.848,551.117 320.387,549.875 320.836,548.59C321.285,547.305 321.633,545.992 321.883,544.652C322.133,543.316 322.285,541.965 322.332,540.605C322.379,539.246 322.324,537.887 322.168,536.535C322.012,535.184 321.754,533.852 321.398,532.535C321.043,531.223 320.59,529.941 320.043,528.695L295.191,484.219L270.344,528.695C269.711,530.137 269.207,531.617 268.828,533.145C268.453,534.672 268.211,536.219 268.102,537.785C267.996,539.355 268.023,540.922 268.188,542.484C268.352,544.047 268.648,545.586 269.078,547.098C269.508,548.609 270.066,550.074 270.75,551.488C271.438,552.902 272.238,554.25 273.156,555.527C274.074,556.801 275.098,557.988 276.223,559.086C277.344,560.184 278.555,561.18 279.852,562.066C281.148,562.953 282.516,563.723 283.945,564.375C285.375,565.027 286.852,565.551 288.371,565.945C289.895,566.34 291.438,566.602 293.004,566.727C294.57,566.855 296.137,566.844 297.703,566.699C299.266,566.555 300.809,566.273 302.324,565.863C303.84,565.449 305.309,564.91 306.734,564.242C308.156,563.574 309.512,562.785 310.797,561.883C312.082,560.98 313.281,559.973 314.395,558.859Z" style="fill:white;fill-rule:nonzero;"/>
            </g>
            <g transform="matrix(5.555556,0,0,5.555556,0,0.000014)">
                <path d="M404.094,558.859C405.059,557.898 405.941,556.867 406.75,555.773C407.559,554.676 408.281,553.527 408.914,552.324C409.551,551.117 410.09,549.875 410.539,548.59C410.984,547.301 411.336,545.992 411.586,544.652C411.836,543.316 411.984,541.965 412.031,540.605C412.082,539.246 412.027,537.887 411.871,536.535C411.715,535.184 411.457,533.852 411.102,532.535C410.742,531.223 410.289,529.941 409.742,528.695L384.895,484.219L360.047,528.695C359.414,530.137 358.906,531.617 358.531,533.145C358.156,534.672 357.91,536.219 357.805,537.785C357.695,539.355 357.723,540.922 357.887,542.484C358.051,544.051 358.348,545.586 358.781,547.098C359.211,548.609 359.77,550.074 360.453,551.488C361.137,552.906 361.938,554.25 362.859,555.527C363.777,556.801 364.797,557.988 365.922,559.086C367.047,560.188 368.258,561.18 369.555,562.066C370.852,562.957 372.215,563.727 373.645,564.375C375.078,565.027 376.551,565.551 378.074,565.945C379.594,566.34 381.141,566.602 382.707,566.727C384.273,566.855 385.84,566.844 387.402,566.699C388.969,566.555 390.508,566.277 392.027,565.863C393.543,565.449 395.012,564.91 396.434,564.242C397.859,563.574 399.211,562.785 400.5,561.883C401.785,560.98 402.984,559.973 404.094,558.859Z" style="fill:white;fill-rule:nonzero;"/>
            </g>
        </g>
    </g>
</svg>
