<?xml version="1.0" encoding="UTF-8" standalone="no"?>
<!DOCTYPE svg PUBLIC "-//W3C//DTD SVG 1.1//EN" "http://www.w3.org/Graphics/SVG/1.1/DTD/svg11.dtd">
<svg width="100%" height="100%" viewBox="0 0 2000 2000" version="1.1" xmlns="http://www.w3.org/2000/svg" xmlns:xlink="http://www.w3.org/1999/xlink" xml:space="preserve" xmlns:serif="http://www.serif.com/" style="fill-rule:evenodd;clip-rule:evenodd;stroke-linejoin:round;stroke-miterlimit:2;">
    <g transform="matrix(0.48,0,0,0.48,1000,1000)">
        <g transform="matrix(1,0,0,1,-2083.333333,-2083.333333)">
            <g transform="matrix(5.555556,0,0,5.555556,0,0.000014)">
                <path d="M594.234,239.871L708.719,665.441L649.434,665.441L534.84,239.871L594.234,239.871Z" style="fill:white;"/>
            </g>
            <g transform="matrix(5.555556,0,0,5.555556,0,0.000014)">
                <path d="M697.496,539.098C702.348,537.758 707.617,538.516 712.004,540.895C716.387,543.277 719.664,547.617 721.008,552.492C727.441,575.836 738.543,616.117 744.977,639.461C746.32,644.34 745.664,649.492 743.117,653.777C740.641,658.328 736.5,661.68 731.648,663.016C727.094,664.273 723.48,665.27 723.48,665.27L689.324,541.352L697.496,539.098Z" style="fill:white;"/>
            </g>
            <g transform="matrix(5.555556,0,0,5.555556,0,0.000014)">
                <path d="M659.59,114.344C668.988,124.461 669.773,140.031 660.371,150.715C636.871,179.02 595.344,229.145 595.344,229.145L484.867,229.145L484.867,168.105L542.062,168.105C542.062,168.105 615.715,80.133 643.137,47.625C645.488,44.441 649.402,42.508 653.324,42.168C657.246,41.828 661.941,43.078 664.293,45.805C665.863,46.828 666.645,47.738 668.215,48.758C674.48,54.328 675.262,63.992 669.773,70.582C659.59,82.633 645.488,99.68 645.488,99.68C645.488,99.68 651.754,106.844 659.59,114.344Z" style="fill:white;"/>
            </g>
            <g transform="matrix(5.555556,0,0,5.555556,0,0.000014)">
                <path d="M474.863,223.184L319.918,223.184C314.438,223.184 308.953,220.875 304.938,216.863C300.918,212.848 298.355,207.297 298.355,201.574L298.355,198.84C298.355,193.117 300.918,187.648 304.938,183.551C308.953,179.535 314.438,177.316 319.918,177.316L474.863,177.316L474.863,223.184Z" style="fill:white;"/>
            </g>
            <g transform="matrix(5.555556,0,0,5.555556,0,0.000014)">
                <path d="M182.145,689.293C182.145,699.703 173.715,708.184 163.227,708.184L101.742,708.184C91.258,708.184 82.824,699.703 82.824,689.293L82.824,673.68L182.145,673.68L182.145,689.293Z" style="fill:white;"/>
            </g>
            <g transform="matrix(5.555556,0,0,5.555556,0,0.000014)">
                <path d="M715.82,685.375C715.82,697.969 705.785,708.184 692.941,708.184L544.836,708.184C532.391,708.184 521.953,697.969 521.953,685.375L521.953,673.68L715.82,673.68L715.82,685.375Z" style="fill:white;"/>
            </g>
            <g transform="matrix(5.555556,0,0,5.555556,0,0.000014)">
                <path d="M639.336,665.152C639.336,665.152 151.828,664.316 28.707,664.059C21.238,664.059 13.785,661.102 8.805,655.77C3.828,650.5 0.105,643.367 0.105,635.98C0.105,631.48 0.105,626.789 1.336,622.355C1.336,607.449 12.539,595.305 27.465,594.664C131.926,590.23 507.516,574.359 507.516,574.359L605.77,540.434L639.336,665.152Z" style="fill:white;"/>
            </g>
        </g>
    </g>
</svg>
