<?xml version="1.0" encoding="UTF-8" standalone="no"?>
<!DOCTYPE svg PUBLIC "-//W3C//DTD SVG 1.1//EN" "http://www.w3.org/Graphics/SVG/1.1/DTD/svg11.dtd">
<svg width="100%" height="100%" viewBox="0 0 2000 2000" version="1.1" xmlns="http://www.w3.org/2000/svg" xmlns:xlink="http://www.w3.org/1999/xlink" xml:space="preserve" xmlns:serif="http://www.serif.com/" style="fill-rule:evenodd;clip-rule:evenodd;stroke-linejoin:round;stroke-miterlimit:2;">
    <g transform="matrix(0.47248,0,0,0.47248,1000,1000)">
        <g transform="matrix(1,0,0,1,-2083.333333,-2083.333333)">
            <g transform="matrix(5.555556,0,0,5.555556,0,0.000014)">
                <g>
                    <g>
                        <path d="M749.82,435.324L749.82,435.316C749.543,430.512 747.023,428.23 742.266,428.469C737.988,428.68 735.707,430.98 735.426,435.371L735.426,435.367C735.359,436.379 735.238,440.949 735.062,449.082L735.066,448.914C733.805,477.121 733.148,493.637 733.094,498.457L733.098,498.324C732.832,507.285 732.59,523.082 732.371,545.723L732.371,545.727C732.305,552.867 732.27,558.797 732.27,563.504L732.27,563.5L732.262,569.523L732.262,569.547C732.297,584.449 732.309,593.992 732.297,598.172L732.297,598.168C732.227,619.047 732.195,630.934 732.207,633.836L732.207,633.816C732.211,646.074 732.227,659.977 732.254,675.527L732.254,675.492C732.211,690.617 732.195,702.879 732.207,712.285C732.223,720.441 732.273,729.832 732.363,740.461C732.398,744.438 735.648,747.633 739.621,747.602C743.598,747.566 746.793,744.312 746.758,740.336C746.668,729.746 746.617,720.387 746.602,712.262L746.602,712.266C746.59,702.891 746.605,690.645 746.648,675.531L746.648,675.5C746.617,659.949 746.602,646.055 746.602,633.812L746.602,633.793C746.59,630.922 746.621,619.062 746.691,598.215L746.691,598.211C746.703,594.012 746.691,584.445 746.656,569.512L746.656,569.539L746.664,563.52L746.664,563.516C746.664,558.852 746.699,552.969 746.766,545.859L746.766,545.863C746.984,523.316 747.223,507.613 747.484,498.746L747.488,498.613C747.539,493.949 748.191,477.598 749.449,449.559L749.453,449.395C749.625,441.465 749.738,437.102 749.789,436.297L749.789,436.293C749.523,440.453 747.254,442.637 742.984,442.852C738.234,443.09 735.727,440.855 735.453,436.152C735.676,440.117 739.078,443.152 743.047,442.926C747.016,442.699 750.047,439.297 749.82,435.324Z" style="fill:white;fill-rule:nonzero;"/>
                        <path d="M476.742,0.871C499.723,0.871 527.879,35.168 561.203,103.766C561.59,104.559 562.129,105.262 562.781,105.84C562.973,106.008 563.043,106.281 562.953,106.52C562.902,106.652 562.809,106.758 562.691,106.828L562.723,106.828C558.773,111.988 547.246,120.031 528.137,130.961L528.078,130.996C470.105,164.918 363.141,226.613 207.184,316.078L207.062,316.152C199.051,320.965 191.598,324.348 184.707,326.293L184.531,326.312L184.566,326.312C166.68,328.242 149.066,329.207 131.734,329.207C100.32,329.207 69.824,326.035 40.242,319.695C39.789,319.598 39.324,319.551 38.863,319.551C38.77,319.551 38.695,319.551 38.602,319.555L38.625,319.555C38.605,319.559 38.582,319.559 38.562,319.559L38.426,319.559C32.387,319.559 19.703,307.223 0.367,282.551L0.402,282.551C0.258,282.473 0.148,282.34 0.102,282.172C0.031,281.922 0.125,281.656 0.34,281.504C156.309,171.766 314.055,78.309 473.578,1.129C473.641,1.102 473.711,1.078 473.789,1.066L473.75,1.066C474.738,0.938 475.734,0.871 476.742,0.871Z" style="fill:white;fill-rule:nonzero;"/>
                        <path d="M28.469,329.387C28.574,329.387 28.68,329.414 28.773,329.469C32.301,331.492 35.414,332.574 38.113,332.711C38.188,332.715 38.258,332.73 38.324,332.762L38.359,332.762C68.578,339.172 99.699,342.379 131.727,342.379C132.473,342.379 133.223,342.379 133.969,342.375L134.016,342.375C134.031,342.375 134.043,342.371 134.059,342.371C134.348,342.371 134.602,342.574 134.66,342.863C134.82,343.625 135.117,344.371 135.562,345.066C142.184,355.395 147.973,364.469 153.457,373.059L153.957,373.848C153.992,373.898 154.016,373.953 154.031,374.016L154.062,374.016L157.633,379.605L161.008,384.898C173.418,404.344 182.918,419.148 190.75,430.352C190.883,430.539 190.898,430.785 190.793,430.988C190.707,431.152 190.555,431.266 190.383,431.305L190.414,431.305C167.086,445.559 150.613,454.727 140.992,458.805L140.957,458.82C134.77,461.48 130.422,462.812 127.918,462.812C127.598,462.812 127.305,462.793 127.035,462.75L127.031,462.75C126.871,462.738 126.723,462.664 126.613,462.543L126.578,462.504C65.684,394.023 28.199,352.602 14.133,338.246L14.168,338.246C13.988,338.168 13.852,338.012 13.809,337.812C13.75,337.547 13.875,337.27 14.113,337.141L27.809,329.656L27.805,329.656C27.898,329.605 27.98,329.559 28.066,329.508L28.07,329.508C28.172,329.43 28.297,329.387 28.434,329.387L28.469,329.387Z" style="fill:white;fill-rule:nonzero;"/>
                        <path d="M422.262,368.383C422.492,368.383 422.699,368.512 422.809,368.715C428.719,380.113 433.027,388.227 435.734,393.062L435.777,393.137C461.441,437.66 478.57,467.883 487.164,483.801C487.266,483.992 487.262,484.223 487.152,484.406C487.043,484.594 486.844,484.707 486.629,484.707L486.656,484.707C462.082,489.828 440.883,505.184 427.504,526.441C427.391,526.621 427.191,526.727 426.984,526.727C426.926,526.727 426.871,526.719 426.812,526.703C426.668,526.664 426.547,526.57 426.469,526.449C424.543,523.512 422.082,519.621 419.09,514.781L419.086,514.777L419.078,514.766L419.082,514.773L352.965,408.238L352.934,408.238C352.898,408.18 352.871,408.113 352.855,408.043C352.797,407.777 352.918,407.504 353.152,407.375L353.18,407.359L353.184,407.359C371.285,397.246 394.141,384.316 421.883,368.492C421.98,368.426 422.102,368.383 422.23,368.383L422.262,368.383Z" style="fill:white;fill-rule:nonzero;"/>
                        <path d="M504.789,496.02C506.219,496.02 507.641,496.062 509.086,496.145C552.281,498.586 585.699,537.25 583.109,583.062C580.605,627.355 545.422,661.203 504.059,661.203C502.629,661.203 501.207,661.16 499.762,661.078C456.57,658.637 423.148,619.973 425.738,574.16C428.242,529.867 463.426,496.02 504.789,496.02Z" style="fill:white;fill-rule:nonzero;"/>
                        <path d="M703.941,541.059C705.73,541.059 706.988,541.062 707.633,541.074L707.648,541.07C713.453,541.141 718.137,541.191 721.422,541.211C721.438,541.207 721.457,541.207 721.473,541.207L721.477,541.207C726.129,541.23 729.766,541.242 732.359,541.25C732.379,541.246 732.395,541.246 732.41,541.246C732.43,541.246 732.445,541.246 732.461,541.25L732.488,541.25C732.816,541.277 733.066,541.562 733.051,541.891C733.051,541.973 733.031,542.051 732.996,542.121L733.023,542.121C733.012,543.305 733,544.508 732.988,545.73C732.922,552.852 732.887,558.777 732.883,563.504L732.875,569.523L732.875,569.547C732.914,584.445 732.926,593.988 732.914,598.172C732.914,598.234 732.902,598.293 732.887,598.352L732.914,598.352C732.875,609.113 732.852,617.477 732.836,623.438C732.836,623.777 732.559,624.051 732.219,624.051C732.199,624.051 732.18,624.051 732.16,624.047L732.188,624.047C727.098,623.891 722.266,623.699 717.691,623.473C717.68,623.473 717.668,623.469 717.66,623.469L717.684,623.469L670.176,620.914L670.109,620.914C661.785,620.5 655.418,620.215 651.004,620.059C650.992,620.055 650.977,620.055 650.965,620.055L650.992,620.055C643.488,619.773 637.695,619.582 633.617,619.48L633.582,619.48L633.555,619.477L633.543,619.477C631.188,619.383 619.422,619.152 598.25,618.781L598.23,618.777L598.234,618.777C594.422,618.68 591.289,618.59 588.84,618.52L588.809,618.516L588.781,618.516C588.586,618.496 588.406,618.387 588.305,618.219C588.203,618.047 588.188,617.836 588.266,617.656C592.781,607.246 595.574,595.832 596.254,583.809C597.051,569.75 594.883,556.211 590.305,543.855L590.332,543.855C590.219,543.742 590.156,543.586 590.16,543.414C590.168,543.086 590.43,542.824 590.754,542.812C614.527,542.062 639.961,541.457 667.078,541.164L667.117,541.164C669.934,541.129 671.996,541.117 673.348,541.113L673.371,541.113C673.383,541.113 673.406,541.117 673.434,541.117L673.438,541.117L673.477,541.113C673.52,541.113 673.598,541.113 673.68,541.117C673.691,541.113 673.703,541.113 673.719,541.113L673.746,541.113C674.203,541.117 675.207,541.117 676.426,541.117C678.281,541.117 681.473,541.113 685.27,541.105L685.297,541.105C685.312,541.102 685.332,541.102 685.348,541.102C693.129,541.078 699.906,541.059 703.941,541.059Z" style="fill:white;fill-rule:nonzero;"/>
                        <path d="M553.328,131.117C553.531,131.117 553.723,131.223 553.836,131.391L619.031,228.293C619.07,228.352 619.102,228.422 619.117,228.488L619.145,228.488C621.25,231.992 621.496,233.805 621.488,234.43C621.484,234.688 621.324,234.91 621.098,234.996L621.125,234.996C620.566,235.492 620.094,236.082 619.73,236.738C619.672,236.852 619.574,236.938 619.465,236.992L619.492,236.992C616.895,239.75 605.902,247.363 584.141,259.953C406.934,362.465 312.766,415.633 300.238,420.992C300.164,421.023 300.082,421.039 299.996,421.039L299.984,421.039C299.242,421.129 298.508,421.348 297.812,421.699C273.535,433.969 254.488,442.668 240.324,447.508C236.73,448.734 233.66,449.25 231.043,449.25C228.312,449.25 226.086,448.691 224.289,447.801C213.797,442.609 202.688,425.738 165.055,366.758L164.578,366.012C160.086,358.973 155.156,351.25 149.969,343.152L150.004,343.152C149.832,343.039 149.723,342.844 149.727,342.629C149.73,342.301 149.992,342.035 150.316,342.023C162.297,341.566 174.402,340.668 186.633,339.336C186.98,339.297 187.312,339.234 187.648,339.141C195.777,336.926 204.418,333.078 213.57,327.605L213.602,327.605C213.637,327.566 213.684,327.531 213.73,327.504C369.547,238.121 476.477,176.445 534.523,142.484L534.551,142.484C534.586,142.449 534.629,142.418 534.672,142.395C541.629,138.414 547.723,134.691 552.961,131.223C553.059,131.156 553.18,131.117 553.301,131.117L553.328,131.117Z" style="fill:white;fill-rule:nonzero;"/>
                    </g>
                </g>
            </g>
        </g>
    </g>
</svg>
