<?xml version="1.0" encoding="UTF-8" standalone="no"?>
<!DOCTYPE svg PUBLIC "-//W3C//DTD SVG 1.1//EN" "http://www.w3.org/Graphics/SVG/1.1/DTD/svg11.dtd">
<svg width="100%" height="100%" viewBox="0 0 2000 2000" version="1.1" xmlns="http://www.w3.org/2000/svg" xmlns:xlink="http://www.w3.org/1999/xlink" xml:space="preserve" xmlns:serif="http://www.serif.com/" style="fill-rule:evenodd;clip-rule:evenodd;stroke-linejoin:round;stroke-miterlimit:2;">
    <g transform="matrix(0.48,0,0,0.48,1000,1000)">
        <g transform="matrix(1,0,0,1,-2083.333333,-2083.333333)">
            <g transform="matrix(5.555556,0,0,5.555556,0,0.000014)">
                <path d="M373.117,56.25C198.117,56.25 56.25,198.117 56.25,373.117C56.25,548.117 198.117,689.98 373.117,689.98C444.477,689.98 510.266,666.422 563.223,626.648C574.566,618.125 590.672,620.414 599.195,631.758C607.715,643.102 605.426,659.207 594.078,667.73C532.531,713.961 455.988,741.367 373.117,741.367C169.738,741.367 4.867,576.496 4.867,373.117C4.867,169.738 169.738,4.867 373.117,4.867C576.496,4.867 741.367,169.738 741.367,373.117C741.367,425.441 730.438,475.281 710.715,520.426C705.031,533.426 689.887,539.363 676.883,533.684C663.883,528 657.945,512.855 663.625,499.852C680.57,461.074 689.98,418.227 689.98,373.117C689.98,198.117 548.117,56.25 373.117,56.25Z" style="fill:white;"/>
            </g>
            <g transform="matrix(5.555556,0,0,5.555556,0,0.000014)">
                <path d="M227.527,364.551C227.527,350.363 239.031,338.859 253.223,338.859L493.012,338.859C507.199,338.859 518.703,350.363 518.703,364.551C518.703,378.742 507.199,390.242 493.012,390.242L253.223,390.242C239.031,390.242 227.527,378.742 227.527,364.551Z" style="fill:white;"/>
            </g>
            <g transform="matrix(5.555556,0,0,5.555556,0,0.000014)">
                <path d="M227.527,467.32C227.527,453.129 239.031,441.629 253.223,441.629L493.012,441.629C507.199,441.629 518.703,453.129 518.703,467.32C518.703,481.508 507.199,493.012 493.012,493.012L253.223,493.012C239.031,493.012 227.527,481.508 227.527,467.32Z" style="fill:white;"/>
            </g>
            <g transform="matrix(5.555556,0,0,5.555556,0,0.000014)">
                <path d="M235.055,192.234C245.086,182.199 261.355,182.199 271.387,192.234L373.117,293.961L474.844,192.234C484.879,182.199 501.145,182.199 511.176,192.234C521.211,202.266 521.211,218.535 511.176,228.566L398.809,340.941L398.809,604.344C398.809,618.531 387.305,630.035 373.117,630.035C358.926,630.035 347.426,618.531 347.426,604.344L347.426,340.941L235.055,228.566C225.02,218.535 225.02,202.266 235.055,192.234Z" style="fill:white;"/>
            </g>
        </g>
    </g>
</svg>
