<?xml version="1.0" encoding="UTF-8" standalone="no"?>
<!DOCTYPE svg PUBLIC "-//W3C//DTD SVG 1.1//EN" "http://www.w3.org/Graphics/SVG/1.1/DTD/svg11.dtd">
<svg width="100%" height="100%" viewBox="0 0 2000 2000" version="1.1" xmlns="http://www.w3.org/2000/svg" xmlns:xlink="http://www.w3.org/1999/xlink" xml:space="preserve" xmlns:serif="http://www.serif.com/" style="fill-rule:evenodd;clip-rule:evenodd;stroke-linejoin:round;stroke-miterlimit:2;">
    <g transform="matrix(0.48,0,0,0.48,1000,1000)">
        <g transform="matrix(1,0,0,1,-2083.333333,-2083.333333)">
            <g transform="matrix(5.555556,0,0,5.555556,-0.564233,-0.390622)">
                <clipPath id="_clip1">
                    <rect x="12.852" y="10.195" width="724.5" height="729.75"/>
                </clipPath>
                <g clip-path="url(#_clip1)">
                    <path d="M301.055,344.574C301.055,354.715 299.172,365.004 295.551,375.289C291.926,385.578 287.145,395.719 281.496,405.715C275.844,415.715 269.613,425.277 262.656,434.547C255.848,443.82 249.035,452.371 242.516,460.047L226.723,472.219L226.723,473.668L248.168,469.465L305.547,469.465L305.547,502.355L179.918,502.355L179.918,482.363C184.703,477.434 190.062,471.641 196.004,464.977C201.945,458.309 208.031,451.211 214.117,443.82C220.203,436.434 226.145,428.609 231.938,420.641C237.734,412.672 242.805,404.703 247.441,396.586C252.078,388.473 255.703,380.797 258.309,373.117C261.062,365.582 262.367,358.336 262.367,351.672C262.367,343.559 260.051,336.75 255.414,331.531C250.777,326.316 243.387,323.562 233.242,323.562C226.867,323.562 220.348,324.867 213.68,327.621C207.016,330.375 201.363,333.707 196.871,337.906L181.223,310.523C189.047,304.148 197.742,299.078 207.594,295.168C217.449,291.254 229.039,289.371 242.371,289.371C250.922,289.371 258.746,290.531 265.992,292.992C273.09,295.312 279.32,298.934 284.539,303.426C289.754,308.062 293.812,313.711 296.711,320.52C299.605,327.477 301.055,335.445 301.055,344.574ZM474.355,444.258L441.465,444.258L441.465,502.5L405.383,502.5L405.383,444.258L314.965,444.258L314.965,422.234L409.586,292.125L441.465,292.125L441.465,413.25L474.355,413.25L474.355,444.258ZM405.383,367.609L408.137,342.543L406.977,342.543L396.836,363.988L365.828,404.266L350.902,415.566L370.027,413.25L405.527,413.25L405.527,367.609L405.383,367.609ZM547.676,403.109L547.676,353.699C547.676,346.602 546.66,341.531 544.777,338.344C542.75,335.156 539.273,333.707 534.055,333.707C530.289,333.707 526.664,335.012 523.477,337.617C520.289,340.227 518.117,343.559 517.102,347.617L517.102,403.109L494.496,403.109L494.496,281.402L517.102,281.402L517.102,325.883L517.828,325.883C520.578,322.113 524.059,319.219 528.113,317.043C532.172,314.871 537.387,313.711 543.617,313.711C547.965,313.711 551.879,314.293 555.211,315.449C558.543,316.609 561.441,318.492 563.613,321.246C565.934,323.855 567.527,327.477 568.688,332.113C569.844,336.75 570.281,342.398 570.281,349.062L570.281,403.109L547.676,403.109ZM679.391,377.316C679.391,545.098 542.895,681.582 375.102,681.582C207.305,681.582 70.809,545.098 70.809,377.316C70.809,262.277 133.84,159.84 233.969,107.68L220.348,148.973L375.102,44.074L191.223,10.605L224.695,47.844C165.574,74.793 115.004,116.809 77.621,170.562C35.309,231.414 12.852,302.988 12.852,377.316C12.852,577.117 175.281,739.539 375.102,739.539C574.918,739.539 737.352,577.117 737.352,377.316L679.391,377.316ZM375.102,73.051C380.895,73.051 386.836,73.199 392.777,73.488L396.109,15.676C389.156,15.242 382.055,15.098 375.102,15.098L375.102,73.051ZM491.891,96.379C502.32,100.727 512.609,105.652 522.465,111.16L550.574,60.449C538.836,53.926 526.52,47.988 514.059,42.77L491.891,96.379ZM584.914,82.035L551.297,129.27C560.57,135.789 569.41,143.035 577.961,150.566L616.648,107.391C606.504,98.406 595.926,89.859 584.914,82.035ZM426.539,77.398C437.695,79.281 448.855,81.891 459.723,84.934L475.949,29.441C463.055,25.676 449.723,22.633 436.395,20.457L426.539,77.398ZM692.141,201.859L641.426,229.965C646.934,239.82 651.859,250.105 656.207,260.539L709.676,238.227C704.457,225.91 698.66,213.594 692.141,201.859ZM723.148,276.621L667.508,292.703C670.695,303.57 673.16,314.727 675.043,325.883L732.133,316.176C729.961,302.844 726.918,289.516 723.148,276.621ZM645.195,136.078L602.012,174.766C609.547,183.168 616.648,192.152 623.312,201.422L670.551,167.809C662.727,156.652 654.176,146.078 645.195,136.078ZM736.77,356.453L678.957,359.785C679.246,365.727 679.391,371.668 679.391,377.461L737.352,377.461C737.352,370.508 737.203,363.41 736.77,356.453Z" style="fill:white;fill-rule:nonzero;"/>
                </g>
            </g>
        </g>
    </g>
</svg>
