<?xml version="1.0" encoding="UTF-8" standalone="no"?>
<!DOCTYPE svg PUBLIC "-//W3C//DTD SVG 1.1//EN" "http://www.w3.org/Graphics/SVG/1.1/DTD/svg11.dtd">
<svg width="100%" height="100%" viewBox="0 0 2000 2000" version="1.1" xmlns="http://www.w3.org/2000/svg" xmlns:xlink="http://www.w3.org/1999/xlink" xml:space="preserve" xmlns:serif="http://www.serif.com/" style="fill-rule:evenodd;clip-rule:evenodd;stroke-linejoin:round;stroke-miterlimit:2;">
    <g transform="matrix(0.48,0,0,0.48,1000,1000)">
        <g transform="matrix(1,0,0,1,-2083.333333,-2083.333333)">
            <g transform="matrix(5.555556,0,0,5.555556,0,0.000014)">
                <path d="M375.016,254.645L375.016,706.035L235.309,546.102L172.629,474.344C161.422,461.512 154.988,443.598 154.988,425.211L154.988,76.246C154.988,52.332 168.926,38.621 180.867,34.141C184.547,32.758 188.246,32.086 191.871,32.086C200.91,32.086 209.559,36.293 216.609,44.359L237.758,68.566L357.375,205.508C368.582,218.348 375.016,236.254 375.016,254.645Z" style="fill:none;fill-rule:nonzero;"/>
            </g>
            <g transform="matrix(5.555556,0,0,5.555556,0,0.000014)">
                <path d="M595.035,76.246L595.035,425.211C595.035,443.605 588.602,461.512 577.395,474.344L514.723,546.094L375.016,706.043L375.016,254.645C375.016,236.254 381.445,218.34 392.656,205.508L489.211,94.969L533.422,44.359C540.465,36.285 549.109,32.086 558.156,32.086C561.785,32.086 565.48,32.766 569.164,34.141C581.09,38.613 595.035,52.332 595.035,76.246Z" style="fill:white;fill-rule:nonzero;"/>
            </g>
            <g transform="matrix(5.555556,0,0,5.555556,0,0.000014)">
                <clipPath id="_clip1">
                    <rect x="124.219" y="1" width="501.75" height="749"/>
                </clipPath>
                <g clip-path="url(#_clip1)">
                    <path d="M612.719,31.602C604.52,19.379 593.191,10.293 579.973,5.328C568.188,0.906 555.648,0.129 543.715,3.082C531.102,6.211 519.52,13.484 510.238,24.109L448.344,94.969L375.008,178.934L375.008,178.926L278.617,68.566L239.785,24.109C230.504,13.484 218.922,6.211 206.309,3.082C194.383,0.129 181.844,0.906 170.059,5.328C156.832,10.293 145.512,19.379 137.309,31.602C128.746,44.359 124.219,59.793 124.219,76.238L124.219,425.203C124.219,438.059 126.402,450.605 130.711,462.508C135.059,474.527 141.367,485.32 149.465,494.586L235.316,592.879L367.629,744.371C369.738,746.789 372.273,748.648 375.016,749.918C377.766,748.656 380.281,746.789 382.398,744.371L514.715,592.879L600.566,494.586C608.656,485.32 614.965,474.535 619.312,462.508C623.621,450.605 625.805,438.059 625.805,425.203L625.805,76.238C625.805,59.793 621.285,44.359 612.719,31.602ZM595.035,425.203C595.035,443.598 588.602,461.504 577.395,474.336L514.723,546.086L375.016,706.043L235.309,546.102L172.629,474.344C161.422,461.512 154.988,443.598 154.988,425.211L154.988,76.238C154.988,52.324 168.926,38.613 180.867,34.133C184.547,32.75 188.246,32.078 191.871,32.078C200.91,32.078 209.559,36.285 216.609,44.352L237.758,68.559L357.375,205.5C368.59,218.332 375.016,236.246 375.016,254.637C375.016,236.246 381.445,218.332 392.656,205.5L489.211,94.969L533.422,44.359C540.465,36.285 549.109,32.086 558.156,32.086C561.785,32.086 565.48,32.766 569.164,34.141C581.098,38.613 595.043,52.332 595.043,76.246L595.043,425.203L595.035,425.203Z" style="fill:white;fill-rule:nonzero;"/>
                </g>
            </g>
        </g>
    </g>
</svg>
