<?xml version="1.0" encoding="UTF-8" standalone="no"?>
<!DOCTYPE svg PUBLIC "-//W3C//DTD SVG 1.1//EN" "http://www.w3.org/Graphics/SVG/1.1/DTD/svg11.dtd">
<svg width="100%" height="100%" viewBox="0 0 2000 1000" version="1.1" xmlns="http://www.w3.org/2000/svg" xmlns:xlink="http://www.w3.org/1999/xlink" xml:space="preserve" xmlns:serif="http://www.serif.com/" style="fill-rule:evenodd;clip-rule:evenodd;">
    <g transform="matrix(2.884332,0,0,2.767691,-81.624631,-616.811951)">
        <clipPath id="_clip1">
            <path d="M67.336,228.281L682.664,228.281C702.129,228.281 717.914,244.062 717.914,263.531L717.914,543.504C717.914,562.969 702.129,578.754 682.664,578.754L67.336,578.754C47.871,578.754 32.086,562.969 32.086,543.504L32.086,263.531C32.086,244.062 47.871,228.281 67.336,228.281Z"/>
        </clipPath>
        <g clip-path="url(#_clip1)">
            <g transform="matrix(1,0,0,1,32,228)">
                <g>
                    <g>
                        <clipPath id="_clip2">
                            <rect x="0.086" y="0.281" width="685.887" height="350.473"/>
                        </clipPath>
                        <g clip-path="url(#_clip2)">
                            <g>
                                <clipPath id="_clip3">
                                    <path d="M35.336,0.281L650.664,0.281C670.129,0.281 685.914,16.062 685.914,35.531L685.914,315.504C685.914,334.969 670.129,350.754 650.664,350.754L35.336,350.754C15.871,350.754 0.086,334.969 0.086,315.504L0.086,35.531C0.086,16.062 15.871,0.281 35.336,0.281Z"/>
                                </clipPath>
                                <g clip-path="url(#_clip3)">
                                    <rect x="0.086" y="0.281" width="685.887" height="350.473" style="fill:rgb(229,76,12);fill-rule:nonzero;"/>
                                </g>
                            </g>
                        </g>
                    </g>
                </g>
            </g>
        </g>
    </g>
    <g transform="matrix(2.884332,0,0,2.767691,-81.624631,-616.811951)">
        <clipPath id="_clip4">
            <path d="M128.125,443.438L621.875,443.438C635.965,443.438 649.477,449.035 659.441,459C669.402,468.961 675,482.477 675,496.562C675,510.652 669.402,524.168 659.441,534.129C649.477,544.094 635.965,549.688 621.875,549.688L128.125,549.688C114.035,549.688 100.523,544.094 90.559,534.129C80.598,524.168 75,510.652 75,496.562C75,482.477 80.598,468.961 90.559,459C100.523,449.035 114.035,443.438 128.125,443.438Z"/>
        </clipPath>
        <g clip-path="url(#_clip4)">
            <g transform="matrix(1,0,0,1,75,443)">
                <g>
                    <g>
                        <clipPath id="_clip5">
                            <rect x="0" y="0.438" width="600" height="106.25"/>
                        </clipPath>
                        <g clip-path="url(#_clip5)">
                            <g>
                                <clipPath id="_clip6">
                                    <path d="M53.125,0.438L546.875,0.438C560.965,0.438 574.477,6.035 584.441,16C594.402,25.961 600,39.477 600,53.562C600,67.652 594.402,81.168 584.441,91.129C574.477,101.094 560.965,106.688 546.875,106.688L53.125,106.688C39.035,106.688 25.523,101.094 15.559,91.129C5.598,81.168 0,67.652 0,53.562C0,39.477 5.598,25.961 15.559,16C25.523,6.035 39.035,0.438 53.125,0.438Z"/>
                                </clipPath>
                                <g clip-path="url(#_clip6)">
                                    <rect x="0" y="0.438" width="600.145" height="106.25" style="fill:white;fill-rule:nonzero;"/>
                                </g>
                            </g>
                        </g>
                    </g>
                </g>
            </g>
        </g>
    </g>
    <g transform="matrix(2.884332,0,0,2.767691,-81.624631,-616.811951)">
        <path d="M119.516,464.906L119.516,474.988C119.516,475.238 119.426,475.449 119.25,475.629C119.07,475.805 118.859,475.895 118.609,475.895L116.988,475.895C116.738,475.895 116.523,475.805 116.348,475.629C116.168,475.449 116.082,475.238 116.078,474.988L116.078,464.906C116.082,464.656 116.168,464.441 116.348,464.266C116.523,464.09 116.738,464 116.988,464L118.609,464C118.859,464 119.07,464.09 119.25,464.266C119.426,464.441 119.516,464.656 119.516,464.906ZM124.16,460.516L122.539,460.516C122.289,460.516 122.078,460.605 121.898,460.781C121.723,460.961 121.633,461.172 121.633,461.422L121.633,478.469C121.633,478.719 121.723,478.934 121.898,479.113C122.078,479.289 122.289,479.379 122.539,479.379L124.16,479.379C124.41,479.379 124.625,479.289 124.801,479.113C124.98,478.934 125.066,478.719 125.07,478.469L125.07,461.422C125.066,461.172 124.98,460.961 124.801,460.781C124.625,460.605 124.41,460.516 124.16,460.516ZM168.371,467.527C168,467.527 167.641,467.598 167.297,467.738C166.953,467.883 166.652,468.086 166.387,468.348C166.125,468.613 165.922,468.914 165.781,469.258C165.637,469.602 165.566,469.961 165.566,470.332L165.566,483.441L157.855,490.129L146.914,490.129L139.203,483.441L139.203,470.332C139.203,469.957 139.137,469.598 138.996,469.254C138.852,468.906 138.652,468.602 138.387,468.336C138.125,468.07 137.82,467.867 137.477,467.723C137.129,467.578 136.77,467.508 136.398,467.508C136.023,467.508 135.664,467.578 135.316,467.723C134.973,467.867 134.668,468.07 134.406,468.336C134.141,468.602 133.941,468.906 133.797,469.254C133.656,469.598 133.59,469.957 133.59,470.332L133.59,484.711C133.59,485.156 133.691,485.578 133.891,485.977C134.094,486.375 134.371,486.707 134.73,486.969L144.719,495.633L144.719,510.512L140.156,527.539C140.027,528.031 139.992,528.527 140.059,529.031C140.125,529.535 140.285,530.008 140.539,530.449C140.793,530.887 141.121,531.262 141.527,531.574C141.93,531.883 142.375,532.102 142.867,532.234C143.359,532.367 143.855,532.398 144.359,532.332C144.863,532.266 145.336,532.105 145.773,531.852C146.215,531.598 146.59,531.27 146.898,530.863C147.207,530.461 147.43,530.016 147.562,529.523L152.383,511.523L157.207,529.523C157.34,530.016 157.559,530.461 157.871,530.863C158.18,531.27 158.555,531.598 158.992,531.852C159.434,532.105 159.906,532.266 160.41,532.332C160.914,532.398 161.41,532.363 161.902,532.234C162.391,532.102 162.84,531.883 163.242,531.57C163.645,531.262 163.973,530.887 164.227,530.449C164.484,530.008 164.645,529.535 164.711,529.031C164.777,528.527 164.742,528.031 164.613,527.539L160.051,510.512L160.051,495.633L170.039,486.969C170.398,486.707 170.676,486.375 170.879,485.977C171.078,485.578 171.18,485.156 171.18,484.711L171.18,470.332C171.18,469.961 171.105,469.602 170.965,469.258C170.82,468.914 170.617,468.613 170.355,468.348C170.094,468.086 169.789,467.883 169.445,467.738C169.102,467.598 168.742,467.527 168.371,467.527ZM141.32,471.035L163.449,471.035L163.449,470.332C163.449,469.828 163.523,469.336 163.672,468.855L141.094,468.855C141.246,469.336 141.32,469.828 141.32,470.332L141.32,471.035ZM187.781,464L186.16,464C185.91,464 185.695,464.09 185.52,464.266C185.344,464.441 185.254,464.656 185.254,464.906L185.254,474.988C185.254,475.238 185.344,475.449 185.52,475.629C185.695,475.805 185.91,475.895 186.16,475.895L187.781,475.895C188.031,475.895 188.246,475.805 188.422,475.629C188.602,475.449 188.688,475.238 188.688,474.988L188.688,464.906C188.688,464.656 188.602,464.441 188.422,464.266C188.246,464.09 188.031,464 187.781,464ZM146.363,481.125C146.363,481.52 146.398,481.91 146.477,482.297C146.555,482.688 146.668,483.062 146.82,483.43C146.973,483.793 147.156,484.141 147.375,484.469C147.598,484.797 147.848,485.102 148.125,485.383C148.406,485.66 148.711,485.91 149.039,486.133C149.367,486.352 149.715,486.535 150.078,486.688C150.445,486.84 150.82,486.953 151.211,487.031C151.598,487.109 151.988,487.148 152.383,487.148C152.781,487.148 153.172,487.109 153.559,487.031C153.949,486.953 154.324,486.84 154.688,486.688C155.055,486.535 155.402,486.352 155.73,486.133C156.059,485.91 156.363,485.66 156.645,485.383C156.922,485.102 157.172,484.797 157.391,484.469C157.613,484.141 157.797,483.793 157.949,483.43C158.102,483.062 158.215,482.688 158.293,482.297C158.367,481.91 158.406,481.52 158.406,481.125C158.406,480.727 158.367,480.336 158.293,479.949C158.215,479.562 158.102,479.184 157.949,478.82C157.797,478.453 157.613,478.105 157.391,477.777C157.172,477.449 156.922,477.145 156.645,476.863C156.363,476.586 156.059,476.336 155.73,476.117C155.402,475.895 155.055,475.711 154.688,475.559C154.324,475.406 153.949,475.293 153.559,475.215C153.172,475.141 152.781,475.102 152.383,475.102C151.988,475.102 151.598,475.141 151.211,475.215C150.82,475.293 150.445,475.406 150.078,475.559C149.715,475.711 149.367,475.895 149.039,476.117C148.711,476.336 148.406,476.586 148.125,476.863C147.848,477.145 147.598,477.449 147.375,477.777C147.156,478.105 146.973,478.453 146.82,478.82C146.668,479.184 146.555,479.562 146.477,479.949C146.398,480.336 146.363,480.727 146.363,481.125ZM173.297,470.332L173.297,471.035L177.582,471.035L177.582,468.855L173.07,468.855C173.223,469.336 173.297,469.828 173.297,470.332ZM182.227,460.516L180.609,460.516C180.355,460.516 180.145,460.605 179.965,460.781C179.789,460.961 179.699,461.172 179.699,461.422L179.699,478.469C179.699,478.719 179.789,478.934 179.965,479.113C180.145,479.289 180.355,479.379 180.609,479.379L182.227,479.379C182.48,479.379 182.691,479.289 182.871,479.113C183.047,478.934 183.137,478.719 183.137,478.469L183.137,461.422C183.137,461.172 183.047,460.961 182.871,460.781C182.691,460.605 182.48,460.516 182.227,460.516ZM127.188,471.035L131.473,471.035L131.473,470.332C131.473,469.828 131.547,469.336 131.699,468.855L127.188,468.855L127.188,471.035Z" style="fill:rgb(229,76,12);fill-rule:nonzero;"/>
    </g>
    <g transform="matrix(2.884332,0,0,2.767691,-81.624631,-616.811951)">
        <path d="M637.637,494.418L606.449,475.336C603.766,473.992 601.59,475.336 601.59,478.34L601.59,514.781C601.59,517.785 603.766,519.133 606.453,517.793L637.633,499.281C640.32,497.941 640.32,495.766 637.637,494.418Z" style="fill:rgb(229,76,12);fill-rule:nonzero;"/>
    </g>
    <g transform="matrix(2.884332,0,0,2.767691,-81.624631,-616.811951)">
        <path d="M477.18,390.609C472.723,390.609 469.094,394.238 469.094,398.695C469.094,403.152 472.723,406.781 477.18,406.781C481.637,406.781 485.266,403.152 485.266,398.695C485.266,394.238 481.637,390.609 477.18,390.609ZM477.18,405.188C473.602,405.188 470.688,402.273 470.688,398.695C470.688,395.117 473.602,392.203 477.18,392.203C480.758,392.203 483.672,395.117 483.672,398.695C483.672,402.273 480.758,405.188 477.18,405.188ZM477.977,411.078C477.977,411.516 477.621,411.875 477.18,411.875C473.66,411.875 470.352,410.504 467.863,408.012C465.375,405.523 464.004,402.215 464.004,398.695C464.004,395.176 465.375,391.867 467.863,389.379C470.352,386.891 473.66,385.52 477.18,385.52C480.699,385.52 484.012,386.891 486.5,389.379C486.535,389.414 486.57,389.449 486.605,389.484L486.605,388.473C486.605,388.035 486.961,387.676 487.402,387.676C487.84,387.676 488.199,388.035 488.199,388.473L488.199,391.406C488.199,391.848 487.84,392.203 487.402,392.203L484.469,392.203C484.027,392.203 483.672,391.848 483.672,391.406C483.672,390.965 484.027,390.609 484.469,390.609L485.477,390.609C485.441,390.574 485.406,390.539 485.371,390.504C480.855,385.988 473.508,385.988 468.988,390.504C464.473,395.02 464.473,402.371 468.988,406.887C471.18,409.074 474.086,410.281 477.18,410.281C477.621,410.281 477.977,410.637 477.977,411.078ZM480.57,400.652C480.422,400.91 480.152,401.051 479.879,401.051C479.742,401.051 479.605,401.016 479.48,400.945L476.781,399.387C476.535,399.242 476.383,398.98 476.383,398.695L476.383,394.488C476.383,394.051 476.738,393.691 477.18,393.691C477.621,393.691 477.977,394.051 477.977,394.488L477.977,398.234L480.277,399.562C480.66,399.785 480.789,400.273 480.57,400.652ZM490.359,398.695C490.359,399.133 490,399.492 489.562,399.492C489.121,399.492 488.766,399.133 488.766,398.695C488.766,398.258 489.121,397.898 489.562,397.898C490,397.898 490.359,398.258 490.359,398.695ZM481.156,410.449C481.27,410.875 481.016,411.309 480.59,411.426C480.164,411.539 479.73,411.285 479.617,410.859C479.5,410.434 479.754,409.996 480.18,409.883C480.605,409.77 481.039,410.023 481.156,410.449ZM484.062,409.02C484.281,409.398 484.152,409.887 483.77,410.109C483.391,410.328 482.902,410.195 482.68,409.816C482.461,409.434 482.59,408.945 482.973,408.727C483.355,408.508 483.84,408.637 484.062,409.02ZM486.5,406.887C486.809,407.199 486.809,407.703 486.5,408.012C486.188,408.324 485.684,408.324 485.371,408.012C485.062,407.703 485.062,407.199 485.371,406.887C485.684,406.574 486.188,406.574 486.5,406.887ZM488.594,405.285C488.371,405.664 487.887,405.797 487.504,405.574C487.121,405.355 486.992,404.867 487.211,404.488C487.43,404.105 487.918,403.977 488.301,404.195C488.68,404.414 488.812,404.902 488.594,405.285ZM489.91,402.105C489.793,402.531 489.359,402.785 488.934,402.672C488.508,402.555 488.254,402.117 488.371,401.691C488.484,401.27 488.918,401.016 489.348,401.129C489.77,401.242 490.023,401.68 489.91,402.105ZM488.371,395.699C488.254,395.273 488.508,394.836 488.934,394.719C489.359,394.609 489.793,394.859 489.91,395.285C490.023,395.711 489.77,396.148 489.348,396.262C488.918,396.375 488.484,396.121 488.371,395.699Z" style="fill:white;"/>
    </g>
    <g transform="matrix(2.884332,0,0,2.767691,-81.624631,-616.811951)">
        <path d="M598.113,388.492L595.734,388.492L595.734,387.527C595.734,387.242 595.504,387.016 595.223,387.016C594.938,387.016 594.711,387.242 594.711,387.527L594.711,388.492L590.809,388.492L590.809,387.527C590.809,387.242 590.582,387.016 590.297,387.016C590.016,387.016 589.785,387.242 589.785,387.527L589.785,388.492L585.887,388.492L585.887,387.527C585.887,387.242 585.656,387.016 585.375,387.016C585.094,387.016 584.863,387.242 584.863,387.527L584.863,388.492L580.965,388.492L580.965,387.527C580.965,387.242 580.734,387.016 580.453,387.016C580.168,387.016 579.941,387.242 579.941,387.527L579.941,388.492L577.559,388.492C576.246,388.492 575.18,389.559 575.18,390.871L575.18,408.668C575.18,409.98 576.246,411.047 577.559,411.047L598.113,411.047C599.426,411.047 600.492,409.98 600.492,408.668L600.492,390.871C600.492,389.559 599.426,388.492 598.113,388.492ZM577.559,389.516L579.941,389.516L579.941,390.48C579.941,390.762 580.168,390.992 580.453,390.992C580.734,390.992 580.965,390.762 580.965,390.48L580.965,389.516L584.863,389.516L584.863,390.48C584.863,390.762 585.094,390.992 585.375,390.992C585.656,390.992 585.887,390.762 585.887,390.48L585.887,389.516L589.785,389.516L589.785,390.48C589.785,390.762 590.016,390.992 590.297,390.992C590.582,390.992 590.809,390.762 590.809,390.48L590.809,389.516L594.711,389.516L594.711,390.48C594.711,390.762 594.938,390.992 595.223,390.992C595.504,390.992 595.734,390.762 595.734,390.48L595.734,389.516L598.113,389.516C598.863,389.516 599.469,390.121 599.469,390.871L599.469,392.773L576.203,392.773L576.203,390.871C576.203,390.121 576.812,389.516 577.559,389.516ZM598.113,410.027L577.559,410.027C576.812,410.027 576.203,409.418 576.203,408.668L576.203,393.797L599.469,393.797L599.469,408.668C599.469,409.418 598.863,410.027 598.113,410.027Z" style="fill:white;fill-rule:nonzero;"/>
    </g>
    <g transform="matrix(2.884332,0,0,2.767691,-81.624631,-616.811951)">
        <path d="M584.055,396.547L579.504,396.547C579.223,396.547 578.992,396.777 578.992,397.059L578.992,400.715C578.992,400.996 579.223,401.227 579.504,401.227L584.055,401.227C584.336,401.227 584.566,400.996 584.566,400.715L584.566,397.059C584.566,396.777 584.336,396.547 584.055,396.547ZM583.543,400.203L580.016,400.203L580.016,397.57L583.543,397.57L583.543,400.203Z" style="fill:white;fill-rule:nonzero;"/>
    </g>
    <g transform="matrix(2.884332,0,0,2.767691,-81.624631,-616.811951)">
        <path d="M587.836,396.547C587.414,396.547 587.07,396.891 587.07,397.312C587.07,397.738 587.414,398.082 587.836,398.082C588.258,398.082 588.605,397.738 588.605,397.312C588.605,396.891 588.258,396.547 587.836,396.547Z" style="fill:white;fill-rule:nonzero;"/>
    </g>
    <g transform="matrix(2.884332,0,0,2.767691,-81.624631,-616.811951)">
        <path d="M591.875,396.547C591.453,396.547 591.109,396.891 591.109,397.312C591.109,397.738 591.453,398.082 591.875,398.082C592.297,398.082 592.641,397.738 592.641,397.312C592.641,396.891 592.297,396.547 591.875,396.547Z" style="fill:white;fill-rule:nonzero;"/>
    </g>
    <g transform="matrix(2.884332,0,0,2.767691,-81.624631,-616.811951)">
        <path d="M595.914,396.547C595.492,396.547 595.148,396.891 595.148,397.312C595.148,397.738 595.492,398.082 595.914,398.082C596.336,398.082 596.68,397.738 596.68,397.312C596.68,396.891 596.336,396.547 595.914,396.547Z" style="fill:white;fill-rule:nonzero;"/>
    </g>
    <g transform="matrix(2.884332,0,0,2.767691,-81.624631,-616.811951)">
        <path d="M587.836,399.691C587.414,399.691 587.07,400.035 587.07,400.457C587.07,400.879 587.414,401.227 587.836,401.227C588.258,401.227 588.605,400.879 588.605,400.457C588.605,400.035 588.258,399.691 587.836,399.691Z" style="fill:white;fill-rule:nonzero;"/>
    </g>
    <g transform="matrix(2.884332,0,0,2.767691,-81.624631,-616.811951)">
        <path d="M591.875,399.691C591.453,399.691 591.109,400.035 591.109,400.457C591.109,400.879 591.453,401.227 591.875,401.227C592.297,401.227 592.641,400.879 592.641,400.457C592.641,400.035 592.297,399.691 591.875,399.691Z" style="fill:white;fill-rule:nonzero;"/>
    </g>
    <g transform="matrix(2.884332,0,0,2.767691,-81.624631,-616.811951)">
        <path d="M595.914,399.691C595.492,399.691 595.148,400.035 595.148,400.457C595.148,400.879 595.492,401.227 595.914,401.227C596.336,401.227 596.68,400.879 596.68,400.457C596.68,400.035 596.336,399.691 595.914,399.691Z" style="fill:white;fill-rule:nonzero;"/>
    </g>
    <g transform="matrix(2.884332,0,0,2.767691,-81.624631,-616.811951)">
        <path d="M587.836,402.836C587.414,402.836 587.07,403.18 587.07,403.602C587.07,404.023 587.414,404.367 587.836,404.367C588.258,404.367 588.605,404.023 588.605,403.602C588.605,403.18 588.258,402.836 587.836,402.836Z" style="fill:white;fill-rule:nonzero;"/>
    </g>
    <g transform="matrix(2.884332,0,0,2.767691,-81.624631,-616.811951)">
        <path d="M591.875,402.836C591.453,402.836 591.109,403.18 591.109,403.602C591.109,404.023 591.453,404.367 591.875,404.367C592.297,404.367 592.641,404.023 592.641,403.602C592.641,403.18 592.297,402.836 591.875,402.836Z" style="fill:white;fill-rule:nonzero;"/>
    </g>
    <g transform="matrix(2.884332,0,0,2.767691,-81.624631,-616.811951)">
        <path d="M591.875,405.98C591.453,405.98 591.109,406.324 591.109,406.746C591.109,407.168 591.453,407.512 591.875,407.512C592.297,407.512 592.641,407.168 592.641,406.746C592.641,406.324 592.297,405.98 591.875,405.98Z" style="fill:white;fill-rule:nonzero;"/>
    </g>
    <g transform="matrix(2.884332,0,0,2.767691,-81.624631,-616.811951)">
        <path d="M595.914,402.836C595.492,402.836 595.148,403.18 595.148,403.602C595.148,404.023 595.492,404.367 595.914,404.367C596.336,404.367 596.68,404.023 596.68,403.602C596.68,403.18 596.336,402.836 595.914,402.836Z" style="fill:white;fill-rule:nonzero;"/>
    </g>
    <g transform="matrix(2.884332,0,0,2.767691,-81.624631,-616.811951)">
        <path d="M583.797,402.836C583.375,402.836 583.031,403.18 583.031,403.602C583.031,404.023 583.375,404.367 583.797,404.367C584.223,404.367 584.566,404.023 584.566,403.602C584.566,403.18 584.223,402.836 583.797,402.836Z" style="fill:white;fill-rule:nonzero;"/>
    </g>
    <g transform="matrix(2.884332,0,0,2.767691,-81.624631,-616.811951)">
        <path d="M579.758,402.836C579.336,402.836 578.992,403.18 578.992,403.602C578.992,404.023 579.336,404.367 579.758,404.367C580.184,404.367 580.527,404.023 580.527,403.602C580.527,403.18 580.184,402.836 579.758,402.836Z" style="fill:white;fill-rule:nonzero;"/>
    </g>
    <g transform="matrix(2.884332,0,0,2.767691,-81.624631,-616.811951)">
        <path d="M587.836,405.98C587.414,405.98 587.07,406.324 587.07,406.746C587.07,407.168 587.414,407.512 587.836,407.512C588.258,407.512 588.605,407.168 588.605,406.746C588.605,406.324 588.258,405.98 587.836,405.98Z" style="fill:white;fill-rule:nonzero;"/>
    </g>
    <g transform="matrix(2.884332,0,0,2.767691,-81.624631,-616.811951)">
        <path d="M583.797,405.98C583.375,405.98 583.031,406.324 583.031,406.746C583.031,407.168 583.375,407.512 583.797,407.512C584.223,407.512 584.566,407.168 584.566,406.746C584.566,406.324 584.223,405.98 583.797,405.98Z" style="fill:white;fill-rule:nonzero;"/>
    </g>
    <g transform="matrix(2.884332,0,0,2.767691,-81.624631,-616.811951)">
        <path d="M579.758,405.98C579.336,405.98 578.992,406.324 578.992,406.746C578.992,407.168 579.336,407.512 579.758,407.512C580.184,407.512 580.527,407.168 580.527,406.746C580.527,406.324 580.184,405.98 579.758,405.98Z" style="fill:white;fill-rule:nonzero;"/>
    </g>
    <g transform="matrix(2.884332,0,0,2.767691,1253.821247,318.667592)">
        <g>
            <g transform="matrix(1,0,0,1,1.018385,35.674475)">
                <g>
                    <path d="M21.969,-23.141C22.414,-22.523 22.906,-21.77 23.438,-20.875C23.969,-19.977 24.406,-19.176 24.75,-18.469L22.125,-17.359C21.676,-18.305 21.254,-19.141 20.859,-19.859C20.473,-20.586 20.008,-21.332 19.469,-22.094L21.969,-23.141ZM26.125,-24.594C26.594,-23.988 27.094,-23.254 27.625,-22.391C28.156,-21.523 28.602,-20.766 28.969,-20.109L26.406,-18.953C25.926,-19.898 25.473,-20.711 25.047,-21.391C24.617,-22.078 24.125,-22.797 23.562,-23.547L26.125,-24.594ZM8.891,-23.719C9.555,-23.352 10.328,-22.906 11.203,-22.375C12.078,-21.844 12.926,-21.305 13.75,-20.766C14.57,-20.223 15.242,-19.77 15.766,-19.406L13.531,-16.094C12.969,-16.5 12.281,-16.961 11.469,-17.484C10.656,-18.004 9.828,-18.531 8.984,-19.062C8.141,-19.594 7.383,-20.039 6.719,-20.406L8.891,-23.719ZM3.312,-2.328C5,-2.609 6.723,-3.02 8.484,-3.562C10.242,-4.102 11.938,-4.828 13.562,-5.734C16.133,-7.148 18.438,-8.848 20.469,-10.828C22.5,-12.805 24.102,-14.875 25.281,-17.031L27.609,-12.938C26.223,-10.844 24.492,-8.863 22.422,-7C20.348,-5.145 18.086,-3.504 15.641,-2.078C14.617,-1.516 13.492,-0.977 12.266,-0.469C11.035,0.039 9.832,0.477 8.656,0.844C7.488,1.207 6.461,1.469 5.578,1.625L3.312,-2.328ZM4.25,-16.844C4.938,-16.488 5.719,-16.047 6.594,-15.516C7.477,-14.992 8.332,-14.469 9.156,-13.938C9.988,-13.406 10.656,-12.957 11.156,-12.594L8.953,-9.219C8.391,-9.625 7.695,-10.094 6.875,-10.625C6.051,-11.156 5.219,-11.68 4.375,-12.203C3.531,-12.723 2.766,-13.164 2.078,-13.531L4.25,-16.844Z" style="fill:white;fill-rule:nonzero;"/>
                </g>
            </g>
        </g>
        <g>
            <g transform="matrix(1,0,0,1,31.155281,35.674475)">
                <g>
                    <path d="M28.719,-0.453L24.656,1.359C24.457,0.836 24.238,0.273 24,-0.328C23.77,-0.93 23.516,-1.555 23.234,-2.203C22.254,-2.078 21.133,-1.941 19.875,-1.797C18.625,-1.66 17.312,-1.52 15.938,-1.375C14.57,-1.238 13.227,-1.098 11.906,-0.953C10.582,-0.816 9.359,-0.688 8.234,-0.562C7.109,-0.445 6.16,-0.348 5.391,-0.266C5.016,-0.234 4.566,-0.18 4.047,-0.109C3.535,-0.035 3.039,0.031 2.562,0.094L1.875,-4.312L3.547,-4.312C4.141,-4.312 4.688,-4.32 5.188,-4.344L6,-4.375C6.344,-5.258 6.711,-6.27 7.109,-7.406C7.516,-8.551 7.922,-9.738 8.328,-10.969C8.742,-12.195 9.133,-13.398 9.5,-14.578C9.875,-15.754 10.207,-16.832 10.5,-17.812C10.789,-18.801 11.031,-19.602 11.219,-20.219C11.438,-20.988 11.594,-21.633 11.688,-22.156C11.789,-22.676 11.875,-23.188 11.938,-23.688L16.734,-22.719C16.523,-22.281 16.312,-21.781 16.094,-21.219C15.875,-20.656 15.656,-20.039 15.438,-19.375C15.227,-18.789 14.977,-18.039 14.688,-17.125C14.395,-16.219 14.07,-15.219 13.719,-14.125C13.375,-13.031 13.008,-11.914 12.625,-10.781C12.25,-9.645 11.879,-8.551 11.516,-7.5C11.148,-6.457 10.816,-5.535 10.516,-4.734C11.742,-4.848 13.008,-4.973 14.312,-5.109C15.625,-5.254 16.898,-5.395 18.141,-5.531C19.391,-5.676 20.516,-5.812 21.516,-5.938C20.992,-7.02 20.461,-8.039 19.922,-9C19.379,-9.969 18.859,-10.785 18.359,-11.453L22.125,-12.984C22.664,-12.18 23.242,-11.238 23.859,-10.156C24.473,-9.07 25.082,-7.941 25.688,-6.766C26.301,-5.586 26.875,-4.453 27.406,-3.359C27.945,-2.266 28.383,-1.297 28.719,-0.453Z" style="fill:white;fill-rule:nonzero;"/>
                </g>
            </g>
        </g>
        <g>
            <g transform="matrix(1,0,0,1,61.292177,35.674475)">
                <g>
                    <path d="M13.891,-11.297L17.609,-11.297L17.609,-14.281L13.891,-14.281L13.891,-11.297ZM24.891,-14.281L21.156,-14.281L21.156,-11.297L24.891,-11.297L24.891,-14.281ZM28.328,-8.406L20.984,-8.406C20.859,-7.477 20.664,-6.57 20.406,-5.688C20.145,-4.812 19.781,-3.973 19.312,-3.172C22.094,-1.836 25.531,-0.992 29.625,-0.641C29.25,-0.254 28.852,0.258 28.438,0.906C28.02,1.551 27.703,2.102 27.484,2.562C23.43,2.039 20,0.98 17.188,-0.609C16.457,0.055 15.578,0.66 14.547,1.203C13.523,1.742 12.344,2.219 11,2.625C10.863,2.363 10.66,2.047 10.391,1.672C10.129,1.297 9.852,0.922 9.562,0.547C9.27,0.18 9.004,-0.117 8.766,-0.359C9.973,-0.641 11.031,-0.969 11.938,-1.344C12.844,-1.727 13.613,-2.176 14.25,-2.688C13.508,-3.301 12.836,-3.984 12.234,-4.734C11.629,-5.492 11.066,-6.305 10.547,-7.172L13.469,-8.078C13.832,-7.492 14.25,-6.945 14.719,-6.438C15.195,-5.926 15.719,-5.438 16.281,-4.969C16.582,-5.508 16.82,-6.062 17,-6.625C17.176,-7.188 17.305,-7.781 17.391,-8.406L10.672,-8.406L10.672,-17.203L17.609,-17.203L17.609,-19.312L10.031,-19.312L10.031,-22.094C9.77,-21.531 9.488,-20.957 9.188,-20.375C8.883,-19.789 8.566,-19.207 8.234,-18.625L8.234,2.688L4.828,2.688L4.828,-13.5C4.422,-13 4.008,-12.504 3.594,-12.016C3.188,-11.535 2.77,-11.086 2.344,-10.672C2.25,-10.973 2.082,-11.352 1.844,-11.812C1.613,-12.281 1.375,-12.75 1.125,-13.219C0.875,-13.688 0.648,-14.062 0.453,-14.344C1.422,-15.25 2.352,-16.301 3.25,-17.5C4.156,-18.707 4.992,-20 5.766,-21.375C6.547,-22.758 7.207,-24.164 7.75,-25.594L11.062,-24.5C10.914,-24.176 10.773,-23.859 10.641,-23.547C10.516,-23.242 10.383,-22.922 10.25,-22.578L17.609,-22.578L17.609,-25.312L21.156,-25.312L21.156,-22.578L29.141,-22.578L29.141,-19.312L21.156,-19.312L21.156,-17.203L28.328,-17.203L28.328,-8.406Z" style="fill:white;fill-rule:nonzero;"/>
                </g>
            </g>
        </g>
        <g>
            <g transform="matrix(1,0,0,1,91.429073,35.674475)">
                <g>
                    <path d="M7.891,-21.453C7.836,-21.117 7.781,-20.719 7.719,-20.25C7.656,-19.789 7.609,-19.344 7.578,-18.906C7.547,-18.477 7.531,-18.125 7.531,-17.844C7.508,-16.875 7.516,-15.844 7.547,-14.75C7.578,-13.656 7.633,-12.578 7.719,-11.516C7.938,-9.359 8.289,-7.613 8.781,-6.281C9.281,-4.945 9.988,-4.281 10.906,-4.281C11.27,-4.281 11.609,-4.469 11.922,-4.844C12.234,-5.227 12.531,-5.723 12.812,-6.328C13.094,-6.93 13.336,-7.566 13.547,-8.234C13.754,-8.91 13.93,-9.539 14.078,-10.125L17.094,-6.516C16.426,-4.785 15.766,-3.406 15.109,-2.375C14.461,-1.352 13.785,-0.613 13.078,-0.156C12.379,0.289 11.629,0.516 10.828,0.516C9.734,0.516 8.707,0.16 7.75,-0.547C6.801,-1.266 5.984,-2.426 5.297,-4.031C4.617,-5.645 4.141,-7.785 3.859,-10.453C3.773,-11.379 3.707,-12.344 3.656,-13.344C3.613,-14.352 3.582,-15.316 3.562,-16.234C3.539,-17.148 3.531,-17.906 3.531,-18.5C3.531,-18.926 3.52,-19.426 3.5,-20C3.477,-20.57 3.414,-21.078 3.312,-21.516L7.891,-21.453ZM22.812,-20.828C23.52,-19.961 24.18,-18.898 24.797,-17.641C25.422,-16.391 25.977,-15.051 26.469,-13.625C26.969,-12.195 27.375,-10.785 27.688,-9.391C28,-7.992 28.191,-6.723 28.266,-5.578L24.328,-4.062C24.203,-5.27 24.008,-6.578 23.75,-7.984C23.488,-9.391 23.141,-10.805 22.703,-12.234C22.273,-13.66 21.758,-15.004 21.156,-16.266C20.551,-17.535 19.836,-18.633 19.016,-19.562L22.812,-20.828Z" style="fill:white;fill-rule:nonzero;"/>
                </g>
            </g>
        </g>
        <g>
            <g transform="matrix(1,0,0,1,121.565969,35.674475)">
                <g>
                    <path d="M19.406,-16.766L19.344,-16.547C19.602,-15.266 19.91,-14.016 20.266,-12.797C20.617,-11.578 21.035,-10.414 21.516,-9.312C21.961,-10.395 22.336,-11.551 22.641,-12.781C22.941,-14.02 23.191,-15.348 23.391,-16.766L19.406,-16.766ZM29.203,-16.766L26.953,-16.766C26.629,-14.566 26.191,-12.539 25.641,-10.688C25.086,-8.844 24.395,-7.16 23.562,-5.641C24.332,-4.566 25.211,-3.602 26.203,-2.75C27.203,-1.906 28.312,-1.203 29.531,-0.641C29.113,-0.273 28.664,0.207 28.188,0.812C27.719,1.414 27.344,1.957 27.062,2.438C24.789,1.25 22.914,-0.363 21.438,-2.406C20.594,-1.363 19.629,-0.426 18.547,0.406C17.473,1.238 16.273,2 14.953,2.688C14.848,2.426 14.676,2.098 14.438,1.703C14.195,1.305 13.945,0.906 13.688,0.5C13.426,0.102 13.18,-0.211 12.953,-0.453C15.711,-1.703 17.883,-3.422 19.469,-5.609C18.582,-7.41 17.828,-9.438 17.203,-11.688C17.004,-11.352 16.801,-11.023 16.594,-10.703C16.383,-10.379 16.164,-10.066 15.938,-9.766C15.695,-10.047 15.336,-10.367 14.859,-10.734C14.379,-11.109 13.926,-11.457 13.5,-11.781C13.457,-8.945 13.398,-6.645 13.328,-4.875C13.266,-3.113 13.16,-1.77 13.016,-0.844C12.879,0.082 12.68,0.723 12.422,1.078C12.141,1.504 11.844,1.805 11.531,1.984C11.219,2.172 10.848,2.301 10.422,2.375C10.047,2.457 9.57,2.504 9,2.516C8.426,2.523 7.828,2.52 7.203,2.5C7.16,2.02 7.051,1.469 6.875,0.844C6.707,0.219 6.504,-0.312 6.266,-0.75C6.754,-0.707 7.195,-0.68 7.594,-0.672C8,-0.66 8.32,-0.656 8.562,-0.656C8.926,-0.645 9.219,-0.797 9.438,-1.109C9.57,-1.316 9.68,-1.773 9.766,-2.484C9.848,-3.203 9.914,-4.273 9.969,-5.703C10.031,-7.141 10.082,-9.047 10.125,-11.422L7.594,-11.422C7.594,-9.836 7.484,-8.234 7.266,-6.609C7.047,-4.992 6.617,-3.414 5.984,-1.875C5.348,-0.344 4.41,1.102 3.172,2.469C2.867,2.07 2.461,1.656 1.953,1.219C1.453,0.789 0.984,0.426 0.547,0.125C1.629,-1.125 2.43,-2.422 2.953,-3.766C3.473,-5.109 3.812,-6.461 3.969,-7.828C4.133,-9.203 4.219,-10.531 4.219,-11.812L4.219,-17.625L1.266,-17.625L1.266,-20.953L6,-20.953L6,-25.531L9.547,-25.531L9.547,-20.953L14.531,-20.953L14.531,-17.625L7.594,-17.625L7.594,-14.672L13.562,-14.672L13.562,-13.797C13.562,-13.578 13.551,-13.398 13.531,-13.266L13.531,-12.953C14.613,-14.504 15.492,-16.383 16.172,-18.594C16.859,-20.801 17.375,-23.113 17.719,-25.531L21.438,-25.016C21.289,-24.172 21.129,-23.336 20.953,-22.516C20.785,-21.691 20.602,-20.879 20.406,-20.078L29.203,-20.078L29.203,-16.766Z" style="fill:white;fill-rule:nonzero;"/>
                </g>
            </g>
        </g>
        <g>
            <g transform="matrix(1,0,0,1,151.702858,35.674475)">
                <g>
                    <path d="M24.391,-16.344L24.391,-17.719L18.891,-17.719L18.891,-16.344L24.391,-16.344ZM24.391,-12.625L24.391,-14.016L18.891,-14.016L18.891,-12.625L24.391,-12.625ZM24.391,-8.891L24.391,-10.344L18.891,-10.344L18.891,-8.891L24.391,-8.891ZM15.703,-20.141L19.562,-20.141C19.664,-20.398 19.754,-20.672 19.828,-20.953C19.91,-21.234 19.992,-21.504 20.078,-21.766L14.766,-21.766L14.766,-24.266L28.578,-24.266L28.578,-21.766L23.297,-21.766L22.578,-20.141L27.703,-20.141L27.703,-6.453L15.703,-6.453L15.703,-20.141ZM22.359,-5.125L24.828,-6.422C25.641,-5.898 26.461,-5.281 27.297,-4.562C28.129,-3.852 28.773,-3.207 29.234,-2.625L26.672,-1.109C26.367,-1.516 25.973,-1.957 25.484,-2.438C24.992,-2.926 24.477,-3.41 23.938,-3.891C23.395,-4.367 22.867,-4.781 22.359,-5.125ZM18.141,-6.234L21.062,-5.312C20.426,-4.457 19.625,-3.633 18.656,-2.844C17.688,-2.051 16.734,-1.406 15.797,-0.906C15.535,-1.188 15.164,-1.539 14.688,-1.969C14.219,-2.406 13.82,-2.742 13.5,-2.984C14.383,-3.391 15.25,-3.879 16.094,-4.453C16.938,-5.023 17.617,-5.617 18.141,-6.234ZM10.25,-20.562L10.25,-21.969L5.938,-21.969L5.938,-20.562L10.25,-20.562ZM10.25,-16.812L10.25,-18.297L5.938,-18.297L5.938,-16.812L10.25,-16.812ZM13.562,-24.359L13.562,-14.406L2.75,-14.406L2.75,-24.359L13.562,-24.359ZM9.969,-5.031L9.969,-1.484C10.875,-1.211 11.879,-1.031 12.984,-0.938C14.086,-0.852 15.316,-0.812 16.672,-0.812L21.312,-0.812C22.352,-0.812 23.398,-0.816 24.453,-0.828C25.516,-0.836 26.477,-0.852 27.344,-0.875C28.219,-0.895 28.91,-0.914 29.422,-0.938C29.18,-0.594 28.953,-0.121 28.734,0.469C28.523,1.062 28.367,1.578 28.266,2.016L16.672,2.016C14.773,2.016 13.086,1.922 11.609,1.734C10.141,1.547 8.848,1.172 7.734,0.609C6.617,0.055 5.66,-0.758 4.859,-1.844C4.648,-0.938 4.375,-0.09 4.031,0.688C3.695,1.477 3.27,2.18 2.75,2.797C2.52,2.422 2.203,1.984 1.797,1.484C1.398,0.992 1.02,0.617 0.656,0.359C1.219,-0.336 1.645,-1.172 1.938,-2.141C2.227,-3.117 2.43,-4.188 2.547,-5.344C2.66,-6.5 2.727,-7.68 2.75,-8.891L5.609,-8.891C5.586,-7.785 5.523,-6.691 5.422,-5.609C5.848,-4.66 6.363,-3.863 6.969,-3.219L6.969,-10.094L1.391,-10.094L1.391,-12.688L14.891,-12.688L14.891,-10.094L9.969,-10.094L9.969,-7.625L14.312,-7.625L14.312,-5.031L9.969,-5.031Z" style="fill:white;fill-rule:nonzero;"/>
                </g>
            </g>
        </g>
        <g>
            <g transform="matrix(1,0,0,1,181.839762,35.674475)">
                <g>
                    <path d="M13.531,-7.75L12.453,-18.047L12.328,-22.547L17.844,-22.547L17.688,-18.047L16.641,-7.75L13.531,-7.75ZM15.078,0.266C14.191,0.266 13.445,-0.008 12.844,-0.562C12.238,-1.113 11.938,-1.82 11.938,-2.688C11.938,-3.551 12.238,-4.266 12.844,-4.828C13.445,-5.391 14.191,-5.672 15.078,-5.672C15.953,-5.672 16.691,-5.391 17.297,-4.828C17.898,-4.266 18.203,-3.551 18.203,-2.688C18.203,-1.82 17.898,-1.113 17.297,-0.562C16.691,-0.008 15.953,0.266 15.078,0.266Z" style="fill:white;fill-rule:nonzero;"/>
                </g>
            </g>
        </g>
    </g>
    <g transform="matrix(2.884332,0,0,2.767691,1377.847538,440.445994)">
        <g>
            <g transform="matrix(1,0,0,1,0.519685,25.81086)">
                <g>
                    <path d="M0.953,0L0.953,-1.156C3.43,-3.32 5.254,-5.223 6.422,-6.859C7.598,-8.504 8.188,-10 8.188,-11.344C8.188,-12.25 7.941,-12.992 7.453,-13.578C6.973,-14.172 6.25,-14.469 5.281,-14.469C4.633,-14.469 4.031,-14.289 3.469,-13.938C2.914,-13.582 2.426,-13.148 2,-12.641L0.859,-13.766C1.504,-14.461 2.188,-15.02 2.906,-15.438C3.633,-15.863 4.504,-16.078 5.516,-16.078C6.922,-16.078 8.035,-15.648 8.859,-14.797C9.68,-13.941 10.094,-12.812 10.094,-11.406C10.094,-10.363 9.832,-9.305 9.312,-8.234C8.801,-7.16 8.082,-6.07 7.156,-4.969C6.227,-3.863 5.148,-2.723 3.922,-1.547C4.336,-1.578 4.77,-1.609 5.219,-1.641C5.676,-1.68 6.102,-1.703 6.5,-1.703L10.875,-1.703L10.875,0L0.953,0Z" style="fill:white;fill-rule:nonzero;"/>
                </g>
            </g>
        </g>
        <g>
            <g transform="matrix(1,0,0,1,12.472458,25.81086)">
                <g>
                    <path d="M2.469,-5.922L7.297,-5.922L7.297,-10.766C7.297,-11.148 7.312,-11.625 7.344,-12.188C7.383,-12.75 7.41,-13.227 7.422,-13.625L7.344,-13.625C7.156,-13.238 6.953,-12.852 6.734,-12.469C6.523,-12.082 6.305,-11.691 6.078,-11.297L2.469,-5.922ZM11.266,-5.922L11.266,-4.344L9.172,-4.344L9.172,0L7.297,0L7.297,-4.344L0.438,-4.344L0.438,-5.641L7,-15.781L9.172,-15.781L9.172,-5.922L11.266,-5.922Z" style="fill:white;fill-rule:nonzero;"/>
                </g>
            </g>
        </g>
        <g>
            <g transform="matrix(1,0,0,1,24.425231,25.81086)">
                <g>
                    <path d="M1.984,0L1.984,-17.141L3.938,-17.141L3.938,-12.438L3.875,-10.031C4.414,-10.582 5,-11.047 5.625,-11.422C6.25,-11.805 6.957,-12 7.75,-12C8.988,-12 9.895,-11.602 10.469,-10.812C11.039,-10.031 11.328,-8.895 11.328,-7.406L11.328,0L9.359,0L9.359,-7.141C9.359,-8.254 9.18,-9.051 8.828,-9.531C8.484,-10.02 7.922,-10.266 7.141,-10.266C6.547,-10.266 6.008,-10.113 5.531,-9.812C5.062,-9.508 4.531,-9.066 3.938,-8.484L3.938,0L1.984,0Z" style="fill:white;fill-rule:nonzero;"/>
                </g>
            </g>
        </g>
    </g>
    <g transform="matrix(2.884332,0,0,2.767691,1695.124096,440.445994)">
        <g>
            <g transform="matrix(1,0,0,1,0.993976,26.14209)">
                <g>
                    <path d="M5.688,0.281C4.445,0.281 3.422,0.059 2.609,-0.375C1.805,-0.812 1.145,-1.312 0.625,-1.875L1.609,-3.172C2.066,-2.68 2.613,-2.254 3.25,-1.891C3.883,-1.535 4.645,-1.359 5.531,-1.359C6.469,-1.359 7.234,-1.617 7.828,-2.141C8.43,-2.66 8.734,-3.375 8.734,-4.281C8.734,-4.914 8.578,-5.469 8.266,-5.938C7.953,-6.414 7.438,-6.785 6.719,-7.047C6.008,-7.316 5.047,-7.453 3.828,-7.453L3.828,-8.953C4.922,-8.953 5.781,-9.082 6.406,-9.344C7.039,-9.613 7.5,-9.977 7.781,-10.438C8.062,-10.895 8.203,-11.406 8.203,-11.969C8.203,-12.727 7.961,-13.336 7.484,-13.797C7.004,-14.254 6.352,-14.492 5.531,-14.516C4.906,-14.492 4.312,-14.336 3.75,-14.047C3.195,-13.754 2.703,-13.383 2.266,-12.938L1.203,-14.188C1.797,-14.727 2.445,-15.176 3.156,-15.531C3.875,-15.895 4.695,-16.078 5.625,-16.078C6.508,-16.078 7.297,-15.922 7.984,-15.609C8.672,-15.305 9.211,-14.859 9.609,-14.266C10.004,-13.68 10.203,-12.969 10.203,-12.125C10.203,-11.156 9.941,-10.352 9.422,-9.719C8.91,-9.094 8.234,-8.625 7.391,-8.312L7.391,-8.219C8.316,-8.008 9.109,-7.555 9.766,-6.859C10.422,-6.172 10.75,-5.289 10.75,-4.219C10.75,-3.289 10.52,-2.488 10.062,-1.812C9.613,-1.133 9.004,-0.613 8.234,-0.25C7.461,0.102 6.613,0.281 5.688,0.281Z" style="fill:white;fill-rule:nonzero;"/>
                </g>
            </g>
        </g>
        <g>
            <g transform="matrix(1,0,0,1,12.94675,26.14209)">
                <g>
                    <path d="M6.484,-1.25C7.242,-1.25 7.879,-1.578 8.391,-2.234C8.898,-2.898 9.156,-3.77 9.156,-4.844C9.156,-5.906 8.922,-6.75 8.453,-7.375C7.984,-8.008 7.27,-8.328 6.312,-8.328C5.82,-8.328 5.289,-8.172 4.719,-7.859C4.145,-7.555 3.598,-7.039 3.078,-6.312C3.191,-4.676 3.539,-3.422 4.125,-2.547C4.707,-1.68 5.492,-1.25 6.484,-1.25ZM10.719,-14.469L9.641,-13.234C9.328,-13.609 8.945,-13.906 8.5,-14.125C8.062,-14.344 7.598,-14.453 7.109,-14.453C6.391,-14.453 5.727,-14.242 5.125,-13.828C4.52,-13.422 4.023,-12.734 3.641,-11.766C3.266,-10.805 3.062,-9.508 3.031,-7.875C3.52,-8.469 4.086,-8.938 4.734,-9.281C5.379,-9.625 6.008,-9.797 6.625,-9.797C7.969,-9.797 9.031,-9.383 9.812,-8.562C10.602,-7.738 11,-6.5 11,-4.844C11,-3.82 10.789,-2.926 10.375,-2.156C9.957,-1.395 9.406,-0.797 8.719,-0.359C8.039,0.066 7.297,0.281 6.484,0.281C5.473,0.281 4.566,-0.008 3.766,-0.594C2.973,-1.176 2.348,-2.047 1.891,-3.203C1.43,-4.359 1.203,-5.801 1.203,-7.531C1.203,-9.082 1.359,-10.398 1.672,-11.484C1.992,-12.566 2.426,-13.445 2.969,-14.125C3.52,-14.801 4.145,-15.297 4.844,-15.609C5.551,-15.922 6.285,-16.078 7.047,-16.078C7.859,-16.078 8.566,-15.922 9.172,-15.609C9.773,-15.305 10.289,-14.926 10.719,-14.469Z" style="fill:white;fill-rule:nonzero;"/>
                </g>
            </g>
        </g>
        <g>
            <g transform="matrix(1,0,0,1,24.899523,26.14209)">
                <g>
                    <path d="M5.625,0.281C4.406,0.281 3.395,0.066 2.594,-0.359C1.801,-0.797 1.141,-1.281 0.609,-1.812L1.578,-3.094C2.035,-2.656 2.562,-2.254 3.156,-1.891C3.758,-1.535 4.523,-1.359 5.453,-1.359C6.066,-1.359 6.629,-1.508 7.141,-1.812C7.648,-2.113 8.055,-2.539 8.359,-3.094C8.66,-3.656 8.812,-4.316 8.812,-5.078C8.812,-6.211 8.508,-7.094 7.906,-7.719C7.312,-8.352 6.52,-8.672 5.531,-8.672C5,-8.672 4.539,-8.594 4.156,-8.438C3.781,-8.281 3.363,-8.051 2.906,-7.75L1.859,-8.391L2.344,-15.781L10.031,-15.781L10.031,-14.109L4.062,-14.109L3.688,-9.531C4.031,-9.738 4.383,-9.895 4.75,-10C5.125,-10.102 5.551,-10.156 6.031,-10.156C6.906,-10.156 7.703,-9.977 8.422,-9.625C9.141,-9.281 9.711,-8.738 10.141,-8C10.566,-7.258 10.781,-6.305 10.781,-5.141C10.781,-3.992 10.535,-3.016 10.047,-2.203C9.566,-1.391 8.93,-0.77 8.141,-0.344C7.348,0.07 6.508,0.281 5.625,0.281Z" style="fill:white;fill-rule:nonzero;"/>
                </g>
            </g>
        </g>
        <g>
            <g transform="matrix(1,0,0,1,36.852296,26.14209)">
                <g>
                    <path d="M5.969,0.281C4.5,0.281 3.328,-0.25 2.453,-1.312C1.578,-2.375 1.141,-3.879 1.141,-5.828C1.141,-7.098 1.375,-8.191 1.844,-9.109C2.32,-10.023 2.941,-10.734 3.703,-11.234C4.473,-11.742 5.305,-12 6.203,-12C6.891,-12 7.477,-11.875 7.969,-11.625C8.469,-11.383 8.977,-11.047 9.5,-10.609L9.391,-12.641L9.391,-17.141L11.344,-17.141L11.344,0L9.75,0L9.562,-1.375L9.516,-1.375C9.055,-0.926 8.523,-0.535 7.922,-0.203C7.316,0.117 6.664,0.281 5.969,0.281ZM6.391,-1.359C6.941,-1.359 7.457,-1.492 7.938,-1.766C8.414,-2.035 8.898,-2.438 9.391,-2.969L9.391,-9.109C8.898,-9.555 8.426,-9.867 7.969,-10.047C7.508,-10.234 7.035,-10.328 6.547,-10.328C5.91,-10.328 5.336,-10.141 4.828,-9.766C4.316,-9.398 3.91,-8.879 3.609,-8.203C3.316,-7.523 3.172,-6.742 3.172,-5.859C3.172,-4.453 3.445,-3.348 4,-2.547C4.562,-1.754 5.359,-1.359 6.391,-1.359Z" style="fill:white;fill-rule:nonzero;"/>
                </g>
            </g>
        </g>
    </g>
    <g transform="matrix(0,-2.075768,2.163249,0,1179.204622,523.139773)">
        <path d="M-0.001,0.998L91.14,0.998" style="fill:none;fill-rule:nonzero;stroke:white;stroke-width:2px;"/>
    </g>
    <g transform="matrix(2.884332,0,0,2.767691,-81.624631,-616.811951)">
        <clipPath id="_clip7">
            <path d="M85.5,266.973L664.5,266.973C670.301,266.973 675,271.672 675,277.473L675,301.191C675,306.992 670.301,311.691 664.5,311.691L85.5,311.691C79.699,311.691 75,306.992 75,301.191L75,277.473C75,271.672 79.699,266.973 85.5,266.973Z"/>
        </clipPath>
        <g clip-path="url(#_clip7)">
            <g transform="matrix(1,0,0,1,75,266)">
                <g>
                    <g>
                        <clipPath id="_clip8">
                            <rect x="0" y="0.973" width="600" height="44.719"/>
                        </clipPath>
                        <g clip-path="url(#_clip8)">
                            <g>
                                <clipPath id="_clip9">
                                    <path d="M10.5,0.973L589.5,0.973C595.301,0.973 600,5.672 600,11.473L600,35.191C600,40.992 595.301,45.691 589.5,45.691L10.5,45.691C4.699,45.691 0,40.992 0,35.191L0,11.473C0,5.672 4.699,0.973 10.5,0.973Z"/>
                                </clipPath>
                                <g clip-path="url(#_clip9)">
                                    <rect x="0" y="0.973" width="600.051" height="44.719" style="fill:rgb(249,248,247);fill-rule:nonzero;"/>
                                </g>
                            </g>
                        </g>
                    </g>
                </g>
            </g>
        </g>
    </g>
    <g transform="matrix(2.884332,0,0,2.767691,604.173141,808.380602)">
        <g>
            <path d="M32.531,-15.203L33.484,-15.438L37.75,-14.172C37.031,-12.348 36.207,-10.391 35.281,-8.297C34.352,-6.211 33.395,-4.113 32.406,-2C31.414,0.113 30.453,2.129 29.516,4.047L23.844,2.469C24.832,0.52 25.867,-1.578 26.953,-3.828C28.035,-6.078 28.992,-8.176 29.828,-10.125L6.75,-10.125L6.75,-15.203L32.531,-15.203ZM14.406,-24.438L30.516,-24.438C28.859,-25.875 27.328,-27.344 25.922,-28.844C24.516,-30.344 23.312,-31.785 22.312,-33.172C21.352,-31.785 20.195,-30.344 18.844,-28.844C17.5,-27.344 16.02,-25.875 14.406,-24.438ZM19.391,-38.391L24.75,-38.391C26.375,-36.109 28.227,-33.91 30.312,-31.797C32.395,-29.68 34.602,-27.773 36.938,-26.078C39.281,-24.379 41.625,-22.977 43.969,-21.875C43.301,-21.207 42.676,-20.461 42.094,-19.641C41.508,-18.816 40.961,-18 40.453,-17.188C37.547,-18.895 34.711,-20.906 31.953,-23.219L31.953,-19.484L12.875,-19.484L12.875,-23.078C11.582,-21.973 10.238,-20.914 8.844,-19.906C7.445,-18.906 6.016,-17.969 4.547,-17.094C4.211,-17.727 3.711,-18.457 3.047,-19.281C2.391,-20.102 1.766,-20.801 1.172,-21.375C3.055,-22.426 4.906,-23.633 6.719,-25C8.539,-26.363 10.254,-27.812 11.859,-29.344C13.461,-30.875 14.91,-32.414 16.203,-33.969C17.492,-35.531 18.555,-37.004 19.391,-38.391Z" style="fill:rgb(229,76,12);fill-rule:nonzero;"/>
        </g>
    </g>
    <g transform="matrix(2.884332,0,0,2.767691,733.934454,808.380602)">
        <g>
            <path d="M18.141,-14.812C18.141,-13.789 18.488,-12.977 19.188,-12.375C19.895,-11.77 20.688,-11.469 21.562,-11.469C22.488,-11.469 23.281,-11.863 23.938,-12.656C24.602,-13.457 24.785,-14.816 24.484,-16.734C23.879,-17.785 22.906,-18.312 21.562,-18.312C20.719,-18.312 19.938,-18.02 19.219,-17.438C18.5,-16.852 18.141,-15.977 18.141,-14.812ZM41.891,-30.953L41.844,-25.688C40.5,-25.75 38.77,-25.801 36.656,-25.844C34.539,-25.895 31.969,-25.922 28.938,-25.922C28.969,-24.805 28.984,-23.664 28.984,-22.5L28.984,-19.312C29.547,-18.469 29.961,-17.52 30.234,-16.469C30.504,-15.414 30.641,-14.305 30.641,-13.141C30.641,-11.703 30.398,-10.191 29.922,-8.609C29.441,-7.035 28.656,-5.5 27.562,-4C26.469,-2.5 25.004,-1.133 23.172,0.094C21.348,1.32 19.066,2.328 16.328,3.109L11.609,-1.672C13.859,-2.148 15.926,-2.785 17.812,-3.578C19.707,-4.367 21.27,-5.426 22.5,-6.75C22.195,-6.688 21.875,-6.633 21.531,-6.594C21.188,-6.551 20.832,-6.531 20.469,-6.531C19.332,-6.531 18.164,-6.836 16.969,-7.453C15.77,-8.066 14.77,-8.977 13.969,-10.188C13.176,-11.406 12.781,-12.914 12.781,-14.719C12.781,-16.395 13.18,-17.852 13.984,-19.094C14.797,-20.344 15.879,-21.312 17.234,-22C18.586,-22.695 20.07,-23.047 21.688,-23.047C22.32,-23.047 22.906,-23 23.438,-22.906L23.406,-25.875C20.039,-25.844 16.703,-25.758 13.391,-25.625C10.078,-25.488 7.039,-25.348 4.281,-25.203L4.141,-30.594C5.848,-30.594 7.812,-30.613 10.031,-30.656C12.25,-30.707 14.52,-30.754 16.844,-30.797C19.176,-30.848 21.332,-30.891 23.312,-30.922L23.312,-31.672C23.312,-31.922 23.297,-32.117 23.266,-32.266C23.234,-32.984 23.18,-33.719 23.109,-34.469C23.035,-35.219 22.953,-35.773 22.859,-36.141L29.344,-36.141C29.312,-35.898 29.27,-35.523 29.219,-35.016C29.176,-34.504 29.141,-33.984 29.109,-33.453C29.078,-32.93 29.051,-32.551 29.031,-32.312C29.031,-32.133 29.02,-31.93 29,-31.703C28.988,-31.473 28.984,-31.223 28.984,-30.953L33.797,-30.953C35.504,-30.953 37.082,-30.957 38.531,-30.969C39.988,-30.988 41.109,-30.984 41.891,-30.953Z" style="fill:rgb(229,76,12);fill-rule:nonzero;"/>
        </g>
    </g>
    <g transform="matrix(2.884332,0,0,2.767691,863.695767,808.380602)">
        <g>
            <path d="M29.469,-26.016C29.863,-25.473 30.301,-24.781 30.781,-23.938C31.258,-23.102 31.723,-22.266 32.172,-21.422C32.617,-20.578 32.977,-19.883 33.25,-19.344L29.562,-17.781C29.258,-18.406 28.898,-19.129 28.484,-19.953C28.066,-20.773 27.629,-21.598 27.172,-22.422C26.723,-23.254 26.289,-23.969 25.875,-24.562L29.469,-26.016ZM34.922,-28.172C35.305,-27.629 35.738,-26.938 36.219,-26.094C36.695,-25.258 37.16,-24.426 37.609,-23.594C38.066,-22.77 38.445,-22.078 38.75,-21.516L35.094,-19.984C34.77,-20.609 34.379,-21.328 33.922,-22.141C33.473,-22.953 33.016,-23.758 32.547,-24.562C32.086,-25.375 31.648,-26.066 31.234,-26.641L34.922,-28.172ZM27,-36.938L32.266,-32.312C31.547,-31.801 30.836,-31.273 30.141,-30.734C29.453,-30.191 28.844,-29.711 28.312,-29.297C27.582,-28.723 26.707,-28.031 25.688,-27.219C24.676,-26.414 23.613,-25.562 22.5,-24.656C21.383,-23.758 20.312,-22.891 19.281,-22.047C18.25,-21.211 17.359,-20.477 16.609,-19.844C15.828,-19.188 15.301,-18.641 15.031,-18.203C14.758,-17.766 14.766,-17.336 15.047,-16.922C15.336,-16.504 15.875,-15.945 16.656,-15.25C17.488,-14.531 18.594,-13.609 19.969,-12.484C21.352,-11.359 22.836,-10.145 24.422,-8.844C26.016,-7.539 27.562,-6.234 29.062,-4.922C30.562,-3.617 31.867,-2.426 32.984,-1.344L27.812,3.422C27.207,2.734 26.566,2.035 25.891,1.328C25.223,0.617 24.57,-0.062 23.938,-0.719C23.312,-1.352 22.461,-2.164 21.391,-3.156C20.328,-4.145 19.148,-5.191 17.859,-6.297C16.578,-7.41 15.305,-8.516 14.047,-9.609C12.785,-10.703 11.645,-11.688 10.625,-12.562C9.156,-13.812 8.203,-14.945 7.766,-15.969C7.328,-16.988 7.383,-18.016 7.938,-19.047C8.5,-20.086 9.516,-21.223 10.984,-22.453C11.848,-23.172 12.848,-23.988 13.984,-24.906C15.129,-25.82 16.297,-26.781 17.484,-27.781C18.672,-28.789 19.797,-29.758 20.859,-30.688C21.922,-31.613 22.828,-32.453 23.578,-33.203C24.211,-33.805 24.859,-34.453 25.516,-35.141C26.172,-35.836 26.664,-36.438 27,-36.938Z" style="fill:rgb(229,76,12);fill-rule:nonzero;"/>
        </g>
    </g>
    <g transform="matrix(2.884332,0,0,2.767691,993.457082,808.380602)">
        <g>
            <path d="M10.391,-35.594L25.969,-35.594C25.969,-33.883 26.055,-31.91 26.234,-29.672C26.41,-27.441 26.812,-25.055 27.438,-22.516C28.07,-19.984 29.035,-17.438 30.328,-14.875C31.617,-12.312 33.352,-9.828 35.531,-7.422C37.707,-5.023 40.441,-2.852 43.734,-0.906C43.348,-0.602 42.875,-0.164 42.312,0.406C41.758,0.977 41.223,1.562 40.703,2.156C40.18,2.758 39.754,3.301 39.422,3.781C36.328,1.883 33.703,-0.266 31.547,-2.672C29.391,-5.086 27.613,-7.645 26.219,-10.344C24.82,-13.051 23.703,-15.738 22.859,-18.406C21.18,-13.363 18.977,-8.984 16.25,-5.266C13.52,-1.547 10.188,1.484 6.25,3.828C5.926,3.43 5.461,2.961 4.859,2.422C4.254,1.891 3.633,1.344 3,0.781C2.375,0.227 1.82,-0.211 1.344,-0.547C6.031,-2.91 9.758,-6.227 12.531,-10.5C15.301,-14.781 17.305,-19.875 18.547,-25.781L21.281,-25.297C21.133,-26.16 21.008,-27 20.906,-27.812C20.801,-28.625 20.719,-29.406 20.656,-30.156L10.391,-30.156L10.391,-35.594Z" style="fill:rgb(229,76,12);fill-rule:nonzero;"/>
        </g>
    </g>
    <g transform="matrix(2.884332,0,0,2.767691,1123.218395,808.380602)">
        <g>
            <path d="M14.219,-24.609L31.094,-24.609C29.352,-25.93 27.738,-27.305 26.25,-28.734C24.77,-30.16 23.504,-31.562 22.453,-32.938C20.441,-30.094 17.695,-27.316 14.219,-24.609ZM12.016,-19.703L12.016,-23C10.816,-22.156 9.578,-21.348 8.297,-20.578C7.023,-19.816 5.727,-19.125 4.406,-18.5C4.102,-19.156 3.645,-19.926 3.031,-20.812C2.414,-21.695 1.828,-22.426 1.266,-23C3.836,-24.133 6.297,-25.539 8.641,-27.219C10.984,-28.906 13.094,-30.691 14.969,-32.578C16.844,-34.473 18.332,-36.301 19.438,-38.062L25.016,-38.062C26.609,-35.875 28.43,-33.859 30.484,-32.016C32.535,-30.172 34.719,-28.551 37.031,-27.156C39.344,-25.758 41.688,-24.645 44.062,-23.812C43.395,-23.113 42.77,-22.312 42.188,-21.406C41.602,-20.508 41.07,-19.676 40.594,-18.906C39.363,-19.5 38.102,-20.16 36.812,-20.891C35.52,-21.629 34.258,-22.422 33.031,-23.266L33.031,-19.703L12.016,-19.703ZM4.047,-11.031L4.047,-15.969L41.266,-15.969L41.266,-11.031L21.109,-11.031C20.441,-9.707 19.754,-8.363 19.047,-7C18.348,-5.633 17.656,-4.32 16.969,-3.062C19.125,-3.125 21.348,-3.195 23.641,-3.281C25.941,-3.375 28.234,-3.469 30.516,-3.562C29.816,-4.363 29.094,-5.16 28.344,-5.953C27.594,-6.754 26.844,-7.484 26.094,-8.141L30.828,-10.625C32.172,-9.445 33.492,-8.176 34.797,-6.812C36.109,-5.445 37.316,-4.098 38.422,-2.766C39.535,-1.43 40.438,-0.195 41.125,0.938L36.141,3.953C35.922,3.535 35.656,3.086 35.344,2.609C35.031,2.129 34.691,1.648 34.328,1.172C30.816,1.348 27.289,1.523 23.75,1.703C20.219,1.891 16.844,2.051 13.625,2.188C10.414,2.32 7.539,2.445 5,2.562L4.281,-2.656L11.062,-2.875C11.664,-4.133 12.266,-5.477 12.859,-6.906C13.461,-8.332 14.004,-9.707 14.484,-11.031L4.047,-11.031Z" style="fill:rgb(229,76,12);fill-rule:nonzero;"/>
        </g>
    </g>
    <g transform="matrix(2.884332,0,0,2.767691,1252.979674,808.380602)">
        <g>
            <path d="M18.141,-14.812C18.141,-13.789 18.488,-12.977 19.188,-12.375C19.895,-11.77 20.688,-11.469 21.562,-11.469C22.488,-11.469 23.281,-11.863 23.938,-12.656C24.602,-13.457 24.785,-14.816 24.484,-16.734C23.879,-17.785 22.906,-18.312 21.562,-18.312C20.719,-18.312 19.938,-18.02 19.219,-17.438C18.5,-16.852 18.141,-15.977 18.141,-14.812ZM41.891,-30.953L41.844,-25.688C40.5,-25.75 38.77,-25.801 36.656,-25.844C34.539,-25.895 31.969,-25.922 28.938,-25.922C28.969,-24.805 28.984,-23.664 28.984,-22.5L28.984,-19.312C29.547,-18.469 29.961,-17.52 30.234,-16.469C30.504,-15.414 30.641,-14.305 30.641,-13.141C30.641,-11.703 30.398,-10.191 29.922,-8.609C29.441,-7.035 28.656,-5.5 27.562,-4C26.469,-2.5 25.004,-1.133 23.172,0.094C21.348,1.32 19.066,2.328 16.328,3.109L11.609,-1.672C13.859,-2.148 15.926,-2.785 17.812,-3.578C19.707,-4.367 21.27,-5.426 22.5,-6.75C22.195,-6.688 21.875,-6.633 21.531,-6.594C21.188,-6.551 20.832,-6.531 20.469,-6.531C19.332,-6.531 18.164,-6.836 16.969,-7.453C15.77,-8.066 14.77,-8.977 13.969,-10.188C13.176,-11.406 12.781,-12.914 12.781,-14.719C12.781,-16.395 13.18,-17.852 13.984,-19.094C14.797,-20.344 15.879,-21.312 17.234,-22C18.586,-22.695 20.07,-23.047 21.688,-23.047C22.32,-23.047 22.906,-23 23.438,-22.906L23.406,-25.875C20.039,-25.844 16.703,-25.758 13.391,-25.625C10.078,-25.488 7.039,-25.348 4.281,-25.203L4.141,-30.594C5.848,-30.594 7.812,-30.613 10.031,-30.656C12.25,-30.707 14.52,-30.754 16.844,-30.797C19.176,-30.848 21.332,-30.891 23.312,-30.922L23.312,-31.672C23.312,-31.922 23.297,-32.117 23.266,-32.266C23.234,-32.984 23.18,-33.719 23.109,-34.469C23.035,-35.219 22.953,-35.773 22.859,-36.141L29.344,-36.141C29.312,-35.898 29.27,-35.523 29.219,-35.016C29.176,-34.504 29.141,-33.984 29.109,-33.453C29.078,-32.93 29.051,-32.551 29.031,-32.312C29.031,-32.133 29.02,-31.93 29,-31.703C28.988,-31.473 28.984,-31.223 28.984,-30.953L33.797,-30.953C35.504,-30.953 37.082,-30.957 38.531,-30.969C39.988,-30.988 41.109,-30.984 41.891,-30.953Z" style="fill:rgb(229,76,12);fill-rule:nonzero;"/>
        </g>
    </g>
    <g transform="matrix(2.884332,0,0,2.767691,1382.740955,808.380602)">
        <g>
            <path d="M22.094,-2.703C23.02,-2.703 23.891,-2.742 24.703,-2.828C24.586,-4.273 24.141,-5.43 23.359,-6.297C22.578,-7.172 21.57,-7.609 20.344,-7.609C19.5,-7.609 18.828,-7.395 18.328,-6.969C17.836,-6.551 17.594,-6.055 17.594,-5.484C17.594,-4.648 18.02,-3.977 18.875,-3.469C19.727,-2.957 20.801,-2.703 22.094,-2.703ZM31.906,-34.828L34.781,-30.875C33.707,-30.207 32.676,-29.531 31.688,-28.844C31.082,-28.426 30.367,-27.883 29.547,-27.219C28.723,-26.562 27.844,-25.859 26.906,-25.109C25.977,-24.359 25.07,-23.625 24.188,-22.906C23.301,-22.188 22.516,-21.539 21.828,-20.969C22.578,-21.176 23.281,-21.312 23.938,-21.375C24.602,-21.438 25.297,-21.469 26.016,-21.469C28.535,-21.469 30.797,-20.984 32.797,-20.016C34.805,-19.055 36.395,-17.727 37.562,-16.031C38.738,-14.344 39.328,-12.422 39.328,-10.266C39.328,-7.922 38.734,-5.797 37.547,-3.891C36.367,-1.984 34.586,-0.465 32.203,0.656C29.816,1.781 26.82,2.344 23.219,2.344C21.145,2.344 19.289,2.039 17.656,1.438C16.02,0.844 14.723,0 13.766,-1.094C12.805,-2.195 12.328,-3.484 12.328,-4.953C12.328,-6.148 12.664,-7.273 13.344,-8.328C14.02,-9.379 14.961,-10.234 16.172,-10.891C17.391,-11.547 18.781,-11.875 20.344,-11.875C22.164,-11.875 23.742,-11.535 25.078,-10.859C26.422,-10.191 27.492,-9.281 28.297,-8.125C29.109,-6.969 29.617,-5.688 29.828,-4.281C32.266,-5.594 33.484,-7.613 33.484,-10.344C33.484,-11.695 33.066,-12.875 32.234,-13.875C31.41,-14.883 30.305,-15.664 28.922,-16.219C27.547,-16.781 25.988,-17.062 24.25,-17.062C21.969,-17.062 19.91,-16.688 18.078,-15.938C16.254,-15.188 14.547,-14.125 12.953,-12.75C11.367,-11.383 9.781,-9.805 8.188,-8.016L4.141,-12.188C4.922,-12.82 5.812,-13.555 6.812,-14.391C7.82,-15.234 8.848,-16.098 9.891,-16.984C10.941,-17.867 11.941,-18.703 12.891,-19.484C13.836,-20.266 14.641,-20.926 15.297,-21.469C16.141,-22.156 17.145,-22.977 18.312,-23.938C19.477,-24.895 20.641,-25.852 21.797,-26.812C22.953,-27.781 23.891,-28.578 24.609,-29.203C24.047,-29.203 23.281,-29.176 22.312,-29.125C21.352,-29.082 20.332,-29.039 19.25,-29C18.176,-28.957 17.16,-28.91 16.203,-28.859C15.242,-28.816 14.461,-28.766 13.859,-28.703C12.535,-28.648 11.32,-28.531 10.219,-28.344L10.031,-34.156C10.664,-34.094 11.344,-34.039 12.062,-34C12.781,-33.957 13.453,-33.938 14.078,-33.938C14.566,-33.938 15.281,-33.941 16.219,-33.953C17.164,-33.961 18.227,-33.984 19.406,-34.016C20.594,-34.047 21.785,-34.082 22.984,-34.125C24.191,-34.176 25.281,-34.223 26.25,-34.266C27.227,-34.305 27.973,-34.344 28.484,-34.375C29.41,-34.438 30.145,-34.508 30.688,-34.594C31.227,-34.688 31.633,-34.766 31.906,-34.828Z" style="fill:rgb(229,76,12);fill-rule:nonzero;"/>
        </g>
    </g>
    <g transform="matrix(2.884332,0,0,2.767691,100.088307,274.384537)">
        <g>
            <g transform="matrix(1,0,0,1,-0,48)">
                <g>
                    <g>
                        <g transform="matrix(1,0,0,1,0.718608,39.403736)">
                            <g>
                                <path d="M10.375,-11.125L24.266,-11.125L24.266,-15.281L10.625,-15.281C10.594,-14.645 10.562,-13.973 10.531,-13.266C10.5,-12.566 10.445,-11.852 10.375,-11.125ZM24.266,-23.281L10.625,-23.281L10.625,-19.125L24.266,-19.125L24.266,-23.281ZM28.547,-27.219L28.547,-2.219C28.547,-0.988 28.383,-0.051 28.062,0.594C27.75,1.238 27.195,1.734 26.406,2.078C25.594,2.441 24.57,2.66 23.344,2.734C22.113,2.816 20.629,2.859 18.891,2.859C18.773,2.266 18.539,1.547 18.188,0.703C17.832,-0.129 17.5,-0.828 17.188,-1.391C17.977,-1.348 18.785,-1.32 19.609,-1.312C20.441,-1.301 21.18,-1.297 21.828,-1.297L23.172,-1.297C23.578,-1.297 23.859,-1.367 24.016,-1.516C24.18,-1.66 24.266,-1.914 24.266,-2.281L24.266,-7.219L9.703,-7.219C9.266,-5.312 8.594,-3.473 7.688,-1.703C6.781,0.066 5.535,1.617 3.953,2.953C3.742,2.66 3.445,2.328 3.062,1.953C2.676,1.578 2.281,1.207 1.875,0.844C1.469,0.488 1.113,0.219 0.812,0.031C2.102,-1.051 3.125,-2.254 3.875,-3.578C4.625,-4.91 5.18,-6.285 5.547,-7.703C5.91,-9.117 6.148,-10.535 6.266,-11.953C6.379,-13.379 6.438,-14.738 6.438,-16.031L6.438,-27.219L28.547,-27.219Z" style="fill:white;fill-rule:nonzero;"/>
                            </g>
                        </g>
                    </g>
                    <g>
                        <g transform="matrix(1,0,0,1,34.752172,39.403736)">
                            <g>
                                <path d="M27.844,-16.641L27.844,-18.719L21.094,-18.719L21.094,-16.641L27.844,-16.641ZM27.844,-11.781L27.844,-13.844L21.094,-13.844L21.094,-11.781L27.844,-11.781ZM27.844,-6.812L27.844,-8.922L21.094,-8.922L21.094,-6.812L27.844,-6.812ZM17.453,-21.75L21.75,-21.75C21.812,-22.133 21.875,-22.523 21.938,-22.922C22.008,-23.316 22.082,-23.695 22.156,-24.062L16.438,-24.062L16.438,-27.5L32.328,-27.5L32.328,-24.062L26.438,-24.062C26.301,-23.656 26.164,-23.258 26.031,-22.875C25.895,-22.488 25.758,-22.113 25.625,-21.75L31.656,-21.75L31.656,-3.812L17.453,-3.812L17.453,-21.75ZM4.828,-22.875L4.828,-20.516L1.562,-20.516L1.562,-26L7.016,-26L7.016,-28.75L10.781,-28.75L10.781,-26L16.328,-26L16.328,-20.516L12.969,-20.516L12.969,-22.875L4.828,-22.875ZM10.953,-2.141L10.953,-5.281L6.844,-5.281L6.844,-2.141L10.953,-2.141ZM6.906,-8.406L12.656,-8.406C12.227,-8.75 11.77,-9.109 11.281,-9.484C10.789,-9.859 10.285,-10.238 9.766,-10.625C9.336,-10.207 8.883,-9.812 8.406,-9.438C7.926,-9.062 7.426,-8.719 6.906,-8.406ZM10.984,-17.453L7.688,-17.453C7.57,-17.297 7.453,-17.148 7.328,-17.016C7.203,-16.879 7.082,-16.734 6.969,-16.578L9.328,-15.047C9.641,-15.43 9.938,-15.82 10.219,-16.219C10.508,-16.613 10.766,-17.023 10.984,-17.453ZM14.391,-6.969L14.391,0.062C15.523,-0.383 16.629,-0.957 17.703,-1.656C18.785,-2.363 19.633,-3.035 20.25,-3.672L23.516,-1.641C22.922,-1.066 22.219,-0.492 21.406,0.078C20.594,0.66 19.742,1.188 18.859,1.656C17.973,2.133 17.109,2.547 16.266,2.891C16.035,2.617 15.75,2.305 15.406,1.953C15.07,1.598 14.734,1.266 14.391,0.953L6.844,0.953L6.844,2.312L3.438,2.312L3.438,-6.5L2.719,-6.188C2.488,-6.645 2.18,-7.16 1.797,-7.734C1.41,-8.316 1.039,-8.77 0.688,-9.094C2.945,-9.883 5.031,-11.07 6.938,-12.656L4.703,-14.219C4.473,-14.02 4.234,-13.82 3.984,-13.625C3.734,-13.438 3.484,-13.25 3.234,-13.062C2.961,-13.383 2.566,-13.801 2.047,-14.312C1.523,-14.82 1.07,-15.191 0.688,-15.422C2.02,-16.254 3.234,-17.289 4.328,-18.531C5.43,-19.77 6.289,-21.102 6.906,-22.531L10.203,-21.719C10.098,-21.438 9.984,-21.164 9.859,-20.906C9.734,-20.645 9.586,-20.391 9.422,-20.141L12.594,-20.141L13.203,-20.312L15.484,-19.266C15.098,-18.109 14.617,-17.02 14.047,-16C13.484,-14.977 12.852,-14.023 12.156,-13.141C13.062,-12.523 13.91,-11.922 14.703,-11.328C15.492,-10.742 16.176,-10.211 16.75,-9.734L14.469,-6.906L14.391,-6.969ZM25.016,-1.672L27.938,-3.5C28.551,-3.094 29.203,-2.625 29.891,-2.094C30.586,-1.562 31.254,-1.035 31.891,-0.516C32.523,0.004 33.047,0.484 33.453,0.922L30.328,3C29.961,2.562 29.477,2.066 28.875,1.516C28.27,0.961 27.629,0.41 26.953,-0.141C26.273,-0.703 25.629,-1.211 25.016,-1.672Z" style="fill:white;fill-rule:nonzero;"/>
                            </g>
                        </g>
                    </g>
                </g>
            </g>
        </g>
        <g>
            <g transform="matrix(1,0,0,1,74,-0)">
                <g>
                    <g>
                        <g transform="matrix(1,0,0,1,0.367901,86.254992)">
                            <g>
                                <path d="M3.219,0L3.219,-6.359C10.75,-13.086 16.617,-19.109 20.828,-24.422C25.047,-29.734 27.156,-34.508 27.156,-38.75C27.156,-41.539 26.43,-43.734 24.984,-45.328C23.535,-46.922 21.488,-47.719 18.844,-47.719C16.852,-47.719 15.008,-47.156 13.312,-46.031C11.613,-44.914 10.066,-43.582 8.672,-42.031L2.688,-48.016C5.227,-50.711 7.844,-52.781 10.531,-54.219C13.227,-55.664 16.473,-56.391 20.266,-56.391C23.754,-56.391 26.805,-55.691 29.422,-54.297C32.047,-52.898 34.082,-50.914 35.531,-48.344C36.977,-45.781 37.703,-42.781 37.703,-39.344C37.703,-36 36.863,-32.594 35.188,-29.125C33.52,-25.664 31.301,-22.211 28.531,-18.766C25.77,-15.328 22.691,-11.961 19.297,-8.672C20.691,-8.828 22.223,-8.969 23.891,-9.094C25.566,-9.219 27.023,-9.281 28.266,-9.281L40.312,-9.281L40.312,0L3.219,0Z" style="fill:rgb(247,213,5);fill-rule:nonzero;"/>
                            </g>
                        </g>
                    </g>
                    <g>
                        <g transform="matrix(1,0,0,1,44.421288,86.254992)">
                            <g>
                                <path d="M6.281,15.938L3.969,9.953C6.852,8.848 9.066,7.398 10.609,5.609C12.16,3.816 12.938,1.848 12.938,-0.297L12.266,-0.297C10.473,-0.297 8.879,-0.859 7.484,-1.984C6.086,-3.109 5.391,-4.719 5.391,-6.812C5.391,-8.801 6.086,-10.379 7.484,-11.547C8.879,-12.723 10.547,-13.312 12.484,-13.312C15.035,-13.312 16.992,-12.348 18.359,-10.422C19.734,-8.504 20.422,-5.852 20.422,-2.469C20.422,1.914 19.188,5.703 16.719,8.891C14.25,12.086 10.77,14.438 6.281,15.938Z" style="fill:rgb(247,213,5);fill-rule:nonzero;"/>
                            </g>
                        </g>
                    </g>
                    <g>
                        <g transform="matrix(1,0,0,1,68.729188,86.254992)">
                            <g>
                                <path d="M20.938,-28.344C22.438,-28.344 23.992,-28.789 25.609,-29.688C27.234,-30.594 28.719,-32.113 30.062,-34.25C29.57,-39.289 28.453,-42.859 26.703,-44.953C24.953,-47.047 22.906,-48.094 20.562,-48.094C18.52,-48.094 16.766,-47.242 15.297,-45.547C13.828,-43.859 13.094,-41.316 13.094,-37.922C13.094,-34.68 13.801,-32.273 15.219,-30.703C16.645,-29.129 18.551,-28.344 20.938,-28.344ZM3.891,-5.234L9.656,-11.812C10.645,-10.719 11.938,-9.797 13.531,-9.047C15.133,-8.297 16.758,-7.922 18.406,-7.922C20.5,-7.922 22.406,-8.504 24.125,-9.672C25.844,-10.848 27.25,-12.797 28.344,-15.516C29.445,-18.234 30.07,-21.91 30.219,-26.547C28.82,-24.703 27.051,-23.234 24.906,-22.141C22.758,-21.047 20.738,-20.5 18.844,-20.5C15.801,-20.5 13.082,-21.133 10.688,-22.406C8.301,-23.676 6.422,-25.609 5.047,-28.203C3.672,-30.797 2.984,-34.035 2.984,-37.922C2.984,-41.711 3.781,-44.988 5.375,-47.75C6.977,-50.52 9.098,-52.648 11.734,-54.141C14.379,-55.641 17.273,-56.391 20.422,-56.391C23.91,-56.391 27.16,-55.441 30.172,-53.547C33.191,-51.66 35.633,-48.695 37.5,-44.656C39.375,-40.613 40.312,-35.379 40.312,-28.953C40.312,-23.711 39.723,-19.195 38.547,-15.406C37.379,-11.613 35.797,-8.508 33.797,-6.094C31.805,-3.676 29.539,-1.879 27,-0.703C24.457,0.461 21.816,1.047 19.078,1.047C15.629,1.047 12.645,0.426 10.125,-0.812C7.613,-2.062 5.535,-3.535 3.891,-5.234Z" style="fill:rgb(247,213,5);fill-rule:nonzero;"/>
                            </g>
                        </g>
                    </g>
                    <g>
                        <g transform="matrix(1,0,0,1,112.782575,86.254992)">
                            <g>
                                <path d="M21.984,1.047C18.492,1.047 15.352,0.41 12.562,-0.859C9.77,-2.129 7.562,-3.875 5.938,-6.094C4.32,-8.312 3.516,-10.867 3.516,-13.766C3.516,-17.305 4.445,-20.25 6.312,-22.594C8.188,-24.938 10.422,-26.805 13.016,-28.203L13.016,-28.578C10.867,-30.117 9.109,-31.961 7.734,-34.109C6.367,-36.254 5.688,-38.797 5.688,-41.734C5.688,-44.723 6.406,-47.301 7.844,-49.469C9.289,-51.645 11.273,-53.332 13.797,-54.531C16.316,-55.727 19.172,-56.328 22.359,-56.328C25.648,-56.328 28.492,-55.711 30.891,-54.484C33.285,-53.266 35.145,-51.547 36.469,-49.328C37.789,-47.109 38.453,-44.531 38.453,-41.594C38.453,-38.844 37.727,-36.367 36.281,-34.172C34.832,-31.984 33.188,-30.242 31.344,-28.953L31.344,-28.578C33.883,-27.18 36.062,-25.312 37.875,-22.969C39.695,-20.625 40.609,-17.555 40.609,-13.766C40.609,-10.973 39.836,-8.453 38.297,-6.203C36.754,-3.961 34.582,-2.191 31.781,-0.891C28.988,0.398 25.723,1.047 21.984,1.047ZM25.5,-31.641C28.145,-34.43 29.469,-37.52 29.469,-40.906C29.469,-43.156 28.832,-45.004 27.562,-46.453C26.289,-47.898 24.484,-48.625 22.141,-48.625C20.297,-48.625 18.711,-48.023 17.391,-46.828C16.066,-45.629 15.406,-43.93 15.406,-41.734C15.406,-39.141 16.363,-37.094 18.281,-35.594C20.207,-34.102 22.613,-32.785 25.5,-31.641ZM22.297,-6.734C24.641,-6.734 26.57,-7.367 28.094,-8.641C29.613,-9.91 30.375,-11.742 30.375,-14.141C30.375,-16.078 29.848,-17.68 28.797,-18.953C27.742,-20.234 26.297,-21.359 24.453,-22.328C22.609,-23.297 20.488,-24.254 18.094,-25.203C16.602,-24.004 15.383,-22.508 14.438,-20.719C13.488,-18.926 13.016,-17.004 13.016,-14.953C13.016,-12.461 13.91,-10.469 15.703,-8.969C17.504,-7.477 19.703,-6.734 22.297,-6.734Z" style="fill:rgb(247,213,5);fill-rule:nonzero;"/>
                            </g>
                        </g>
                    </g>
                    <g>
                        <g transform="matrix(1,0,0,1,156.835962,86.254992)">
                            <g>
                                <path d="M22.062,1.047C16.426,1.047 11.891,-1.395 8.453,-6.281C5.016,-11.164 3.297,-18.375 3.297,-27.906C3.297,-37.477 5.016,-44.617 8.453,-49.328C11.891,-54.035 16.426,-56.391 22.062,-56.391C27.695,-56.391 32.223,-54.02 35.641,-49.281C39.055,-44.551 40.766,-37.426 40.766,-27.906C40.766,-18.375 39.055,-11.164 35.641,-6.281C32.223,-1.395 27.695,1.047 22.062,1.047ZM22.062,-7.547C23.656,-7.547 25.078,-8.156 26.328,-9.375C27.578,-10.602 28.562,-12.703 29.281,-15.672C30.008,-18.641 30.375,-22.719 30.375,-27.906C30.375,-33.082 30.008,-37.117 29.281,-40.016C28.562,-42.91 27.578,-44.941 26.328,-46.109C25.078,-47.285 23.656,-47.875 22.062,-47.875C20.469,-47.875 19.035,-47.285 17.766,-46.109C16.492,-44.941 15.492,-42.91 14.766,-40.016C14.047,-37.117 13.688,-33.082 13.688,-27.906C13.688,-22.719 14.047,-18.641 14.766,-15.672C15.492,-12.703 16.492,-10.602 17.766,-9.375C19.035,-8.156 20.469,-7.547 22.062,-7.547Z" style="fill:rgb(247,213,5);fill-rule:nonzero;"/>
                            </g>
                        </g>
                    </g>
                </g>
            </g>
        </g>
        <g>
            <g transform="matrix(1,0,0,1,280,48)">
                <g>
                    <g>
                        <g transform="matrix(1,0,0,1,0.687252,39.403736)">
                            <g>
                                <path d="M18.922,-14.094L27.422,-14.094L27.422,-22.672L18.922,-22.672L18.922,-14.094ZM6.875,-22.672L6.875,-14.094L14.906,-14.094L14.906,-22.672L6.875,-22.672ZM31.516,-26.688L31.516,-1.797C31.516,-0.691 31.379,0.164 31.109,0.781C30.836,1.395 30.336,1.859 29.609,2.172C28.93,2.516 28.066,2.723 27.016,2.797C25.973,2.879 24.691,2.922 23.172,2.922C23.086,2.359 22.895,1.672 22.594,0.859C22.301,0.055 22.008,-0.602 21.719,-1.125C22.688,-1.051 23.645,-1.016 24.594,-1.016L26.547,-1.016C27.129,-1.047 27.422,-1.32 27.422,-1.844L27.422,-10.078L6.875,-10.078L6.875,2.922L2.797,2.922L2.797,-26.688L31.516,-26.688Z" style="fill:white;fill-rule:nonzero;"/>
                            </g>
                        </g>
                    </g>
                    <g>
                        <g transform="matrix(1,0,0,1,34.720815,39.403736)">
                            <g>
                                <path d="M23.516,-7.719C21.898,-7.719 20.445,-8.031 19.156,-8.656C17.863,-9.281 16.641,-10.219 15.484,-11.469C14.754,-12.238 14.023,-12.836 13.297,-13.266C12.578,-13.703 11.613,-13.922 10.406,-13.922C9.32,-13.922 8.312,-13.539 7.375,-12.781C6.445,-12.02 5.656,-11.035 5,-9.828L1.266,-11.875C2.391,-13.988 3.758,-15.562 5.375,-16.594C6.988,-17.625 8.703,-18.141 10.516,-18.141C12.129,-18.141 13.582,-17.832 14.875,-17.219C16.164,-16.602 17.391,-15.66 18.547,-14.391C19.273,-13.617 20.004,-13.016 20.734,-12.578C21.473,-12.148 22.438,-11.938 23.625,-11.938C24.707,-11.938 25.719,-12.316 26.656,-13.078C27.602,-13.836 28.395,-14.82 29.031,-16.031L32.766,-13.984C31.641,-11.879 30.27,-10.305 28.656,-9.266C27.039,-8.234 25.328,-7.719 23.516,-7.719Z" style="fill:white;fill-rule:nonzero;"/>
                            </g>
                        </g>
                    </g>
                </g>
            </g>
        </g>
        <g transform="matrix(1,0,0,1,280,22)">
            <g>
                <g>
                    <g transform="matrix(1,0,0,1,0.687252,27.172874)">
                        <g>
                            <path d="M5.375,4.422C4.344,2.734 3.531,0.961 2.938,-0.891C2.352,-2.742 2.062,-4.781 2.062,-7C2.062,-9.195 2.352,-11.223 2.938,-13.078C3.531,-14.941 4.344,-16.711 5.375,-18.391L6.656,-17.812C5.676,-16.207 4.953,-14.484 4.484,-12.641C4.016,-10.797 3.781,-8.914 3.781,-7C3.781,-5.094 4.016,-3.211 4.484,-1.359C4.953,0.492 5.676,2.223 6.656,3.828L5.375,4.422Z" style="fill:white;fill-rule:nonzero;"/>
                        </g>
                    </g>
                </g>
                <g>
                    <g transform="matrix(1,0,0,1,8.284964,27.172874)">
                        <g>
                            <path d="M18.609,-18.812L20.297,-18.234C19.922,-17.547 19.531,-16.852 19.125,-16.156C18.727,-15.457 18.348,-14.863 17.984,-14.375L16.594,-14.922C16.832,-15.285 17.078,-15.691 17.328,-16.141C17.586,-16.586 17.828,-17.047 18.047,-17.516C18.273,-17.992 18.461,-18.426 18.609,-18.812ZM13.734,-15.016L12.281,-14.328C12.125,-14.848 11.863,-15.473 11.5,-16.203C11.133,-16.93 10.75,-17.594 10.344,-18.188L11.734,-18.781C12.141,-18.188 12.535,-17.535 12.922,-16.828C13.316,-16.129 13.586,-15.523 13.734,-15.016ZM9.516,-6.5L8.5,-5.172C8.32,-5.484 8.031,-5.91 7.625,-6.453C7.227,-6.992 6.836,-7.492 6.453,-7.953L6.453,1.656L4.828,1.656L4.828,-8.281C4.367,-7.133 3.852,-6.035 3.281,-4.984C2.707,-3.941 2.141,-3.078 1.578,-2.391C1.504,-2.629 1.379,-2.895 1.203,-3.188C1.023,-3.477 0.867,-3.719 0.734,-3.906C1.223,-4.438 1.707,-5.086 2.188,-5.859C2.664,-6.629 3.113,-7.457 3.531,-8.344C3.945,-9.227 4.305,-10.098 4.609,-10.953L1.172,-10.953L1.172,-12.531L4.828,-12.531L4.828,-15.938C4.273,-15.832 3.723,-15.727 3.172,-15.625C2.617,-15.531 2.078,-15.445 1.547,-15.375C1.504,-15.57 1.43,-15.789 1.328,-16.031C1.234,-16.27 1.133,-16.488 1.031,-16.688C1.875,-16.82 2.738,-16.984 3.625,-17.172C4.508,-17.359 5.348,-17.562 6.141,-17.781C6.93,-18.008 7.602,-18.242 8.156,-18.484L9.312,-17.219C8.469,-16.875 7.516,-16.578 6.453,-16.328L6.453,-12.531L9.266,-12.531L9.266,-10.953L6.453,-10.953L6.453,-9.578C6.629,-9.43 6.863,-9.211 7.156,-8.922C7.445,-8.641 7.75,-8.336 8.062,-8.016C8.383,-7.691 8.68,-7.391 8.953,-7.109C9.223,-6.836 9.41,-6.633 9.516,-6.5ZM11.688,-12.844L11.688,-8.453L18.734,-8.453L18.734,-12.844L11.688,-12.844ZM18.094,-0.062L19.578,-0.062C19.742,-0.062 19.867,-0.125 19.953,-0.25C20.035,-0.383 20.094,-0.648 20.125,-1.047C20.164,-1.453 20.195,-2.062 20.219,-2.875C20.375,-2.727 20.598,-2.594 20.891,-2.469C21.191,-2.352 21.453,-2.266 21.672,-2.203C21.629,-1.242 21.539,-0.504 21.406,0.016C21.27,0.547 21.07,0.914 20.812,1.125C20.562,1.332 20.211,1.438 19.766,1.438L17.859,1.438C17.078,1.438 16.562,1.281 16.312,0.969C16.062,0.664 15.938,0.102 15.938,-0.719L15.938,-6.969L14.031,-6.969C13.895,-5.707 13.656,-4.52 13.312,-3.406C12.969,-2.301 12.426,-1.312 11.688,-0.438C10.957,0.434 9.941,1.16 8.641,1.734C8.547,1.555 8.395,1.332 8.188,1.062C7.988,0.801 7.801,0.598 7.625,0.453C8.789,-0.023 9.695,-0.641 10.344,-1.391C10.988,-2.141 11.457,-2.988 11.75,-3.938C12.051,-4.895 12.266,-5.906 12.391,-6.969L10.094,-6.969L10.094,-14.297L20.391,-14.297L20.391,-6.969L17.531,-6.969L17.531,-0.719C17.531,-0.438 17.562,-0.254 17.625,-0.172C17.695,-0.098 17.852,-0.062 18.094,-0.062Z" style="fill:white;fill-rule:nonzero;"/>
                        </g>
                    </g>
                </g>
                <g>
                    <g transform="matrix(1,0,0,1,30.763399,27.172874)">
                        <g>
                            <path d="M9.125,-17.672L14.594,-17.672C14.789,-15.391 15.129,-13.297 15.609,-11.391C16.098,-9.492 16.805,-7.848 17.734,-6.453C18.672,-5.055 19.883,-3.969 21.375,-3.188C21.188,-3.051 20.957,-2.859 20.688,-2.609C20.426,-2.367 20.219,-2.145 20.062,-1.938C18.477,-2.863 17.211,-4.102 16.266,-5.656C15.316,-7.207 14.586,-9.004 14.078,-11.047C13.492,-9.035 12.711,-7.27 11.734,-5.75C10.766,-4.227 9.555,-2.957 8.109,-1.938C7.984,-2.102 7.785,-2.316 7.516,-2.578C7.242,-2.836 7.008,-3.035 6.812,-3.172C8.457,-4.223 9.766,-5.609 10.734,-7.328C11.711,-9.055 12.43,-11.066 12.891,-13.359L13.609,-13.25C13.523,-13.707 13.453,-14.172 13.391,-14.641C13.336,-15.117 13.281,-15.602 13.219,-16.094L9.125,-16.094L9.125,-17.672ZM6.562,-14.797L5.234,-13.688C5.016,-14.051 4.691,-14.445 4.266,-14.875C3.848,-15.301 3.391,-15.719 2.891,-16.125C2.398,-16.539 1.91,-16.914 1.422,-17.25L2.656,-18.25C3.133,-17.938 3.625,-17.578 4.125,-17.172C4.625,-16.773 5.094,-16.367 5.531,-15.953C5.969,-15.535 6.312,-15.148 6.562,-14.797ZM5.938,-10L5.938,-2.828C6.457,-2.004 7.195,-1.395 8.156,-1C9.113,-0.602 10.238,-0.375 11.531,-0.312C12.145,-0.301 12.883,-0.289 13.75,-0.281C14.625,-0.27 15.539,-0.27 16.5,-0.281C17.457,-0.301 18.383,-0.328 19.281,-0.359C20.176,-0.391 20.953,-0.426 21.609,-0.469C21.516,-0.281 21.406,-0.012 21.281,0.328C21.164,0.68 21.094,0.984 21.062,1.234C20.445,1.254 19.723,1.273 18.891,1.297C18.066,1.316 17.203,1.328 16.297,1.328C15.398,1.328 14.535,1.32 13.703,1.312C12.867,1.301 12.145,1.289 11.531,1.281C10.082,1.219 8.836,0.977 7.797,0.562C6.766,0.145 5.891,-0.5 5.172,-1.375C4.629,-0.906 4.078,-0.43 3.516,0.047C2.953,0.535 2.375,1.02 1.781,1.5L0.875,-0.188C1.395,-0.531 1.957,-0.926 2.562,-1.375C3.164,-1.82 3.742,-2.281 4.297,-2.75L4.297,-8.438L1.172,-8.438L1.172,-10L5.938,-10Z" style="fill:white;fill-rule:nonzero;"/>
                        </g>
                    </g>
                </g>
                <g>
                    <g transform="matrix(1,0,0,1,53.241835,27.172874)">
                        <g>
                            <path d="M2.219,4.422L0.969,3.828C1.938,2.223 2.656,0.492 3.125,-1.359C3.602,-3.211 3.844,-5.094 3.844,-7C3.844,-8.914 3.602,-10.797 3.125,-12.641C2.656,-14.484 1.938,-16.207 0.969,-17.812L2.219,-18.391C3.27,-16.711 4.086,-14.941 4.672,-13.078C5.254,-11.223 5.547,-9.195 5.547,-7C5.547,-4.781 5.254,-2.742 4.672,-0.891C4.086,0.961 3.27,2.734 2.219,4.422Z" style="fill:white;fill-rule:nonzero;"/>
                        </g>
                    </g>
                </g>
            </g>
        </g>
    </g>
    <g transform="matrix(2.884332,0,0,2.767691,524.734642,208.878708)">
        <g>
            <path d="M1.016,0L1.016,-2C3.391,-4.125 5.238,-6.023 6.562,-7.703C7.895,-9.379 8.562,-10.891 8.562,-12.234C8.562,-13.109 8.332,-13.797 7.875,-14.297C7.426,-14.805 6.785,-15.062 5.953,-15.062C5.316,-15.062 4.734,-14.883 4.203,-14.531C3.672,-14.176 3.18,-13.754 2.734,-13.266L0.844,-15.156C1.645,-16.008 2.473,-16.66 3.328,-17.109C4.18,-17.566 5.203,-17.797 6.391,-17.797C7.492,-17.797 8.457,-17.578 9.281,-17.141C10.113,-16.703 10.758,-16.078 11.219,-15.266C11.676,-14.453 11.906,-13.504 11.906,-12.422C11.906,-11.367 11.641,-10.297 11.109,-9.203C10.578,-8.109 9.875,-7.016 9,-5.922C8.133,-4.836 7.164,-3.773 6.094,-2.734C6.531,-2.785 7.008,-2.828 7.531,-2.859C8.062,-2.898 8.523,-2.922 8.922,-2.922L12.719,-2.922L12.719,0L1.016,0Z" style="fill:rgb(229,76,12);fill-rule:nonzero;"/>
        </g>
    </g>
    <g transform="matrix(2.884332,0,0,2.767691,578.041788,208.878708)">
        <g>
            <path d="M3.875,-7.172L7.938,-7.172L7.938,-10.75C7.938,-11.25 7.953,-11.848 7.984,-12.547C8.023,-13.242 8.055,-13.848 8.078,-14.359L7.984,-14.359C7.773,-13.898 7.551,-13.43 7.312,-12.953C7.082,-12.473 6.844,-11.992 6.594,-11.516L3.875,-7.172ZM13.25,-7.172L13.25,-4.531L11.172,-4.531L11.172,0L7.938,0L7.938,-4.531L0.5,-4.531L0.5,-6.891L7.016,-17.469L11.172,-17.469L11.172,-7.172L13.25,-7.172Z" style="fill:rgb(229,76,12);fill-rule:nonzero;"/>
        </g>
    </g>
    <g transform="matrix(2.884332,0,0,2.767691,631.348931,208.878708)">
        <g>
            <path d="M6.297,-16.047L4.125,-16.047L4.125,-11.906L6.297,-11.906L6.297,-16.047ZM4.125,-5L6.297,-5L6.297,-9.438L4.125,-9.438L4.125,-5ZM8.922,-18.562L8.922,-2.5L4.125,-2.5L4.125,-0.422L1.531,-0.422L1.531,-18.562L8.922,-18.562ZM10.312,-4.484L12.562,-5.781C13.113,-5.195 13.664,-4.551 14.219,-3.844C14.77,-3.133 15.172,-2.488 15.422,-1.906L13.016,-0.516C12.867,-0.879 12.648,-1.289 12.359,-1.75C12.066,-2.219 11.742,-2.691 11.391,-3.172C11.035,-3.648 10.676,-4.086 10.312,-4.484ZM22.812,-10.531L20.375,-10.531L20.375,-8.5L22.641,-8.5L22.641,-6.062L20.375,-6.062L20.375,-0.922C20.375,-0.242 20.289,0.281 20.125,0.656C19.957,1.039 19.645,1.344 19.188,1.562C18.738,1.758 18.191,1.883 17.547,1.938C16.898,2 16.133,2.031 15.25,2.031C15.207,1.633 15.094,1.188 14.906,0.688C14.727,0.195 14.547,-0.234 14.359,-0.609C14.922,-0.598 15.484,-0.586 16.047,-0.578C16.617,-0.566 16.988,-0.562 17.156,-0.562C17.352,-0.562 17.484,-0.594 17.547,-0.656C17.617,-0.719 17.656,-0.828 17.656,-0.984L17.656,-6.062L9.375,-6.062L9.375,-8.5L17.656,-8.5L17.656,-10.531L9.328,-10.531L9.328,-12.984L14.656,-12.984L14.656,-15.062L10.125,-15.062L10.125,-17.516L14.656,-17.516L14.656,-20L17.422,-20L17.422,-17.516L22.141,-17.516L22.141,-15.062L17.422,-15.062L17.422,-12.984L22.812,-12.984L22.812,-10.531Z" style="fill:rgb(229,76,12);fill-rule:nonzero;"/>
        </g>
    </g>
    <g transform="matrix(2.884332,0,0,2.767691,712.634926,208.878708)">
        <g>
            <path d="M8.328,-17.062L4.703,-17.062L4.703,-15.812L8.328,-15.812L8.328,-17.062ZM4.703,-12.578L8.328,-12.578L8.328,-13.922L4.703,-13.922L4.703,-12.578ZM10.953,-10.578L4.703,-10.578L4.703,2.047L1.906,2.047L1.906,-19.094L10.953,-19.094L10.953,-10.578ZM15.25,-12.531L19,-12.531L19,-13.922L15.25,-13.922L15.25,-12.531ZM19,-17.062L15.25,-17.062L15.25,-15.812L19,-15.812L19,-17.062ZM9.797,-2.203L13.688,-2.203L13.688,-3.656L9.797,-3.656L9.797,-2.203ZM13.688,-7.078L9.797,-7.078L9.797,-5.672L13.688,-5.672L13.688,-7.078ZM21.844,-19.094L21.844,-1.281C21.844,-0.52 21.75,0.078 21.562,0.516C21.383,0.961 21.062,1.297 20.594,1.516C20.133,1.742 19.551,1.891 18.844,1.953C18.145,2.016 17.285,2.047 16.266,2.047C16.234,1.754 16.156,1.406 16.031,1C15.914,0.602 15.789,0.223 15.656,-0.141L9.797,-0.141L9.797,1.062L7.25,1.062L7.25,-9.156L16.344,-9.156L16.344,-0.781C16.789,-0.758 17.211,-0.75 17.609,-0.75C18.004,-0.75 18.281,-0.758 18.438,-0.781C18.812,-0.781 19,-0.953 19,-1.297L19,-10.531L12.578,-10.531L12.578,-19.094L21.844,-19.094Z" style="fill:rgb(229,76,12);fill-rule:nonzero;"/>
        </g>
    </g>
    <g transform="matrix(2.884332,0,0,2.767691,793.92092,208.878708)">
        <g>
            <path d="M6.188,-16.812C6.133,-16.539 6.082,-16.223 6.031,-15.859C5.988,-15.504 5.957,-15.156 5.938,-14.812C5.914,-14.477 5.906,-14.203 5.906,-13.984C5.883,-13.223 5.883,-12.41 5.906,-11.547C5.938,-10.691 5.984,-9.848 6.047,-9.016C6.211,-7.336 6.488,-5.973 6.875,-4.922C7.258,-3.879 7.816,-3.359 8.547,-3.359C8.828,-3.359 9.086,-3.504 9.328,-3.797C9.578,-4.098 9.812,-4.484 10.031,-4.953C10.25,-5.43 10.441,-5.93 10.609,-6.453C10.773,-6.984 10.914,-7.477 11.031,-7.938L13.391,-5.094C12.867,-3.738 12.352,-2.66 11.844,-1.859C11.332,-1.055 10.801,-0.477 10.25,-0.125C9.695,0.227 9.102,0.406 8.469,0.406C7.625,0.406 6.828,0.121 6.078,-0.438C5.328,-1 4.688,-1.906 4.156,-3.156C3.625,-4.414 3.242,-6.094 3.016,-8.188C2.953,-8.914 2.898,-9.672 2.859,-10.453C2.828,-11.242 2.801,-11.992 2.781,-12.703C2.77,-13.422 2.766,-14.02 2.766,-14.5C2.766,-14.82 2.754,-15.207 2.734,-15.656C2.723,-16.113 2.676,-16.516 2.594,-16.859L6.188,-16.812ZM17.875,-16.312C18.426,-15.633 18.941,-14.801 19.422,-13.812C19.91,-12.832 20.348,-11.785 20.734,-10.672C21.117,-9.555 21.43,-8.453 21.672,-7.359C21.922,-6.266 22.078,-5.27 22.141,-4.375L19.047,-3.188C18.953,-4.133 18.801,-5.156 18.594,-6.25C18.395,-7.352 18.125,-8.461 17.781,-9.578C17.445,-10.703 17.039,-11.758 16.562,-12.75C16.094,-13.738 15.535,-14.598 14.891,-15.328L17.875,-16.312Z" style="fill:rgb(229,76,12);fill-rule:nonzero;"/>
        </g>
    </g>
    <g transform="matrix(2.884332,0,0,2.767691,875.206918,208.878708)">
        <g>
            <path d="M1.391,-12.938C1.816,-13.02 2.289,-13.125 2.812,-13.25C3.344,-13.383 3.82,-13.516 4.25,-13.641C4.707,-13.785 5.32,-13.977 6.094,-14.219C6.863,-14.469 7.711,-14.719 8.641,-14.969C9.566,-15.219 10.52,-15.426 11.5,-15.594C12.477,-15.77 13.391,-15.859 14.234,-15.859C15.648,-15.859 16.926,-15.594 18.062,-15.062C19.207,-14.539 20.113,-13.781 20.781,-12.781C21.457,-11.781 21.797,-10.555 21.797,-9.109C21.797,-7.348 21.258,-5.812 20.188,-4.5C19.113,-3.188 17.582,-2.145 15.594,-1.375C13.613,-0.602 11.25,-0.145 8.5,0L7.156,-3.109C8.738,-3.141 10.211,-3.285 11.578,-3.547C12.941,-3.805 14.141,-4.18 15.172,-4.672C16.203,-5.16 17.004,-5.781 17.578,-6.531C18.148,-7.281 18.438,-8.156 18.438,-9.156C18.438,-10.258 18.066,-11.18 17.328,-11.922C16.586,-12.66 15.52,-13.031 14.125,-13.031C13.25,-13.031 12.285,-12.906 11.234,-12.656C10.18,-12.414 9.113,-12.109 8.031,-11.734C6.957,-11.367 5.957,-10.992 5.031,-10.609C4.102,-10.223 3.332,-9.895 2.719,-9.625L1.391,-12.938Z" style="fill:rgb(229,76,12);fill-rule:nonzero;"/>
        </g>
    </g>
    <g transform="matrix(2.884332,0,0,2.767691,956.492913,208.878708)">
        <g>
            <path d="M17.469,-12.281C17.75,-11.852 18.078,-11.328 18.453,-10.703C18.836,-10.086 19.141,-9.539 19.359,-9.062L17.562,-8.266C17.258,-8.91 16.973,-9.484 16.703,-9.984C16.43,-10.492 16.102,-11.016 15.719,-11.547L17.469,-12.281ZM20.109,-13.359C20.41,-12.953 20.754,-12.441 21.141,-11.828C21.523,-11.211 21.844,-10.676 22.094,-10.219L20.328,-9.375C20.016,-10.02 19.707,-10.582 19.406,-11.062C19.102,-11.539 18.766,-12.039 18.391,-12.562L20.109,-13.359ZM1.719,-16.156C2.195,-16.164 2.645,-16.18 3.062,-16.203C3.477,-16.234 3.797,-16.254 4.016,-16.266C4.672,-16.328 5.516,-16.398 6.547,-16.484C7.578,-16.578 8.738,-16.68 10.031,-16.797C11.32,-16.91 12.688,-17.031 14.125,-17.156C15.332,-17.258 16.531,-17.344 17.719,-17.406C18.906,-17.477 19.91,-17.531 20.734,-17.562L20.75,-14.547C20.344,-14.547 19.867,-14.539 19.328,-14.531C18.785,-14.52 18.238,-14.488 17.688,-14.438C17.145,-14.395 16.664,-14.328 16.25,-14.234C15.301,-13.984 14.457,-13.516 13.719,-12.828C12.977,-12.148 12.391,-11.359 11.953,-10.453C11.523,-9.547 11.312,-8.629 11.312,-7.703C11.312,-6.734 11.516,-5.914 11.922,-5.25C12.328,-4.582 12.883,-4.035 13.594,-3.609C14.301,-3.18 15.109,-2.863 16.016,-2.656C16.922,-2.445 17.867,-2.316 18.859,-2.266L17.781,0.969C16.551,0.883 15.363,0.656 14.219,0.281C13.082,-0.082 12.066,-0.598 11.172,-1.266C10.273,-1.93 9.562,-2.742 9.031,-3.703C8.5,-4.66 8.234,-5.781 8.234,-7.062C8.234,-8.195 8.41,-9.227 8.766,-10.156C9.117,-11.094 9.562,-11.91 10.094,-12.609C10.633,-13.316 11.164,-13.867 11.688,-14.266C11.188,-14.211 10.531,-14.141 9.719,-14.047C8.906,-13.953 8.035,-13.848 7.109,-13.734C6.18,-13.629 5.27,-13.504 4.375,-13.359C3.488,-13.223 2.707,-13.082 2.031,-12.938L1.719,-16.156Z" style="fill:rgb(229,76,12);fill-rule:nonzero;"/>
        </g>
    </g>
    <g transform="matrix(2.884332,0,0,2.767691,1037.778907,208.878708)">
        <g>
            <path d="M15.422,-9.656L18.703,-10.359C19.484,-9.367 20.055,-8.43 20.422,-7.547C20.785,-6.672 20.969,-5.738 20.969,-4.75C20.969,-3.582 20.629,-2.535 19.953,-1.609C19.285,-0.691 18.332,0.023 17.094,0.547C15.863,1.066 14.391,1.328 12.672,1.328C11.453,1.328 10.367,1.133 9.422,0.75C8.473,0.375 7.727,-0.219 7.188,-1.031C6.656,-1.844 6.391,-2.891 6.391,-4.172C6.391,-4.461 6.406,-4.805 6.438,-5.203C6.477,-5.609 6.52,-6.055 6.562,-6.547C5.707,-6.617 4.898,-6.723 4.141,-6.859C3.391,-6.992 2.703,-7.145 2.078,-7.312L2.25,-10.156C3,-9.906 3.766,-9.707 4.547,-9.562C5.328,-9.414 6.094,-9.305 6.844,-9.234C6.926,-9.754 7,-10.281 7.062,-10.812C7.125,-11.344 7.188,-11.879 7.25,-12.422C6.426,-12.492 5.617,-12.602 4.828,-12.75C4.035,-12.895 3.289,-13.062 2.594,-13.25L2.766,-15.953C3.441,-15.734 4.195,-15.551 5.031,-15.406C5.863,-15.27 6.707,-15.164 7.562,-15.094C7.602,-15.445 7.641,-15.781 7.672,-16.094C7.703,-16.414 7.727,-16.703 7.75,-16.953C7.781,-17.266 7.801,-17.586 7.812,-17.922C7.832,-18.266 7.828,-18.633 7.797,-19.031L11.078,-18.844C10.898,-18.039 10.766,-17.348 10.672,-16.766C10.641,-16.555 10.602,-16.301 10.562,-16C10.52,-15.707 10.469,-15.367 10.406,-14.984C11.238,-15.004 12.023,-15.035 12.766,-15.078C13.504,-15.129 14.148,-15.195 14.703,-15.281L14.609,-12.484C13.922,-12.422 13.223,-12.367 12.516,-12.328C11.816,-12.297 11,-12.281 10.062,-12.281C10,-11.758 9.93,-11.227 9.859,-10.688C9.785,-10.145 9.719,-9.613 9.656,-9.094L9.828,-9.094C10.547,-9.094 11.312,-9.117 12.125,-9.172C12.945,-9.223 13.742,-9.289 14.516,-9.375L14.453,-6.594C13.785,-6.531 13.109,-6.477 12.422,-6.438C11.742,-6.395 11.039,-6.375 10.312,-6.375L9.375,-6.375C9.352,-6.031 9.332,-5.711 9.312,-5.422C9.289,-5.141 9.281,-4.891 9.281,-4.672C9.281,-3.711 9.57,-2.977 10.156,-2.469C10.75,-1.957 11.617,-1.703 12.766,-1.703C14.41,-1.703 15.664,-2.031 16.531,-2.688C17.395,-3.352 17.828,-4.164 17.828,-5.125C17.828,-5.906 17.613,-6.672 17.188,-7.422C16.758,-8.18 16.172,-8.926 15.422,-9.656Z" style="fill:rgb(229,76,12);fill-rule:nonzero;"/>
        </g>
    </g>
    <g transform="matrix(2.884332,0,0,2.767691,1119.064902,208.878708)">
        <g>
            <path d="M8.312,-10.438L8.312,-9.156C8.594,-8.938 8.93,-8.66 9.328,-8.328C9.734,-8.004 10.145,-7.672 10.562,-7.328C10.977,-6.992 11.352,-6.68 11.688,-6.391C12.031,-6.109 12.281,-5.906 12.438,-5.781L10.812,-3.375C10.531,-3.738 10.16,-4.164 9.703,-4.656C9.242,-5.156 8.781,-5.648 8.312,-6.141L8.312,2L5.594,2L5.594,-6.453C5.062,-5.379 4.488,-4.359 3.875,-3.391C3.258,-2.422 2.629,-1.586 1.984,-0.891C1.836,-1.305 1.617,-1.781 1.328,-2.312C1.035,-2.844 0.781,-3.285 0.562,-3.641C1.133,-4.191 1.691,-4.836 2.234,-5.578C2.785,-6.328 3.305,-7.117 3.797,-7.953C4.285,-8.785 4.703,-9.613 5.047,-10.438L1.109,-10.438L1.109,-13.016L5.594,-13.016L5.594,-15.938C4.914,-15.812 4.242,-15.691 3.578,-15.578C2.922,-15.473 2.27,-15.379 1.625,-15.297C1.562,-15.609 1.457,-15.977 1.312,-16.406C1.164,-16.832 1.004,-17.195 0.828,-17.5C1.961,-17.664 3.113,-17.867 4.281,-18.109C5.457,-18.359 6.566,-18.633 7.609,-18.938C8.66,-19.25 9.562,-19.578 10.312,-19.922L12.297,-17.75C11.711,-17.52 11.082,-17.301 10.406,-17.094C9.727,-16.883 9.031,-16.695 8.312,-16.531L8.312,-13.016L12.375,-13.016L12.375,-10.438L8.312,-10.438ZM16.219,-17.141L16.219,-3.938L13.484,-3.938L13.484,-17.141L16.219,-17.141ZM19.047,-19.547L21.844,-19.547L21.844,-1.375C21.844,-0.551 21.742,0.07 21.547,0.5C21.359,0.938 21.023,1.266 20.547,1.484C20.055,1.723 19.414,1.875 18.625,1.938C17.844,2.008 16.914,2.039 15.844,2.031C15.781,1.625 15.656,1.133 15.469,0.562C15.289,0 15.094,-0.477 14.875,-0.875C15.645,-0.844 16.363,-0.82 17.031,-0.812C17.695,-0.801 18.16,-0.797 18.422,-0.797C18.641,-0.816 18.797,-0.867 18.891,-0.953C18.992,-1.047 19.047,-1.191 19.047,-1.391L19.047,-19.547Z" style="fill:rgb(229,76,12);fill-rule:nonzero;"/>
        </g>
    </g>
    <g transform="matrix(2.884332,0,0,2.767691,1200.350865,208.878708)">
        <g>
            <path d="M13.453,-7.484L18.438,-7.484L18.438,-10.391L13.453,-10.391L13.453,-7.484ZM6.109,-7.484L10.625,-7.484L10.625,-10.391L6.188,-10.391L6.188,-9.969C6.188,-9.195 6.16,-8.367 6.109,-7.484ZM10.625,-15.75L6.188,-15.75L6.188,-13.016L10.625,-13.016L10.625,-15.75ZM18.438,-13.016L18.438,-15.75L13.453,-15.75L13.453,-13.016L18.438,-13.016ZM21.219,-18.422L21.219,-1.281C21.219,-0.52 21.125,0.062 20.938,0.469C20.75,0.883 20.422,1.203 19.953,1.422C19.461,1.648 18.848,1.789 18.109,1.844C17.379,1.906 16.484,1.926 15.422,1.906C15.367,1.531 15.25,1.078 15.062,0.547C14.875,0.023 14.691,-0.414 14.516,-0.781C14.961,-0.758 15.41,-0.742 15.859,-0.734L17.828,-0.734C18.234,-0.734 18.438,-0.922 18.438,-1.297L18.438,-4.844L13.453,-4.844L13.453,1.75L10.625,1.75L10.625,-4.844L5.812,-4.844C5.602,-3.551 5.266,-2.289 4.797,-1.062C4.336,0.164 3.68,1.242 2.828,2.172C2.691,1.992 2.484,1.785 2.203,1.547C1.93,1.305 1.648,1.07 1.359,0.844C1.078,0.625 0.828,0.461 0.609,0.359C1.254,-0.348 1.758,-1.129 2.125,-1.984C2.5,-2.836 2.773,-3.723 2.953,-4.641C3.141,-5.555 3.258,-6.473 3.312,-7.391C3.375,-8.305 3.406,-9.172 3.406,-9.984L3.406,-18.422L21.219,-18.422Z" style="fill:rgb(229,76,12);fill-rule:nonzero;"/>
        </g>
    </g>
    <g transform="matrix(2.884332,0,0,2.767691,1281.636891,208.878708)">
        <g>
            <path d="M9.094,0.328C7.551,0.328 6.191,-0.039 5.016,-0.781C3.848,-1.52 2.93,-2.566 2.266,-3.922C1.609,-5.285 1.281,-6.914 1.281,-8.812C1.281,-10.707 1.609,-12.32 2.266,-13.656C2.93,-15 3.848,-16.023 5.016,-16.734C6.191,-17.441 7.551,-17.797 9.094,-17.797C10.633,-17.797 11.988,-17.441 13.156,-16.734C14.332,-16.023 15.25,-15 15.906,-13.656C16.57,-12.312 16.906,-10.695 16.906,-8.812C16.906,-6.914 16.57,-5.285 15.906,-3.922C15.25,-2.566 14.332,-1.52 13.156,-0.781C11.988,-0.039 10.633,0.328 9.094,0.328ZM9.094,-2.688C10.395,-2.688 11.426,-3.238 12.188,-4.344C12.957,-5.457 13.344,-6.945 13.344,-8.812C13.344,-10.676 12.957,-12.141 12.188,-13.203C11.426,-14.266 10.395,-14.797 9.094,-14.797C7.801,-14.797 6.77,-14.266 6,-13.203C5.227,-12.141 4.844,-10.676 4.844,-8.812C4.844,-6.945 5.227,-5.457 6,-4.344C6.77,-3.238 7.801,-2.688 9.094,-2.688Z" style="fill:rgb(229,76,12);fill-rule:nonzero;"/>
        </g>
    </g>
    <g transform="matrix(2.884332,0,0,2.767691,1347.265637,208.878708)">
        <g>
            <path d="M2.156,0L2.156,-17.469L5.641,-17.469L5.641,-9.891L5.719,-9.891L11.5,-17.469L15.344,-17.469L10.016,-10.594L16.297,0L12.438,0L7.938,-7.844L5.641,-4.906L5.641,0L2.156,0Z" style="fill:rgb(229,76,12);fill-rule:nonzero;"/>
        </g>
    </g>
    <g transform="matrix(2.884332,0,0,2.767691,1407.176046,208.878708)">
        <g>
            <path d="M10.594,-6.062L9.75,-14.141L9.656,-17.656L13.984,-17.656L13.859,-14.141L13.031,-6.062L10.594,-6.062ZM11.812,0.219C11.113,0.219 10.523,0 10.047,-0.438C9.578,-0.875 9.344,-1.426 9.344,-2.094C9.344,-2.77 9.578,-3.328 10.047,-3.766C10.523,-4.211 11.113,-4.438 11.812,-4.438C12.5,-4.438 13.078,-4.211 13.547,-3.766C14.023,-3.328 14.266,-2.77 14.266,-2.094C14.266,-1.426 14.023,-0.875 13.547,-0.438C13.078,0 12.5,0.219 11.812,0.219Z" style="fill:rgb(229,76,12);fill-rule:nonzero;"/>
        </g>
    </g>
</svg>
