<?xml version="1.0" encoding="UTF-8" standalone="no"?>
<!DOCTYPE svg PUBLIC "-//W3C//DTD SVG 1.1//EN" "http://www.w3.org/Graphics/SVG/1.1/DTD/svg11.dtd">
<svg width="100%" height="100%" viewBox="0 0 2000 500" version="1.1" xmlns="http://www.w3.org/2000/svg" xmlns:xlink="http://www.w3.org/1999/xlink" xml:space="preserve" xmlns:serif="http://www.serif.com/" style="fill-rule:evenodd;clip-rule:evenodd;">
    <g transform="matrix(2.791103,0,0,3.147438,-46.325773,-930.289163)">
        <clipPath id="_clip1">
            <path d="M732.973,370.527L732.973,379.473C732.973,420.871 699.414,454.43 658.02,454.43L91.551,454.43C50.156,454.43 16.598,420.871 16.598,379.473L16.598,370.527C16.598,329.129 50.156,295.57 91.551,295.57L658.02,295.57C699.414,295.57 732.973,329.129 732.973,370.527Z"/>
        </clipPath>
        <g clip-path="url(#_clip1)">
            <g transform="matrix(1,0,0,1,16,295)">
                <g>
                    <g>
                        <g>
                            <clipPath id="_clip2">
                                <path d="M716.973,75.527L716.973,84.473C716.973,125.871 683.414,159.43 642.02,159.43L75.551,159.43C34.156,159.43 0.598,125.871 0.598,84.473L0.598,75.527C0.598,34.129 34.156,0.57 75.551,0.57L642.02,0.57C683.414,0.57 716.973,34.129 716.973,75.527Z"/>
                            </clipPath>
                            <g clip-path="url(#_clip2)">
                                <rect x="0.598" y="0.57" width="716.105" height="158.859" style="fill:white;fill-rule:nonzero;"/>
                            </g>
                        </g>
                    </g>
                </g>
            </g>
        </g>
    </g>
    <g transform="matrix(2.791103,0,0,3.147438,-46.325773,-930.289163)">
        <clipPath id="_clip3">
            <path d="M733.16,370.52L733.16,379.469C733.16,420.863 699.605,454.418 658.211,454.418L91.781,454.418C50.391,454.418 16.832,420.863 16.832,379.469L16.832,370.52C16.832,329.125 50.391,295.57 91.781,295.57L658.211,295.57C699.605,295.57 733.16,329.125 733.16,370.52Z"/>
        </clipPath>
        <g clip-path="url(#_clip3)">
            <g transform="matrix(0.75,0,0,0.75,16.596409,295.570582)">
                <path d="M955.418,99.932L955.418,111.864C955.418,167.057 910.679,211.797 855.486,211.797L100.246,211.797C45.059,211.797 0.314,167.057 0.314,111.864L0.314,99.932C0.314,44.739 45.059,-0 100.246,-0L855.486,-0C910.679,-0 955.418,44.739 955.418,99.932Z" style="fill:none;fill-rule:nonzero;stroke:url(#_Linear4);stroke-width:14px;"/>
            </g>
        </g>
    </g>
    <g transform="matrix(2.791103,0,0,3.147438,-46.325773,-930.289163)">
        <clipPath id="_clip5">
            <path d="M650.875,304.746C612.074,304.746 580.617,336.199 580.617,375C580.617,413.801 612.074,445.254 650.875,445.254C689.676,445.254 721.129,413.801 721.129,375C721.129,336.199 689.676,304.746 650.875,304.746Z"/>
        </clipPath>
        <g clip-path="url(#_clip5)">
            <g transform="matrix(1,0,0,1,580,304)">
                <g>
                    <g>
                        <g>
                            <clipPath id="_clip6">
                                <path d="M70.875,0.746C32.074,0.746 0.617,32.199 0.617,71C0.617,109.801 32.074,141.254 70.875,141.254C109.676,141.254 141.129,109.801 141.129,71C141.129,32.199 109.676,0.746 70.875,0.746Z"/>
                            </clipPath>
                            <g clip-path="url(#_clip6)">
                                <rect x="0.617" y="0.746" width="140.512" height="140.508" style="fill:url(#_Linear7);fill-rule:nonzero;"/>
                            </g>
                        </g>
                    </g>
                </g>
            </g>
        </g>
    </g>
    <g transform="matrix(2.791103,0,0,3.147438,-46.325773,-930.289163)">
        <rect x="68.145" y="361.98" width="492.324" height="3" style="fill:url(#_Linear8);fill-rule:nonzero;"/>
    </g>
    <g transform="matrix(2.791103,0,0,3.147438,523.059312,64.301172)">
        <g>
            <g transform="matrix(1,0,0,1,25.219512,24.454815)">
                <g>
                    <path d="M9.5,-5.359L8,-3.438C7.801,-3.75 7.539,-4.113 7.219,-4.531C6.895,-4.945 6.555,-5.352 6.203,-5.75L6.203,1.844L3.734,1.844L3.734,-5.047C3.398,-4.691 3.062,-4.359 2.719,-4.047C2.383,-3.742 2.051,-3.457 1.719,-3.188C1.645,-3.395 1.531,-3.645 1.375,-3.938C1.219,-4.238 1.055,-4.535 0.891,-4.828C0.723,-5.117 0.566,-5.332 0.422,-5.469C1.109,-5.945 1.781,-6.523 2.438,-7.203C3.102,-7.891 3.727,-8.633 4.312,-9.438C4.906,-10.238 5.41,-11.055 5.828,-11.891L1.016,-11.891L1.016,-14.156L3.734,-14.156L3.734,-17.875L6.203,-17.875L6.203,-14.156L7.125,-14.156L7.516,-14.266L8.938,-13.328C8.625,-12.473 8.242,-11.617 7.797,-10.766C7.359,-9.922 6.875,-9.109 6.344,-8.328C6.508,-8.18 6.695,-8.008 6.906,-7.812C7.188,-8.176 7.461,-8.578 7.734,-9.016C8.016,-9.453 8.242,-9.832 8.422,-10.156L10.031,-8.828C9.664,-8.473 9.316,-8.113 8.984,-7.75C8.66,-7.383 8.352,-7.055 8.062,-6.766C8.395,-6.461 8.691,-6.18 8.953,-5.922C9.211,-5.66 9.395,-5.473 9.5,-5.359ZM8.75,-16.266L20,-16.266L20,-15.469C20,-15.27 19.992,-15.113 19.984,-15C19.941,-12.363 19.891,-10.125 19.828,-8.281C19.773,-6.445 19.707,-4.941 19.625,-3.766C19.539,-2.586 19.43,-1.672 19.297,-1.016C19.16,-0.367 18.992,0.094 18.797,0.375C18.516,0.801 18.227,1.102 17.938,1.281C17.656,1.457 17.312,1.578 16.906,1.641C16.52,1.711 16.055,1.754 15.516,1.766C14.973,1.773 14.414,1.77 13.844,1.75C13.82,1.383 13.738,0.953 13.594,0.453C13.457,-0.043 13.281,-0.477 13.062,-0.844C13.602,-0.801 14.102,-0.773 14.562,-0.766L15.656,-0.766C15.82,-0.766 15.961,-0.789 16.078,-0.844C16.203,-0.895 16.32,-1 16.438,-1.156C16.633,-1.395 16.797,-1.961 16.922,-2.859C17.047,-3.766 17.145,-5.109 17.219,-6.891C17.301,-8.672 17.363,-11.008 17.406,-13.906L14.344,-13.906C14.301,-12.383 14.207,-10.875 14.062,-9.375C13.926,-7.883 13.676,-6.445 13.312,-5.062C12.957,-3.688 12.426,-2.41 11.719,-1.234C11.02,-0.055 10.078,0.973 8.891,1.859C8.68,1.523 8.398,1.172 8.047,0.797C7.691,0.422 7.352,0.113 7.031,-0.125C8.113,-0.883 8.969,-1.773 9.594,-2.797C10.227,-3.816 10.695,-4.926 11,-6.125C11.301,-7.332 11.5,-8.594 11.594,-9.906C11.695,-11.219 11.758,-12.551 11.781,-13.906L8.75,-13.906L8.75,-16.266Z" style="fill-rule:nonzero;"/>
                </g>
            </g>
        </g>
        <g>
            <g transform="matrix(1,0,0,1,46.342944,24.454815)">
                <g>
                    <path d="M14.641,-10.062L16.938,-11.219C17.539,-10.445 18.098,-9.609 18.609,-8.703C19.129,-7.797 19.578,-6.898 19.953,-6.016C20.328,-5.141 20.598,-4.336 20.766,-3.609L18.203,-2.344C18.066,-3.062 17.82,-3.867 17.469,-4.766C17.113,-5.672 16.691,-6.582 16.203,-7.5C15.723,-8.426 15.203,-9.281 14.641,-10.062ZM2.531,-10.375L5,-9.859C4.906,-8.898 4.77,-7.922 4.594,-6.922C4.414,-5.922 4.176,-4.969 3.875,-4.062C3.582,-3.156 3.207,-2.359 2.75,-1.672L0.406,-3.016C1.02,-3.93 1.492,-5.035 1.828,-6.328C2.16,-7.617 2.395,-8.969 2.531,-10.375ZM6.406,-15.859L8,-17.828C8.832,-17.535 9.688,-17.18 10.562,-16.766C11.445,-16.348 12.285,-15.91 13.078,-15.453C13.867,-14.992 14.535,-14.562 15.078,-14.156L13.438,-11.938C12.895,-12.383 12.227,-12.848 11.438,-13.328C10.656,-13.816 9.828,-14.285 8.953,-14.734C8.078,-15.18 7.227,-15.555 6.406,-15.859ZM6.312,-11.875L8.938,-11.875L8.938,-1.844C8.938,-1.332 9.004,-1.008 9.141,-0.875C9.273,-0.738 9.586,-0.672 10.078,-0.672L12.969,-0.672C13.32,-0.672 13.586,-0.77 13.766,-0.969C13.941,-1.176 14.066,-1.566 14.141,-2.141C14.223,-2.711 14.285,-3.547 14.328,-4.641C14.617,-4.422 14.992,-4.207 15.453,-4C15.91,-3.801 16.316,-3.648 16.672,-3.547C16.586,-2.234 16.43,-1.203 16.203,-0.453C15.973,0.293 15.625,0.828 15.156,1.141C14.688,1.461 14.031,1.625 13.188,1.625L9.734,1.625C8.848,1.625 8.156,1.52 7.656,1.312C7.156,1.102 6.805,0.742 6.609,0.234C6.41,-0.273 6.312,-0.969 6.312,-1.844L6.312,-11.875Z" style="fill-rule:nonzero;"/>
                </g>
            </g>
        </g>
        <g>
            <g transform="matrix(1,0,0,1,67.466376,24.454815)">
                <g>
                    <path d="M10.375,-13.438L10.375,-11.516L11.531,-11.516C11.938,-11.828 12.328,-12.141 12.703,-12.453C13.086,-12.766 13.457,-13.094 13.812,-13.438L10.375,-13.438ZM14.984,-4.203L14.984,-5.562L7.703,-5.562L7.703,-4.203L14.984,-4.203ZM7.703,-0.859L14.984,-0.859L14.984,-2.297L7.703,-2.297L7.703,-0.859ZM20.031,-9.297L12.422,-9.297C12.016,-8.992 11.602,-8.707 11.188,-8.438C10.781,-8.164 10.359,-7.891 9.922,-7.609L17.594,-7.609L17.594,1.781L14.984,1.781L14.984,1.219L7.703,1.219L7.703,1.859L5.203,1.859L5.203,-5.047C4.68,-4.816 4.145,-4.586 3.594,-4.359C3.039,-4.129 2.5,-3.914 1.969,-3.719C1.863,-3.906 1.719,-4.129 1.531,-4.391C1.352,-4.648 1.164,-4.906 0.969,-5.156C0.77,-5.406 0.586,-5.613 0.422,-5.781C1.805,-6.219 3.16,-6.734 4.484,-7.328C5.805,-7.922 7.07,-8.578 8.281,-9.297L1.094,-9.297L1.094,-11.516L7.875,-11.516L7.875,-13.438L2.922,-13.438L2.922,-15.609L7.875,-15.609L7.875,-17.891L10.375,-17.891L10.375,-15.609L14.953,-15.609L14.953,-14.578C15.742,-15.43 16.469,-16.328 17.125,-17.266L19.281,-16.156C18.676,-15.332 18.023,-14.523 17.328,-13.734C16.629,-12.953 15.895,-12.211 15.125,-11.516L20.031,-11.516L20.031,-9.297Z" style="fill-rule:nonzero;"/>
                </g>
            </g>
        </g>
        <g>
            <g transform="matrix(1,0,0,1,88.589808,24.454815)">
                <g>
                    <path d="M5.766,-3.797C6.203,-3.797 6.629,-4.133 7.047,-4.812C7.473,-5.488 7.898,-6.531 8.328,-7.938C8.566,-8.719 8.781,-9.539 8.969,-10.406C9.156,-11.281 9.312,-12.148 9.438,-13.016C8.582,-12.828 7.82,-12.52 7.156,-12.094C6.5,-11.664 5.941,-11.16 5.484,-10.578C5.035,-9.992 4.695,-9.383 4.469,-8.75C4.25,-8.125 4.141,-7.523 4.141,-6.953C4.141,-5.891 4.312,-5.098 4.656,-4.578C5,-4.055 5.367,-3.797 5.766,-3.797ZM11.516,0.859L9.953,-1.609C10.359,-1.66 10.711,-1.711 11.016,-1.766C11.328,-1.828 11.617,-1.883 11.891,-1.938C12.797,-2.156 13.602,-2.508 14.312,-3C15.02,-3.488 15.582,-4.113 16,-4.875C16.426,-5.633 16.641,-6.523 16.641,-7.547C16.641,-8.992 16.266,-10.219 15.516,-11.219C14.766,-12.219 13.688,-12.836 12.281,-13.078C12.133,-12.191 11.961,-11.27 11.766,-10.312C11.566,-9.352 11.32,-8.379 11.031,-7.391C10.406,-5.273 9.641,-3.613 8.734,-2.406C7.836,-1.195 6.82,-0.594 5.688,-0.594C4.926,-0.594 4.219,-0.852 3.562,-1.375C2.914,-1.895 2.395,-2.613 2,-3.531C1.613,-4.445 1.422,-5.492 1.422,-6.672C1.422,-7.891 1.66,-9.035 2.141,-10.109C2.629,-11.18 3.312,-12.129 4.188,-12.953C5.07,-13.785 6.098,-14.438 7.266,-14.906C8.43,-15.383 9.691,-15.625 11.047,-15.625C12.336,-15.625 13.504,-15.41 14.547,-14.984C15.598,-14.566 16.488,-13.988 17.219,-13.25C17.945,-12.508 18.508,-11.645 18.906,-10.656C19.301,-9.664 19.5,-8.598 19.5,-7.453C19.5,-5.254 18.828,-3.422 17.484,-1.953C16.148,-0.484 14.16,0.453 11.516,0.859Z" style="fill-rule:nonzero;"/>
                </g>
            </g>
        </g>
        <g>
            <g transform="matrix(1,0,0,1,109.713241,24.454815)">
                <g>
                    <path d="M20.094,-12.125L9.859,-12.125C9.836,-11.676 9.805,-11.219 9.766,-10.75C9.734,-10.289 9.691,-9.832 9.641,-9.375L17.781,-9.375C17.781,-9.375 17.773,-9.305 17.766,-9.172C17.766,-9.047 17.758,-8.895 17.75,-8.719C17.75,-8.539 17.734,-8.395 17.703,-8.281C17.578,-6.363 17.438,-4.797 17.281,-3.578C17.133,-2.359 16.957,-1.406 16.75,-0.719C16.551,-0.039 16.312,0.453 16.031,0.766C15.719,1.098 15.379,1.332 15.016,1.469C14.66,1.602 14.238,1.691 13.75,1.734C13.352,1.773 12.828,1.789 12.172,1.781C11.523,1.781 10.848,1.766 10.141,1.734C10.129,1.367 10.035,0.953 9.859,0.484C9.691,0.016 9.488,-0.391 9.25,-0.734C9.977,-0.672 10.676,-0.629 11.344,-0.609C12.008,-0.598 12.492,-0.594 12.797,-0.594C13.035,-0.594 13.234,-0.609 13.391,-0.641C13.547,-0.68 13.688,-0.754 13.812,-0.859C14.094,-1.098 14.332,-1.703 14.531,-2.672C14.727,-3.648 14.898,-5.098 15.047,-7.016L9.234,-7.016C8.961,-5.828 8.566,-4.68 8.047,-3.578C7.523,-2.473 6.812,-1.445 5.906,-0.5C5.008,0.434 3.859,1.266 2.453,1.984C2.266,1.629 2,1.25 1.656,0.844C1.32,0.445 0.992,0.117 0.672,-0.141C2.098,-0.805 3.227,-1.586 4.062,-2.484C4.906,-3.391 5.531,-4.367 5.938,-5.422C6.352,-6.484 6.633,-7.582 6.781,-8.719C6.938,-9.863 7.039,-11 7.094,-12.125L1.062,-12.125L1.062,-14.531L9.141,-14.531L9.141,-17.984L11.75,-17.984L11.75,-14.531L20.094,-14.531L20.094,-12.125Z" style="fill-rule:nonzero;"/>
                </g>
            </g>
        </g>
        <g>
            <g transform="matrix(1,0,0,1,130.836673,24.454815)">
                <g>
                    <path d="M13.797,-8.641L16.734,-9.281C17.43,-8.383 17.941,-7.539 18.266,-6.75C18.598,-5.969 18.766,-5.133 18.766,-4.25C18.766,-3.207 18.461,-2.273 17.859,-1.453C17.266,-0.629 16.41,0.016 15.297,0.484C14.191,0.953 12.875,1.188 11.344,1.188C10.25,1.188 9.273,1.016 8.422,0.672C7.578,0.336 6.914,-0.188 6.438,-0.906C5.957,-1.633 5.719,-2.578 5.719,-3.734C5.719,-3.992 5.734,-4.301 5.766,-4.656C5.797,-5.02 5.832,-5.422 5.875,-5.859C5.113,-5.922 4.395,-6.008 3.719,-6.125C3.039,-6.25 2.422,-6.391 1.859,-6.547L2,-9.078C2.676,-8.859 3.363,-8.68 4.062,-8.547C4.758,-8.422 5.445,-8.328 6.125,-8.266C6.195,-8.723 6.258,-9.191 6.312,-9.672C6.375,-10.148 6.43,-10.629 6.484,-11.109C5.754,-11.18 5.031,-11.281 4.312,-11.406C3.602,-11.531 2.941,-11.676 2.328,-11.844L2.469,-14.281C3.07,-14.082 3.75,-13.922 4.5,-13.797C5.25,-13.672 6.004,-13.57 6.766,-13.5C6.805,-13.82 6.836,-14.125 6.859,-14.406C6.891,-14.688 6.91,-14.941 6.922,-15.172C6.953,-15.453 6.973,-15.742 6.984,-16.047C7.004,-16.348 7,-16.676 6.969,-17.031L9.906,-16.859C9.75,-16.141 9.629,-15.52 9.547,-15C9.516,-14.812 9.484,-14.582 9.453,-14.312C9.422,-14.051 9.375,-13.754 9.312,-13.422C10.062,-13.43 10.766,-13.457 11.422,-13.5C12.086,-13.539 12.664,-13.598 13.156,-13.672L13.078,-11.172C12.453,-11.117 11.828,-11.07 11.203,-11.031C10.578,-11 9.844,-10.984 9,-10.984C8.945,-10.516 8.883,-10.035 8.812,-9.547C8.75,-9.066 8.691,-8.598 8.641,-8.141L8.781,-8.141C9.438,-8.141 10.129,-8.16 10.859,-8.203C11.586,-8.254 12.297,-8.316 12.984,-8.391L12.922,-5.891C12.336,-5.836 11.738,-5.789 11.125,-5.75C10.508,-5.719 9.879,-5.703 9.234,-5.703L8.391,-5.703C8.367,-5.391 8.348,-5.109 8.328,-4.859C8.305,-4.609 8.297,-4.383 8.297,-4.188C8.297,-3.32 8.562,-2.66 9.094,-2.203C9.625,-1.742 10.398,-1.516 11.422,-1.516C12.891,-1.516 14.008,-1.812 14.781,-2.406C15.562,-3 15.953,-3.723 15.953,-4.578C15.953,-5.285 15.758,-5.977 15.375,-6.656C15,-7.332 14.473,-7.992 13.797,-8.641Z" style="fill-rule:nonzero;"/>
                </g>
            </g>
        </g>
        <g>
            <g transform="matrix(1,0,0,1,151.960105,24.454815)">
                <g>
                    <path d="M19.938,-9.641L12.5,-9.641C13.207,-7.578 14.207,-5.754 15.5,-4.172C16.801,-2.586 18.438,-1.395 20.406,-0.594C20.195,-0.426 19.973,-0.199 19.734,0.078C19.492,0.359 19.27,0.648 19.062,0.953C18.863,1.266 18.691,1.539 18.547,1.781C16.629,0.875 15.035,-0.332 13.766,-1.844C12.504,-3.363 11.457,-5.145 10.625,-7.188C10.25,-6.008 9.727,-4.867 9.062,-3.766C8.395,-2.66 7.547,-1.633 6.516,-0.688C5.484,0.246 4.219,1.078 2.719,1.797C2.52,1.441 2.25,1.062 1.906,0.656C1.562,0.258 1.207,-0.07 0.844,-0.344C2.469,-1.062 3.789,-1.91 4.812,-2.891C5.844,-3.879 6.648,-4.945 7.234,-6.094C7.816,-7.238 8.242,-8.422 8.516,-9.641L1.25,-9.641L1.25,-12.234L8.938,-12.234C9.051,-13.234 9.109,-14.207 9.109,-15.156C9.117,-16.102 9.129,-17.008 9.141,-17.875L11.891,-17.875C11.879,-17.008 11.863,-16.098 11.844,-15.141C11.82,-14.18 11.754,-13.211 11.641,-12.234L19.938,-12.234L19.938,-9.641Z" style="fill-rule:nonzero;"/>
                </g>
            </g>
        </g>
        <g>
            <g transform="matrix(1,0,0,1,173.083537,24.454815)">
                <g>
                    <path d="M8.391,-1.141L10.75,-1.141C11.438,-1.805 12,-2.523 12.438,-3.297C12.875,-4.066 13.211,-4.848 13.453,-5.641C13.691,-6.43 13.859,-7.164 13.953,-7.844C14.047,-8.531 14.094,-9.113 14.094,-9.594L14.094,-11.844L13.672,-11.844C13.441,-11.113 13.195,-10.43 12.938,-9.797C12.688,-9.16 12.398,-8.582 12.078,-8.062C11.922,-8.195 11.707,-8.344 11.438,-8.5C11.164,-8.664 10.891,-8.816 10.609,-8.953L10.609,-7.25L8.391,-7.25L8.391,-6.359L10.391,-6.359L10.391,-4.672L8.391,-4.672L8.391,-3.766L10.391,-3.766L10.391,-2.062L8.391,-2.062L8.391,-1.141ZM4.672,-2.062L4.672,-1.141L6.203,-1.141L6.203,-2.062L4.672,-2.062ZM6.891,-10.672L5.688,-10.672C5.57,-10.398 5.445,-10.129 5.312,-9.859C5.176,-9.598 5.039,-9.332 4.906,-9.062L6.359,-9.062C6.473,-9.344 6.57,-9.625 6.656,-9.906C6.75,-10.188 6.828,-10.441 6.891,-10.672ZM2.812,-12.672L4.141,-12.672C4.234,-12.91 4.32,-13.156 4.406,-13.406C4.5,-13.664 4.586,-13.922 4.672,-14.172L3.781,-14.172C3.625,-13.91 3.461,-13.648 3.297,-13.391C3.141,-13.141 2.977,-12.898 2.812,-12.672ZM4.672,-6.359L6.203,-6.359L6.203,-7.25L4.672,-7.25L4.672,-6.359ZM4.672,-4.672L4.672,-3.766L6.203,-3.766L6.203,-4.672L4.672,-4.672ZM8.578,-9.062L10.391,-9.062C10.305,-9.102 10.227,-9.141 10.156,-9.172C10.094,-9.211 10.023,-9.25 9.953,-9.281C10.086,-9.488 10.223,-9.707 10.359,-9.938C10.492,-10.164 10.617,-10.41 10.734,-10.672L7.141,-10.672L9.172,-10.312C9.066,-10.094 8.961,-9.879 8.859,-9.672C8.766,-9.461 8.672,-9.258 8.578,-9.062ZM16.516,-11.844L16.516,-9.594C16.516,-9.082 16.57,-8.438 16.688,-7.656C16.801,-6.875 17.004,-6.047 17.297,-5.172C17.598,-4.297 18.008,-3.441 18.531,-2.609C19.062,-1.773 19.742,-1.039 20.578,-0.406C20.348,-0.125 20.082,0.234 19.781,0.672C19.488,1.109 19.254,1.488 19.078,1.812C18.473,1.363 17.945,0.828 17.5,0.203C17.062,-0.418 16.688,-1.07 16.375,-1.75C16.07,-2.438 15.836,-3.094 15.672,-3.719C15.504,-4.352 15.383,-4.891 15.312,-5.328C15.238,-4.867 15.098,-4.328 14.891,-3.703C14.691,-3.086 14.422,-2.441 14.078,-1.766C13.742,-1.098 13.328,-0.449 12.828,0.172C12.328,0.805 11.75,1.352 11.094,1.812C11.031,1.656 10.938,1.484 10.812,1.297C10.695,1.109 10.578,0.914 10.453,0.719L4.672,0.719L4.672,1.812L2.469,1.812L2.469,-5.469C2.344,-5.332 2.219,-5.195 2.094,-5.062C1.969,-4.938 1.844,-4.812 1.719,-4.688C1.625,-4.875 1.5,-5.098 1.344,-5.359C1.195,-5.617 1.035,-5.879 0.859,-6.141C0.68,-6.398 0.52,-6.609 0.375,-6.766C0.938,-7.266 1.457,-7.844 1.938,-8.5C2.414,-9.164 2.852,-9.891 3.25,-10.672L0.781,-10.672L0.781,-12.672L2.234,-12.672C1.992,-12.859 1.727,-13.039 1.438,-13.219C1.145,-13.406 0.891,-13.555 0.672,-13.672C1.172,-14.191 1.617,-14.828 2.016,-15.578C2.422,-16.328 2.734,-17.098 2.953,-17.891L5.172,-17.406C5.117,-17.195 5.051,-16.984 4.969,-16.766C4.895,-16.547 4.805,-16.332 4.703,-16.125L10.703,-16.125L10.703,-14.172L6.953,-14.172C6.879,-13.922 6.801,-13.664 6.719,-13.406C6.645,-13.156 6.566,-12.91 6.484,-12.672L10.984,-12.672L10.984,-11.297C11.348,-12.242 11.645,-13.285 11.875,-14.422C12.113,-15.555 12.297,-16.711 12.422,-17.891L14.812,-17.594C14.656,-16.395 14.461,-15.238 14.234,-14.125L18.359,-14.125L18.734,-14.219L20.391,-13.781C20.305,-13.113 20.207,-12.422 20.094,-11.703C19.988,-10.984 19.875,-10.297 19.75,-9.641C19.633,-8.984 19.508,-8.395 19.375,-7.875L17.406,-8.469C17.488,-8.914 17.566,-9.438 17.641,-10.031C17.723,-10.625 17.789,-11.227 17.844,-11.844L16.516,-11.844Z" style="fill-rule:nonzero;"/>
                </g>
            </g>
        </g>
        <g>
            <g transform="matrix(1,0,0,1,194.206969,24.454815)">
                <g>
                    <path d="M6.531,-3.375L5.875,-5.594C6.07,-5.633 6.27,-5.676 6.469,-5.719C6.664,-5.758 6.875,-5.812 7.094,-5.875L7.094,-16.422L8.297,-16.094C8.836,-16.363 9.352,-16.656 9.844,-16.969C10.332,-17.289 10.754,-17.598 11.109,-17.891L12.781,-16.078L12.781,-16.609L19.625,-16.609L19.625,-5.875C19.625,-5.363 19.566,-4.953 19.453,-4.641C19.336,-4.336 19.113,-4.094 18.781,-3.906C18.457,-3.727 18.066,-3.613 17.609,-3.562C17.16,-3.52 16.629,-3.5 16.016,-3.5C15.973,-3.812 15.883,-4.176 15.75,-4.594C15.625,-5.008 15.488,-5.352 15.344,-5.625C15.688,-5.602 16.016,-5.594 16.328,-5.594L16.984,-5.594C17.211,-5.594 17.328,-5.707 17.328,-5.938L17.328,-14.484L15.062,-14.484L15.062,-1.422L12.781,-1.422L12.781,-15.969C12.258,-15.676 11.707,-15.395 11.125,-15.125C10.539,-14.852 9.969,-14.609 9.406,-14.391L9.406,-6.422C9.844,-6.535 10.281,-6.645 10.719,-6.75C11.164,-6.863 11.609,-6.977 12.047,-7.094L12.312,-4.938C11.332,-4.676 10.332,-4.406 9.312,-4.125C8.301,-3.852 7.375,-3.602 6.531,-3.375ZM5.641,-13.969L3.5,-12.547C3.352,-12.898 3.125,-13.289 2.812,-13.719C2.508,-14.145 2.172,-14.57 1.797,-15C1.43,-15.438 1.066,-15.832 0.703,-16.188L2.688,-17.453C3.051,-17.109 3.426,-16.734 3.812,-16.328C4.195,-15.922 4.555,-15.508 4.891,-15.094C5.223,-14.688 5.473,-14.312 5.641,-13.969ZM5.344,-9.703L5.344,-2.938C5.75,-2.219 6.336,-1.691 7.109,-1.359C7.879,-1.023 8.805,-0.836 9.891,-0.797C10.535,-0.773 11.316,-0.758 12.234,-0.75C13.148,-0.738 14.109,-0.738 15.109,-0.75C16.117,-0.77 17.102,-0.801 18.062,-0.844C19.031,-0.883 19.883,-0.938 20.625,-1C20.477,-0.719 20.332,-0.344 20.188,0.125C20.039,0.602 19.938,1.016 19.875,1.359C19.195,1.398 18.426,1.43 17.562,1.453C16.695,1.473 15.801,1.484 14.875,1.484C13.945,1.492 13.047,1.488 12.172,1.469C11.305,1.457 10.547,1.441 9.891,1.422C8.617,1.359 7.535,1.148 6.641,0.797C5.742,0.453 4.984,-0.129 4.359,-0.953C3.961,-0.523 3.547,-0.102 3.109,0.312C2.68,0.738 2.219,1.176 1.719,1.625L0.531,-0.766C0.906,-1.047 1.312,-1.352 1.75,-1.688C2.195,-2.031 2.617,-2.375 3.016,-2.719L3.016,-7.391L0.844,-7.391L0.844,-9.703L5.344,-9.703Z" style="fill-rule:nonzero;"/>
                </g>
            </g>
        </g>
        <g>
            <g>
                <clipPath id="_clip9">
                    <path d="M233.84,9.922L240.133,16.211L233.84,22.504L227.551,16.211L233.84,9.922Z"/>
                </clipPath>
                <g clip-path="url(#_clip9)">
                    <g transform="matrix(1,0,0,1,227,9)">
                        <g>
                            <g>
                                <g>
                                    <clipPath id="_clip10">
                                        <path d="M6.84,0.922L13.133,7.211L6.84,13.504L0.551,7.211L6.84,0.922Z"/>
                                    </clipPath>
                                    <g clip-path="url(#_clip10)">
                                        <rect x="0.551" y="0.922" width="12.582" height="12.582" style="fill:url(#_Linear11);fill-rule:nonzero;"/>
                                    </g>
                                </g>
                            </g>
                        </g>
                    </g>
                </g>
            </g>
        </g>
        <g>
            <g>
                <clipPath id="_clip12">
                    <path d="M6.73,9.922L13.023,16.211L6.73,22.504L0.441,16.211L6.73,9.922Z"/>
                </clipPath>
                <g clip-path="url(#_clip12)">
                    <g transform="matrix(1,0,0,1,-0,9)">
                        <g>
                            <g>
                                <g>
                                    <clipPath id="_clip13">
                                        <path d="M6.73,0.922L13.023,7.211L6.73,13.504L0.441,7.211L6.73,0.922Z"/>
                                    </clipPath>
                                    <g clip-path="url(#_clip13)">
                                        <rect x="0.441" y="0.922" width="12.582" height="12.582" style="fill:url(#_Linear14);fill-rule:nonzero;"/>
                                    </g>
                                </g>
                            </g>
                        </g>
                    </g>
                </g>
            </g>
        </g>
    </g>
    <g transform="matrix(2.791103,0,0,3.147438,-46.325773,-930.289163)">
        <path d="M650.887,379.395C654.125,379.156 671.594,364.781 687.098,350.617C685.523,349.09 683.379,348.145 681.008,348.145L620.738,348.145C618.301,348.145 616.102,349.141 614.516,350.746C630.059,364.836 647.617,379.168 650.887,379.395" style="fill:white;fill-rule:nonzero;"/>
    </g>
    <g transform="matrix(2.791103,0,0,3.147438,-46.325773,-930.289163)">
        <path d="M673.75,367.699C655.18,383.418 652.16,383.418 650.871,383.418C649.586,383.418 646.57,383.418 627.996,367.828C621.5,362.379 615.32,356.879 612.398,354.25C612.133,355.082 611.988,355.973 611.988,356.895L611.988,393.121C611.988,397.949 615.902,401.863 620.73,401.863L681,401.863C685.832,401.863 689.75,397.949 689.75,393.117L689.75,356.887C689.75,355.898 689.578,354.953 689.277,354.066C686.328,356.738 680.195,362.246 673.75,367.699" style="fill:white;fill-rule:nonzero;"/>
    </g>
    <g transform="matrix(2.791103,0,0,3.147438,257.904493,199.640996)">
        <g>
            <g transform="matrix(1,0,0,1,0.29968,65.157701)">
                <g>
                    <path d="M15.5,-4.938C16.008,-4.938 16.43,-5.102 16.766,-5.438C17.098,-5.77 17.266,-6.398 17.266,-7.328C17.266,-8.035 17.254,-8.977 17.234,-10.156C17.223,-11.344 17.18,-12.66 17.109,-14.109C15.398,-13.254 14.035,-12.289 13.016,-11.219C12.004,-10.145 11.5,-9.125 11.5,-8.156C11.5,-7.602 11.727,-7.078 12.188,-6.578C12.656,-6.078 13.203,-5.676 13.828,-5.375C14.453,-5.082 15.008,-4.938 15.5,-4.938ZM23.328,-27.188L23.328,-22.766C25.172,-23.242 27.008,-23.602 28.844,-23.844C30.676,-24.094 32.352,-24.219 33.875,-24.219C36.688,-24.219 39.227,-23.734 41.5,-22.766C43.781,-21.805 45.598,-20.426 46.953,-18.625C48.305,-16.832 48.984,-14.676 48.984,-12.156C48.984,-8.906 48.055,-6.102 46.203,-3.75C44.348,-1.395 41.238,0.316 36.875,1.391C35.613,1.648 34.363,1.844 33.125,1.969C31.883,2.102 30.727,2.207 29.656,2.281L27.094,-4.781C28.352,-4.781 29.555,-4.805 30.703,-4.859C31.859,-4.91 32.914,-5.016 33.875,-5.172C36.094,-5.578 37.977,-6.352 39.531,-7.5C41.094,-8.645 41.875,-10.219 41.875,-12.219C41.875,-14.07 41.125,-15.516 39.625,-16.547C38.125,-17.586 36.172,-18.109 33.766,-18.109C32.055,-18.109 30.332,-17.977 28.594,-17.719C26.852,-17.457 25.133,-17.086 23.438,-16.609C23.508,-14.422 23.57,-12.363 23.625,-10.438C23.688,-8.508 23.719,-7.066 23.719,-6.109C23.719,-3.848 23.457,-2.086 22.938,-0.828C22.414,0.43 21.703,1.301 20.797,1.781C19.891,2.258 18.844,2.5 17.656,2.5C16.32,2.5 14.895,2.227 13.375,1.688C11.863,1.156 10.445,0.418 9.125,-0.516C7.812,-1.461 6.738,-2.578 5.906,-3.859C5.082,-5.141 4.672,-6.5 4.672,-7.938C4.672,-9.57 5.234,-11.176 6.359,-12.75C7.484,-14.32 8.977,-15.789 10.844,-17.156C12.719,-18.531 14.77,-19.695 17,-20.656C16.957,-21.289 16.938,-21.93 16.938,-22.578L16.938,-29.094C16.414,-29.062 15.906,-29.035 15.406,-29.016C14.906,-28.992 14.438,-28.984 14,-28.984C12.738,-28.984 11.441,-29 10.109,-29.031C8.773,-29.07 7.516,-29.148 6.328,-29.266L6.219,-35.922C7.844,-35.742 9.266,-35.625 10.484,-35.562C11.711,-35.508 12.828,-35.484 13.828,-35.484C14.348,-35.484 14.863,-35.492 15.375,-35.516C15.895,-35.535 16.438,-35.562 17,-35.594C17.031,-36.562 17.047,-37.43 17.047,-38.203L17.047,-40.094C17.047,-40.5 17.023,-41.016 16.984,-41.641C16.953,-42.273 16.906,-42.895 16.844,-43.5C16.789,-44.113 16.727,-44.586 16.656,-44.922L24.219,-44.922C24.176,-44.441 24.109,-43.703 24.016,-42.703C23.922,-41.703 23.836,-40.852 23.766,-40.156C23.734,-39.562 23.707,-38.93 23.688,-38.266C23.664,-37.598 23.633,-36.91 23.594,-36.203C25.414,-36.461 27.195,-36.77 28.938,-37.125C30.676,-37.477 32.266,-37.859 33.703,-38.266L33.875,-31.375C32.32,-31 30.633,-30.672 28.812,-30.391C27,-30.117 25.188,-29.875 23.375,-29.656C23.344,-28.844 23.328,-28.02 23.328,-27.188ZM36.875,-33.594L39.922,-38.984C41.328,-38.316 42.891,-37.508 44.609,-36.562C46.336,-35.625 48,-34.68 49.594,-33.734C51.188,-32.785 52.461,-31.961 53.422,-31.266L50.094,-25.594C49.426,-26.156 48.535,-26.805 47.422,-27.547C46.305,-28.285 45.094,-29.039 43.781,-29.812C42.469,-30.594 41.203,-31.316 39.984,-31.984C38.766,-32.648 37.727,-33.188 36.875,-33.594Z" style="fill:rgb(0,191,99);fill-rule:nonzero;"/>
                </g>
            </g>
        </g>
        <g>
            <g transform="matrix(1,0,0,1,55.814538,65.157701)">
                <g>
                    <path d="M31.094,-15.766L43.422,-15.766L43.422,-21.656L31.094,-21.656L31.094,-15.766ZM12.109,-15.766L24.156,-15.766L24.156,-21.656L12.109,-21.656L12.109,-15.766ZM24.156,-33.312L12.109,-33.312L12.109,-27.703L24.156,-27.703L24.156,-33.312ZM43.422,-33.312L31.094,-33.312L31.094,-27.703L43.422,-27.703L43.422,-33.312ZM31.094,-39.656L50.312,-39.656L50.312,-6.781L43.422,-6.781L43.422,-9.438L31.094,-9.438L31.094,4.781L24.156,4.781L24.156,-9.438L12.109,-9.438L12.109,-6.5L5.5,-6.5L5.5,-39.656L24.156,-39.656L24.156,-47.094L31.094,-47.094L31.094,-39.656Z" style="fill:rgb(0,191,99);fill-rule:nonzero;"/>
                </g>
            </g>
        </g>
        <g>
            <g transform="matrix(1,0,0,1,111.329395,65.157701)">
                <g>
                    <path d="M11.828,-43.984L20.719,-43.875C20.531,-42.719 20.367,-41.484 20.234,-40.172C20.109,-38.859 20.023,-37.648 19.984,-36.547C19.91,-35.055 19.836,-33.25 19.766,-31.125C19.691,-29 19.617,-26.75 19.547,-24.375C19.473,-22.008 19.414,-19.695 19.375,-17.438C19.344,-15.176 19.328,-13.195 19.328,-11.5C19.328,-9.645 19.66,-8.18 20.328,-7.109C20.992,-6.035 21.898,-5.273 23.047,-4.828C24.191,-4.391 25.469,-4.172 26.875,-4.172C29.914,-4.172 32.598,-4.688 34.922,-5.719C37.254,-6.758 39.312,-8.129 41.094,-9.828C42.875,-11.535 44.41,-13.383 45.703,-15.375L50.703,-9.219C49.816,-7.926 48.66,-6.547 47.234,-5.078C45.805,-3.617 44.102,-2.25 42.125,-0.969C40.145,0.301 37.883,1.332 35.344,2.125C32.812,2.926 29.973,3.328 26.828,3.328C23.828,3.328 21.211,2.863 18.984,1.938C16.766,1.02 15.047,-0.414 13.828,-2.375C12.609,-4.344 12,-6.883 12,-10C12,-11.477 12.016,-13.176 12.047,-15.094C12.086,-17.02 12.133,-19.039 12.188,-21.156C12.238,-23.27 12.289,-25.316 12.344,-27.297C12.406,-29.273 12.453,-31.078 12.484,-32.703C12.523,-34.336 12.547,-35.617 12.547,-36.547C12.547,-37.836 12.488,-39.129 12.375,-40.422C12.27,-41.723 12.086,-42.91 11.828,-43.984Z" style="fill:rgb(0,191,99);fill-rule:nonzero;"/>
                </g>
            </g>
        </g>
        <g>
            <g transform="matrix(1,0,0,1,166.844253,65.157701)">
                <g>
                    <path d="M30.594,-33.203L32.766,-32.875C32.648,-33.801 32.535,-34.734 32.422,-35.672C32.316,-36.617 32.227,-37.555 32.156,-38.484L22.484,-38.484L22.484,-44.703L37.766,-44.703C37.984,-40.773 38.391,-37.023 38.984,-33.453C39.578,-29.879 40.457,-26.57 41.625,-23.531C42.789,-20.5 44.332,-17.816 46.25,-15.484C48.176,-13.16 50.586,-11.273 53.484,-9.828C52.703,-9.273 51.801,-8.5 50.781,-7.5C49.758,-6.5 48.938,-5.594 48.312,-4.781C44.906,-6.812 42.133,-9.379 40,-12.484C37.875,-15.598 36.203,-19.098 34.984,-22.984C33.617,-19.023 31.859,-15.52 29.703,-12.469C27.555,-9.414 24.969,-6.832 21.938,-4.719C21.602,-5.164 21.129,-5.703 20.516,-6.328C19.91,-6.961 19.273,-7.594 18.609,-8.219C17.941,-8.844 17.348,-9.344 16.828,-9.719C20.711,-12.008 23.766,-15.172 25.984,-19.203C28.211,-23.242 29.75,-27.91 30.594,-33.203ZM16.828,-37.375L11.609,-32.984C11.047,-33.867 10.266,-34.836 9.266,-35.891C8.273,-36.953 7.203,-37.988 6.047,-39C4.898,-40.02 3.773,-40.941 2.672,-41.766L7.547,-45.75C8.66,-44.977 9.805,-44.109 10.984,-43.141C12.172,-42.18 13.281,-41.203 14.312,-40.203C15.352,-39.203 16.191,-38.258 16.828,-37.375ZM15.438,-25.484L15.438,-8.047C16.582,-6.203 18.18,-4.863 20.234,-4.031C22.297,-3.195 24.77,-2.723 27.656,-2.609C29.281,-2.535 31.211,-2.488 33.453,-2.469C35.691,-2.445 38.039,-2.453 40.5,-2.484C42.969,-2.523 45.375,-2.594 47.719,-2.688C50.07,-2.781 52.176,-2.898 54.031,-3.047C53.812,-2.535 53.562,-1.879 53.281,-1.078C53,-0.285 52.738,0.535 52.5,1.391C52.258,2.242 52.086,2.984 51.984,3.609C50.316,3.68 48.426,3.742 46.312,3.797C44.195,3.859 42.008,3.895 39.75,3.906C37.5,3.926 35.316,3.926 33.203,3.906C31.098,3.895 29.211,3.852 27.547,3.781C24.141,3.625 21.238,3.094 18.844,2.188C16.457,1.281 14.359,-0.242 12.547,-2.391C11.328,-1.316 10.086,-0.23 8.828,0.859C7.566,1.953 6.18,3.094 4.672,4.281L1.438,-2.609C2.625,-3.316 3.875,-4.113 5.188,-5C6.5,-5.883 7.77,-6.789 9,-7.719L9,-19.438L2.609,-19.438L2.609,-25.484L15.438,-25.484Z" style="fill:rgb(0,191,99);fill-rule:nonzero;"/>
                </g>
            </g>
        </g>
        <g>
            <g transform="matrix(1,0,0,1,222.359111,65.157701)">
                <g>
                    <path d="M14.5,-10.609C15.195,-11.641 15.926,-12.941 16.688,-14.516C17.445,-16.086 18.211,-17.727 18.984,-19.438C16.953,-19.133 15.234,-18.555 13.828,-17.703C12.422,-16.859 11.352,-15.867 10.625,-14.734C9.906,-13.609 9.547,-12.473 9.547,-11.328C9.547,-10.547 9.75,-9.914 10.156,-9.438C10.562,-8.957 11.047,-8.719 11.609,-8.719C12.16,-8.719 12.656,-8.852 13.094,-9.125C13.539,-9.406 14.008,-9.898 14.5,-10.609ZM53.031,-15L49.859,-7.391C49.16,-8.016 48.41,-8.66 47.609,-9.328C46.816,-9.992 45.992,-10.625 45.141,-11.219C43.922,-8.102 42.207,-5.32 40,-2.875C37.801,-0.438 34.867,1.742 31.203,3.672L25.328,-1.109C28.098,-2.297 30.41,-3.645 32.266,-5.156C34.117,-6.676 35.609,-8.27 36.734,-9.938C37.859,-11.602 38.719,-13.27 39.312,-14.938C37.383,-16.008 35.336,-16.93 33.172,-17.703C31.016,-18.484 28.77,-19.039 26.438,-19.375C25.77,-17.82 25.066,-16.211 24.328,-14.547C23.586,-12.879 22.852,-11.32 22.125,-9.875C21.406,-8.438 20.711,-7.195 20.047,-6.156C18.973,-4.5 17.75,-3.281 16.375,-2.5C15.008,-1.719 13.383,-1.328 11.5,-1.328C9.094,-1.328 7.082,-2.113 5.469,-3.688C3.852,-5.258 3.047,-7.438 3.047,-10.219C3.047,-13.07 3.844,-15.633 5.438,-17.906C7.031,-20.188 9.242,-22.031 12.078,-23.438C14.91,-24.844 18.16,-25.617 21.828,-25.766C22.598,-27.547 23.363,-29.312 24.125,-31.062C24.883,-32.82 25.578,-34.352 26.203,-35.656C25.504,-35.656 24.57,-35.625 23.406,-35.562C22.238,-35.508 21.062,-35.461 19.875,-35.422C18.695,-35.391 17.68,-35.336 16.828,-35.266C16.234,-35.223 15.508,-35.156 14.656,-35.062C13.812,-34.969 13.035,-34.867 12.328,-34.766L12.047,-41.875C12.785,-41.801 13.582,-41.742 14.438,-41.703C15.289,-41.672 16.016,-41.656 16.609,-41.656C17.641,-41.656 18.895,-41.672 20.375,-41.703C21.852,-41.742 23.305,-41.801 24.734,-41.875C26.16,-41.945 27.301,-42.02 28.156,-42.094C29.562,-42.207 30.801,-42.484 31.875,-42.922L36.266,-39.484C35.891,-39.078 35.547,-38.688 35.234,-38.312C34.922,-37.945 34.648,-37.562 34.422,-37.156C33.723,-36 32.891,-34.328 31.922,-32.141C30.961,-29.961 30.004,-27.707 29.047,-25.375C31.191,-25.039 33.254,-24.555 35.234,-23.922C37.211,-23.297 39.094,-22.598 40.875,-21.828C40.906,-22.16 40.93,-22.484 40.953,-22.797C40.973,-23.109 41,-23.414 41.031,-23.719C41.113,-24.789 41.156,-25.832 41.156,-26.844C41.156,-27.863 41.098,-28.816 40.984,-29.703L48.203,-28.875C48.086,-27.062 47.957,-25.289 47.812,-23.562C47.664,-21.844 47.441,-20.207 47.141,-18.656C48.297,-18.031 49.363,-17.391 50.344,-16.734C51.32,-16.086 52.219,-15.508 53.031,-15Z" style="fill:rgb(0,191,99);fill-rule:nonzero;"/>
                </g>
            </g>
        </g>
        <g transform="matrix(1,0,0,1,283,32)">
            <g>
                <g>
                    <g transform="matrix(1,0,0,1,0.564413,32.966573)">
                        <g>
                            <path d="M4.297,-22.641L8.297,-22.281C8.211,-22.094 8.125,-21.828 8.031,-21.484C7.938,-21.148 7.848,-20.816 7.766,-20.484C7.691,-20.16 7.633,-19.91 7.594,-19.734C7.52,-19.348 7.414,-18.812 7.281,-18.125C7.156,-17.438 7.035,-16.664 6.922,-15.812C6.805,-14.969 6.695,-14.102 6.594,-13.219C6.488,-12.344 6.398,-11.504 6.328,-10.703C6.266,-9.898 6.234,-9.211 6.234,-8.641C6.234,-8.348 6.242,-8.035 6.266,-7.703C6.285,-7.379 6.312,-7.07 6.344,-6.781C6.539,-7.281 6.75,-7.77 6.969,-8.25C7.188,-8.738 7.406,-9.223 7.625,-9.703L9.391,-8.297C9.117,-7.516 8.844,-6.691 8.562,-5.828C8.281,-4.973 8.031,-4.16 7.812,-3.391C7.602,-2.617 7.441,-1.973 7.328,-1.453C7.297,-1.254 7.258,-1.02 7.219,-0.75C7.176,-0.477 7.164,-0.266 7.188,-0.109L7.188,0.422C7.188,0.641 7.195,0.859 7.219,1.078L3.969,1.297C3.676,0.297 3.414,-0.992 3.188,-2.578C2.957,-4.16 2.844,-5.922 2.844,-7.859C2.844,-8.941 2.883,-10.066 2.969,-11.234C3.051,-12.398 3.16,-13.535 3.297,-14.641C3.43,-15.742 3.566,-16.75 3.703,-17.656C3.836,-18.562 3.945,-19.285 4.031,-19.828C4.082,-20.234 4.141,-20.691 4.203,-21.203C4.266,-21.711 4.297,-22.191 4.297,-22.641ZM18.781,-4.812L18.781,-5.297C17.988,-5.516 17.219,-5.625 16.469,-5.625C15.656,-5.625 14.992,-5.469 14.484,-5.156C13.984,-4.852 13.734,-4.43 13.734,-3.891C13.734,-3.305 13.988,-2.879 14.5,-2.609C15.02,-2.336 15.656,-2.203 16.406,-2.203C17.289,-2.203 17.906,-2.426 18.25,-2.875C18.602,-3.332 18.781,-3.977 18.781,-4.812ZM27.859,-3.656L25.906,-0.641C24.727,-1.773 23.57,-2.727 22.438,-3.5C22.352,-2.156 21.879,-1.035 21.016,-0.141C20.16,0.742 18.758,1.188 16.812,1.188C14.844,1.188 13.273,0.781 12.109,-0.031C10.953,-0.844 10.375,-2 10.375,-3.5C10.375,-4.969 10.945,-6.156 12.094,-7.062C13.25,-7.977 14.801,-8.438 16.75,-8.438C17.082,-8.438 17.406,-8.426 17.719,-8.406C18.039,-8.383 18.348,-8.352 18.641,-8.312C18.598,-9.207 18.555,-10.16 18.516,-11.172C18.484,-12.18 18.457,-13.191 18.438,-14.203C18.082,-14.18 17.734,-14.172 17.391,-14.172L16.375,-14.172C14.75,-14.172 13.078,-14.227 11.359,-14.344L11.359,-17.766C13.023,-17.586 14.695,-17.5 16.375,-17.5L17.391,-17.5C17.734,-17.5 18.07,-17.508 18.406,-17.531C18.383,-18.25 18.375,-18.883 18.375,-19.438C18.375,-19.988 18.363,-20.414 18.344,-20.719C18.344,-20.938 18.32,-21.234 18.281,-21.609C18.25,-21.984 18.211,-22.316 18.172,-22.609L22.281,-22.609C22.25,-22.336 22.219,-22.035 22.188,-21.703C22.156,-21.379 22.129,-21.062 22.109,-20.75C22.098,-20.438 22.082,-20.02 22.062,-19.5C22.039,-18.977 22.031,-18.398 22.031,-17.766C22.82,-17.859 23.586,-17.957 24.328,-18.062C25.078,-18.176 25.789,-18.301 26.469,-18.438L26.469,-14.875C25.77,-14.77 25.047,-14.676 24.297,-14.594C23.555,-14.508 22.789,-14.438 22,-14.375C22.039,-12.988 22.086,-11.711 22.141,-10.547C22.203,-9.391 22.258,-8.328 22.312,-7.359C23.508,-6.879 24.566,-6.297 25.484,-5.609C26.41,-4.922 27.203,-4.27 27.859,-3.656Z" style="fill-rule:nonzero;"/>
                        </g>
                    </g>
                </g>
            </g>
        </g>
        <g>
            <g transform="matrix(1,0,0,1,316.628088,64.548522)">
                <g>
                    <path d="M8.172,-22.047L8.172,-26.953C10.922,-26.648 14.27,-26.5 18.219,-26.5C20.051,-26.5 21.93,-26.547 23.859,-26.641C25.797,-26.742 27.469,-26.875 28.875,-27.031L28.875,-22.078C28.039,-22.023 27.008,-21.961 25.781,-21.891C24.551,-21.816 23.281,-21.754 21.969,-21.703C20.656,-21.66 19.414,-21.641 18.25,-21.641C16.32,-21.641 14.535,-21.68 12.891,-21.766C11.254,-21.848 9.68,-21.941 8.172,-22.047ZM6.469,-11.781L11.297,-11.344C11.129,-10.664 10.984,-10.031 10.859,-9.438C10.734,-8.844 10.672,-8.238 10.672,-7.625C10.672,-6.457 11.266,-5.488 12.453,-4.719C13.641,-3.945 15.562,-3.562 18.219,-3.562C20.719,-3.562 23.086,-3.691 25.328,-3.953C27.578,-4.211 29.52,-4.566 31.156,-5.016L31.188,0.156C29.602,0.551 27.719,0.859 25.531,1.078C23.352,1.297 20.977,1.406 18.406,1.406C14.188,1.406 11.016,0.727 8.891,-0.625C6.773,-1.988 5.719,-3.938 5.719,-6.469C5.719,-7.562 5.805,-8.547 5.984,-9.422C6.16,-10.305 6.32,-11.094 6.469,-11.781Z" style="fill-rule:nonzero;"/>
                </g>
            </g>
        </g>
        <g>
            <g transform="matrix(1,0,0,1,353.795616,64.548522)">
                <g>
                    <path d="M29.359,-26.391L29.438,-21.938C28.176,-21.738 26.719,-21.531 25.062,-21.312C23.414,-21.102 21.711,-20.914 19.953,-20.75C18.203,-20.594 16.492,-20.469 14.828,-20.375C14.578,-19.258 14.312,-18.145 14.031,-17.031C13.75,-15.914 13.457,-14.91 13.156,-14.016C14.645,-14.828 16.117,-15.41 17.578,-15.766C19.047,-16.129 20.617,-16.312 22.297,-16.312C24.285,-16.312 26.02,-15.984 27.5,-15.328C28.988,-14.672 30.141,-13.75 30.953,-12.562C31.773,-11.375 32.188,-10 32.188,-8.438C32.188,-5.664 31.352,-3.473 29.688,-1.859C28.031,-0.242 25.711,0.832 22.734,1.375C19.766,1.914 16.301,1.977 12.344,1.562L11.047,-3.203C13.047,-2.879 15.008,-2.707 16.938,-2.688C18.875,-2.676 20.617,-2.859 22.172,-3.234C23.723,-3.609 24.957,-4.203 25.875,-5.016C26.789,-5.836 27.25,-6.93 27.25,-8.297C27.25,-9.379 26.773,-10.32 25.828,-11.125C24.891,-11.938 23.531,-12.344 21.75,-12.344C19.633,-12.344 17.68,-11.969 15.891,-11.219C14.098,-10.477 12.656,-9.398 11.562,-7.984C11.363,-7.742 11.188,-7.5 11.031,-7.25C10.883,-7 10.711,-6.711 10.516,-6.391L6.172,-7.953C6.766,-9.098 7.316,-10.367 7.828,-11.766C8.336,-13.16 8.805,-14.594 9.234,-16.062C9.672,-17.539 10.051,-18.953 10.375,-20.297C9.207,-20.316 8.086,-20.359 7.016,-20.422C5.953,-20.484 4.953,-20.566 4.016,-20.672L4.016,-25.234C5.109,-25.066 6.301,-24.914 7.594,-24.781C8.895,-24.645 10.102,-24.562 11.219,-24.531C11.27,-24.801 11.312,-25.062 11.344,-25.312C11.383,-25.562 11.422,-25.797 11.453,-26.016C11.547,-26.805 11.602,-27.469 11.625,-28C11.656,-28.539 11.66,-29.117 11.641,-29.734L16.844,-29.516C16.645,-28.867 16.484,-28.234 16.359,-27.609C16.234,-26.992 16.109,-26.379 15.984,-25.766L15.766,-24.641C17.867,-24.766 20.109,-24.969 22.484,-25.25C24.867,-25.539 27.16,-25.922 29.359,-26.391Z" style="fill-rule:nonzero;"/>
                </g>
            </g>
        </g>
        <g>
            <g transform="matrix(1,0,0,1,390.963144,64.548522)">
                <g>
                    <path d="M11.297,-25.344L12.484,-29.812C13.359,-29.539 14.457,-29.254 15.781,-28.953C17.102,-28.66 18.488,-28.375 19.938,-28.094C21.395,-27.82 22.766,-27.586 24.047,-27.391C25.336,-27.191 26.391,-27.047 27.203,-26.953L26.094,-22.422C25.176,-22.535 24.031,-22.719 22.656,-22.969C21.281,-23.219 19.852,-23.488 18.375,-23.781C16.906,-24.082 15.535,-24.375 14.266,-24.656C13.004,-24.945 12.016,-25.176 11.297,-25.344ZM12.719,-22.422C12.562,-21.742 12.391,-20.859 12.203,-19.766C12.023,-18.68 11.859,-17.598 11.703,-16.516C11.555,-15.441 11.438,-14.547 11.344,-13.828C13.02,-15.047 14.766,-15.93 16.578,-16.484C18.391,-17.047 20.25,-17.328 22.156,-17.328C24.312,-17.328 26.148,-16.926 27.672,-16.125C29.191,-15.332 30.352,-14.297 31.156,-13.016C31.969,-11.742 32.375,-10.367 32.375,-8.891C32.375,-7.203 32.016,-5.645 31.297,-4.219C30.578,-2.789 29.41,-1.578 27.797,-0.578C26.191,0.418 24.078,1.125 21.453,1.531C18.828,1.945 15.594,1.992 11.75,1.672L10.328,-3.156C14.023,-2.633 17.125,-2.562 19.625,-2.938C22.125,-3.312 24.008,-4.023 25.281,-5.078C26.562,-6.129 27.203,-7.438 27.203,-9C27.203,-10.188 26.688,-11.172 25.656,-11.953C24.633,-12.734 23.316,-13.125 21.703,-13.125C19.617,-13.125 17.695,-12.75 15.938,-12C14.188,-11.258 12.727,-10.195 11.562,-8.812C11.238,-8.414 10.961,-8.051 10.734,-7.719C10.516,-7.383 10.332,-7.031 10.188,-6.656L5.906,-7.734C6.082,-8.617 6.266,-9.703 6.453,-10.984C6.641,-12.266 6.816,-13.613 6.984,-15.031C7.16,-16.457 7.316,-17.867 7.453,-19.266C7.586,-20.672 7.68,-21.941 7.734,-23.078L12.719,-22.422Z" style="fill-rule:nonzero;"/>
                </g>
            </g>
        </g>
    </g>
    <defs>
        <linearGradient id="_Linear4" x1="0" y1="0" x2="1" y2="0" gradientUnits="userSpaceOnUse" gradientTransform="matrix(0,211.796883,-211.796883,0,477.867207,0)"><stop offset="0" style="stop-color:rgb(12,199,84);stop-opacity:1"/><stop offset="0.02" style="stop-color:rgb(11,198,85);stop-opacity:1"/><stop offset="0.03" style="stop-color:rgb(11,197,85);stop-opacity:1"/><stop offset="0.13" style="stop-color:rgb(10,193,89);stop-opacity:1"/><stop offset="0.17" style="stop-color:rgb(10,190,91);stop-opacity:1"/><stop offset="0.19" style="stop-color:rgb(9,190,92);stop-opacity:1"/><stop offset="0.22" style="stop-color:rgb(9,188,93);stop-opacity:1"/><stop offset="0.23" style="stop-color:rgb(9,187,94);stop-opacity:1"/><stop offset="0.27" style="stop-color:rgb(8,186,95);stop-opacity:1"/><stop offset="0.3" style="stop-color:rgb(8,184,97);stop-opacity:1"/><stop offset="0.31" style="stop-color:rgb(8,184,97);stop-opacity:1"/><stop offset="0.34" style="stop-color:rgb(7,182,99);stop-opacity:1"/><stop offset="0.36" style="stop-color:rgb(7,181,99);stop-opacity:1"/><stop offset="0.44" style="stop-color:rgb(6,177,103);stop-opacity:1"/><stop offset="0.45" style="stop-color:rgb(6,177,103);stop-opacity:1"/><stop offset="0.5" style="stop-color:rgb(6,174,105);stop-opacity:1"/><stop offset="0.52" style="stop-color:rgb(5,174,106);stop-opacity:1"/><stop offset="0.53" style="stop-color:rgb(5,173,106);stop-opacity:1"/><stop offset="0.56" style="stop-color:rgb(5,171,108);stop-opacity:1"/><stop offset="0.58" style="stop-color:rgb(5,171,108);stop-opacity:1"/><stop offset="0.59" style="stop-color:rgb(4,170,109);stop-opacity:1"/><stop offset="0.63" style="stop-color:rgb(4,168,110);stop-opacity:1"/><stop offset="0.69" style="stop-color:rgb(3,165,113);stop-opacity:1"/><stop offset="0.7" style="stop-color:rgb(3,164,114);stop-opacity:1"/><stop offset="0.72" style="stop-color:rgb(3,164,114);stop-opacity:1"/><stop offset="0.77" style="stop-color:rgb(2,161,116);stop-opacity:1"/><stop offset="0.81" style="stop-color:rgb(2,159,118);stop-opacity:1"/><stop offset="0.83" style="stop-color:rgb(2,158,119);stop-opacity:1"/><stop offset="0.84" style="stop-color:rgb(1,158,120);stop-opacity:1"/><stop offset="0.86" style="stop-color:rgb(1,157,120);stop-opacity:1"/><stop offset="0.91" style="stop-color:rgb(1,154,122);stop-opacity:1"/><stop offset="0.94" style="stop-color:rgb(0,153,124);stop-opacity:1"/><stop offset="0.95" style="stop-color:rgb(0,152,124);stop-opacity:1"/><stop offset="1" style="stop-color:rgb(0,150,126);stop-opacity:1"/></linearGradient>
        <linearGradient id="_Linear7" x1="0" y1="0" x2="1" y2="0" gradientUnits="userSpaceOnUse" gradientTransform="matrix(0,140.510962,-140.510962,0,70.873998,0.744489)"><stop offset="0" style="stop-color:rgb(12,199,84);stop-opacity:1"/><stop offset="0.02" style="stop-color:rgb(11,198,85);stop-opacity:1"/><stop offset="0.03" style="stop-color:rgb(11,197,85);stop-opacity:1"/><stop offset="0.13" style="stop-color:rgb(10,193,89);stop-opacity:1"/><stop offset="0.17" style="stop-color:rgb(10,190,91);stop-opacity:1"/><stop offset="0.19" style="stop-color:rgb(9,190,92);stop-opacity:1"/><stop offset="0.22" style="stop-color:rgb(9,188,93);stop-opacity:1"/><stop offset="0.23" style="stop-color:rgb(9,187,94);stop-opacity:1"/><stop offset="0.27" style="stop-color:rgb(8,186,95);stop-opacity:1"/><stop offset="0.3" style="stop-color:rgb(8,184,97);stop-opacity:1"/><stop offset="0.31" style="stop-color:rgb(8,184,97);stop-opacity:1"/><stop offset="0.34" style="stop-color:rgb(7,182,99);stop-opacity:1"/><stop offset="0.36" style="stop-color:rgb(7,181,99);stop-opacity:1"/><stop offset="0.44" style="stop-color:rgb(6,177,103);stop-opacity:1"/><stop offset="0.45" style="stop-color:rgb(6,177,103);stop-opacity:1"/><stop offset="0.5" style="stop-color:rgb(6,174,105);stop-opacity:1"/><stop offset="0.52" style="stop-color:rgb(5,174,106);stop-opacity:1"/><stop offset="0.53" style="stop-color:rgb(5,173,106);stop-opacity:1"/><stop offset="0.56" style="stop-color:rgb(5,171,108);stop-opacity:1"/><stop offset="0.58" style="stop-color:rgb(5,171,108);stop-opacity:1"/><stop offset="0.59" style="stop-color:rgb(4,170,109);stop-opacity:1"/><stop offset="0.63" style="stop-color:rgb(4,168,110);stop-opacity:1"/><stop offset="0.69" style="stop-color:rgb(3,165,113);stop-opacity:1"/><stop offset="0.7" style="stop-color:rgb(3,164,114);stop-opacity:1"/><stop offset="0.72" style="stop-color:rgb(3,164,114);stop-opacity:1"/><stop offset="0.77" style="stop-color:rgb(2,161,116);stop-opacity:1"/><stop offset="0.81" style="stop-color:rgb(2,159,118);stop-opacity:1"/><stop offset="0.83" style="stop-color:rgb(2,158,119);stop-opacity:1"/><stop offset="0.84" style="stop-color:rgb(1,158,120);stop-opacity:1"/><stop offset="0.86" style="stop-color:rgb(1,157,120);stop-opacity:1"/><stop offset="0.91" style="stop-color:rgb(1,154,122);stop-opacity:1"/><stop offset="0.94" style="stop-color:rgb(0,153,124);stop-opacity:1"/><stop offset="0.95" style="stop-color:rgb(0,152,124);stop-opacity:1"/><stop offset="1" style="stop-color:rgb(0,150,126);stop-opacity:1"/></linearGradient>
        <linearGradient id="_Linear8" x1="0" y1="0" x2="1" y2="0" gradientUnits="userSpaceOnUse" gradientTransform="matrix(0,3,-3,0,314.306294,361.98173)"><stop offset="0" style="stop-color:rgb(12,199,84);stop-opacity:1"/><stop offset="0.02" style="stop-color:rgb(11,198,85);stop-opacity:1"/><stop offset="0.03" style="stop-color:rgb(11,197,85);stop-opacity:1"/><stop offset="0.13" style="stop-color:rgb(10,193,89);stop-opacity:1"/><stop offset="0.17" style="stop-color:rgb(10,190,91);stop-opacity:1"/><stop offset="0.19" style="stop-color:rgb(9,190,92);stop-opacity:1"/><stop offset="0.22" style="stop-color:rgb(9,188,93);stop-opacity:1"/><stop offset="0.23" style="stop-color:rgb(9,187,94);stop-opacity:1"/><stop offset="0.27" style="stop-color:rgb(8,186,95);stop-opacity:1"/><stop offset="0.3" style="stop-color:rgb(8,184,97);stop-opacity:1"/><stop offset="0.31" style="stop-color:rgb(8,184,97);stop-opacity:1"/><stop offset="0.34" style="stop-color:rgb(7,182,99);stop-opacity:1"/><stop offset="0.36" style="stop-color:rgb(7,181,99);stop-opacity:1"/><stop offset="0.44" style="stop-color:rgb(6,177,103);stop-opacity:1"/><stop offset="0.45" style="stop-color:rgb(6,177,103);stop-opacity:1"/><stop offset="0.5" style="stop-color:rgb(6,174,105);stop-opacity:1"/><stop offset="0.52" style="stop-color:rgb(5,174,106);stop-opacity:1"/><stop offset="0.53" style="stop-color:rgb(5,173,106);stop-opacity:1"/><stop offset="0.56" style="stop-color:rgb(5,171,108);stop-opacity:1"/><stop offset="0.58" style="stop-color:rgb(5,171,108);stop-opacity:1"/><stop offset="0.59" style="stop-color:rgb(4,170,109);stop-opacity:1"/><stop offset="0.63" style="stop-color:rgb(4,168,110);stop-opacity:1"/><stop offset="0.69" style="stop-color:rgb(3,165,113);stop-opacity:1"/><stop offset="0.7" style="stop-color:rgb(3,164,114);stop-opacity:1"/><stop offset="0.72" style="stop-color:rgb(3,164,114);stop-opacity:1"/><stop offset="0.77" style="stop-color:rgb(2,161,116);stop-opacity:1"/><stop offset="0.81" style="stop-color:rgb(2,159,118);stop-opacity:1"/><stop offset="0.83" style="stop-color:rgb(2,158,119);stop-opacity:1"/><stop offset="0.84" style="stop-color:rgb(1,158,120);stop-opacity:1"/><stop offset="0.86" style="stop-color:rgb(1,157,120);stop-opacity:1"/><stop offset="0.91" style="stop-color:rgb(1,154,122);stop-opacity:1"/><stop offset="0.94" style="stop-color:rgb(0,153,124);stop-opacity:1"/><stop offset="0.95" style="stop-color:rgb(0,152,124);stop-opacity:1"/><stop offset="1" style="stop-color:rgb(0,150,126);stop-opacity:1"/></linearGradient>
        <linearGradient id="_Linear11" x1="0" y1="0" x2="1" y2="0" gradientUnits="userSpaceOnUse" gradientTransform="matrix(0,12.581606,-12.581606,0,6.840316,0.920707)"><stop offset="0" style="stop-color:rgb(12,199,84);stop-opacity:1"/><stop offset="0.02" style="stop-color:rgb(11,198,85);stop-opacity:1"/><stop offset="0.03" style="stop-color:rgb(11,197,85);stop-opacity:1"/><stop offset="0.13" style="stop-color:rgb(10,193,89);stop-opacity:1"/><stop offset="0.17" style="stop-color:rgb(10,190,91);stop-opacity:1"/><stop offset="0.19" style="stop-color:rgb(9,190,92);stop-opacity:1"/><stop offset="0.22" style="stop-color:rgb(9,188,93);stop-opacity:1"/><stop offset="0.23" style="stop-color:rgb(9,187,94);stop-opacity:1"/><stop offset="0.27" style="stop-color:rgb(8,186,95);stop-opacity:1"/><stop offset="0.3" style="stop-color:rgb(8,184,97);stop-opacity:1"/><stop offset="0.31" style="stop-color:rgb(8,184,97);stop-opacity:1"/><stop offset="0.34" style="stop-color:rgb(7,182,99);stop-opacity:1"/><stop offset="0.36" style="stop-color:rgb(7,181,99);stop-opacity:1"/><stop offset="0.44" style="stop-color:rgb(6,177,103);stop-opacity:1"/><stop offset="0.45" style="stop-color:rgb(6,177,103);stop-opacity:1"/><stop offset="0.5" style="stop-color:rgb(6,174,105);stop-opacity:1"/><stop offset="0.52" style="stop-color:rgb(5,174,106);stop-opacity:1"/><stop offset="0.53" style="stop-color:rgb(5,173,106);stop-opacity:1"/><stop offset="0.56" style="stop-color:rgb(5,171,108);stop-opacity:1"/><stop offset="0.58" style="stop-color:rgb(5,171,108);stop-opacity:1"/><stop offset="0.59" style="stop-color:rgb(4,170,109);stop-opacity:1"/><stop offset="0.63" style="stop-color:rgb(4,168,110);stop-opacity:1"/><stop offset="0.69" style="stop-color:rgb(3,165,113);stop-opacity:1"/><stop offset="0.7" style="stop-color:rgb(3,164,114);stop-opacity:1"/><stop offset="0.72" style="stop-color:rgb(3,164,114);stop-opacity:1"/><stop offset="0.77" style="stop-color:rgb(2,161,116);stop-opacity:1"/><stop offset="0.81" style="stop-color:rgb(2,159,118);stop-opacity:1"/><stop offset="0.83" style="stop-color:rgb(2,158,119);stop-opacity:1"/><stop offset="0.84" style="stop-color:rgb(1,158,120);stop-opacity:1"/><stop offset="0.86" style="stop-color:rgb(1,157,120);stop-opacity:1"/><stop offset="0.91" style="stop-color:rgb(1,154,122);stop-opacity:1"/><stop offset="0.94" style="stop-color:rgb(0,153,124);stop-opacity:1"/><stop offset="0.95" style="stop-color:rgb(0,152,124);stop-opacity:1"/><stop offset="1" style="stop-color:rgb(0,150,126);stop-opacity:1"/></linearGradient>
        <linearGradient id="_Linear14" x1="0" y1="0" x2="1" y2="0" gradientUnits="userSpaceOnUse" gradientTransform="matrix(0,12.581606,-12.581606,0,6.731787,0.920707)"><stop offset="0" style="stop-color:rgb(12,199,84);stop-opacity:1"/><stop offset="0.02" style="stop-color:rgb(11,198,85);stop-opacity:1"/><stop offset="0.03" style="stop-color:rgb(11,197,85);stop-opacity:1"/><stop offset="0.13" style="stop-color:rgb(10,193,89);stop-opacity:1"/><stop offset="0.17" style="stop-color:rgb(10,190,91);stop-opacity:1"/><stop offset="0.19" style="stop-color:rgb(9,190,92);stop-opacity:1"/><stop offset="0.22" style="stop-color:rgb(9,188,93);stop-opacity:1"/><stop offset="0.23" style="stop-color:rgb(9,187,94);stop-opacity:1"/><stop offset="0.27" style="stop-color:rgb(8,186,95);stop-opacity:1"/><stop offset="0.3" style="stop-color:rgb(8,184,97);stop-opacity:1"/><stop offset="0.31" style="stop-color:rgb(8,184,97);stop-opacity:1"/><stop offset="0.34" style="stop-color:rgb(7,182,99);stop-opacity:1"/><stop offset="0.36" style="stop-color:rgb(7,181,99);stop-opacity:1"/><stop offset="0.44" style="stop-color:rgb(6,177,103);stop-opacity:1"/><stop offset="0.45" style="stop-color:rgb(6,177,103);stop-opacity:1"/><stop offset="0.5" style="stop-color:rgb(6,174,105);stop-opacity:1"/><stop offset="0.52" style="stop-color:rgb(5,174,106);stop-opacity:1"/><stop offset="0.53" style="stop-color:rgb(5,173,106);stop-opacity:1"/><stop offset="0.56" style="stop-color:rgb(5,171,108);stop-opacity:1"/><stop offset="0.58" style="stop-color:rgb(5,171,108);stop-opacity:1"/><stop offset="0.59" style="stop-color:rgb(4,170,109);stop-opacity:1"/><stop offset="0.63" style="stop-color:rgb(4,168,110);stop-opacity:1"/><stop offset="0.69" style="stop-color:rgb(3,165,113);stop-opacity:1"/><stop offset="0.7" style="stop-color:rgb(3,164,114);stop-opacity:1"/><stop offset="0.72" style="stop-color:rgb(3,164,114);stop-opacity:1"/><stop offset="0.77" style="stop-color:rgb(2,161,116);stop-opacity:1"/><stop offset="0.81" style="stop-color:rgb(2,159,118);stop-opacity:1"/><stop offset="0.83" style="stop-color:rgb(2,158,119);stop-opacity:1"/><stop offset="0.84" style="stop-color:rgb(1,158,120);stop-opacity:1"/><stop offset="0.86" style="stop-color:rgb(1,157,120);stop-opacity:1"/><stop offset="0.91" style="stop-color:rgb(1,154,122);stop-opacity:1"/><stop offset="0.94" style="stop-color:rgb(0,153,124);stop-opacity:1"/><stop offset="0.95" style="stop-color:rgb(0,152,124);stop-opacity:1"/><stop offset="1" style="stop-color:rgb(0,150,126);stop-opacity:1"/></linearGradient>
    </defs>
</svg>
