<?xml version="1.0" encoding="UTF-8" standalone="no"?>
<!DOCTYPE svg PUBLIC "-//W3C//DTD SVG 1.1//EN" "http://www.w3.org/Graphics/SVG/1.1/DTD/svg11.dtd">
<svg width="100%" height="100%" viewBox="0 0 2000 1000" version="1.1" xmlns="http://www.w3.org/2000/svg" xmlns:xlink="http://www.w3.org/1999/xlink" xml:space="preserve" xmlns:serif="http://www.serif.com/" style="fill-rule:evenodd;clip-rule:evenodd;stroke-linejoin:round;stroke-miterlimit:2;">
    <g transform="matrix(0.298572,0,0,0.281621,-52.14116,635.79576)">
        <text x="285px" y="710px" style="font-family:'ToppanBunkyuMidashiGothicStdN-ExtraBold', 'Toppan Bunkyu Midashi Gothic', sans-serif;font-weight:900;font-size:331.821px;fill:white;">運動初心者からの本格トレーニングまで</text>
        <text x="6257.781px" y="710px" style="font-family:'ToppanBunkyuMidashiGothicStdN-ExtraBold', 'Toppan Bunkyu Midashi Gothic', sans-serif;font-weight:900;font-size:331.821px;fill:white;">。</text>
        <g transform="matrix(331.821193,0,0,331.821193,6984.469896,1227.83484)">
        </g>
        <text x="285px" y="1227.835px" style="font-family:'ToppanBunkyuMidashiGothicStdN-ExtraBold', 'Toppan Bunkyu Midashi Gothic', sans-serif;font-weight:900;font-size:331.821px;fill:white;">最新マシン完備の24時間フ<tspan x="4329.9px " y="1227.835px ">ィ</tspan>ットネスジム。</text>
    </g>
    <g transform="matrix(0.602389,0,0,0.568189,-155.089902,247.478916)">
        <g transform="matrix(402.435687,0,0,402.435687,3504.485498,710)">
        </g>
        <text x="285px" y="710px" style="font-family:'ToppanBunkyuMidashiGothicStdN-ExtraBold', 'Toppan Bunkyu Midashi Gothic', sans-serif;font-weight:900;font-size:402.436px;fill:white;">ジム使い放題！！</text>
    </g>
    <g transform="matrix(1.214561,0,0,1.145606,-100.925612,-455.303578)">
        <g transform="matrix(402.435687,0,0,402.435687,1558.70895,710)">
        </g>
        <text x="285px" y="710px" style="font-family:'TsukuBRdGothicStd-B', 'FOT-TsukuBRdGothic Std', serif;font-weight:700;font-size:402.436px;fill:rgb(174,226,57);">２<tspan x="574.754px 576.766px 866.52px 1156.273px " y="710px 710px 710px 710px ">,９８０</tspan></text>
    </g>
    <g transform="matrix(0.4276,0,0,0.403323,1581.606153,76.41861)">
        <g transform="matrix(402.435687,0,0,402.435687,687.435687,710)">
        </g>
        <text x="285px" y="710px" style="font-family:'TsukuBRdGothicStd-B', 'FOT-TsukuBRdGothic Std', serif;font-weight:700;font-size:402.436px;fill:rgb(174,226,57);">円</text>
    </g>
    <g transform="matrix(0.297315,0,0,0.280436,1774.775764,140.17795)">
        <g transform="matrix(402.435687,0,0,402.435687,687.435687,710)">
        </g>
        <text x="285px" y="710px" style="font-family:'TsukuBRdGothicStd-B', 'FOT-TsukuBRdGothic Std', serif;font-weight:700;font-size:402.436px;fill:rgb(174,226,57);stroke:rgb(174,226,57);stroke-width:14.42px;">〜</text>
    </g>
    <g transform="matrix(0.133904,0,0,0.126302,1651.999525,121.521803)">
        <g transform="matrix(402.435687,0,0,402.435687,1810.231254,710)">
        </g>
        <text x="285px" y="710px" style="font-family:'TsukuBRdGothicStd-B', 'FOT-TsukuBRdGothic Std', serif;font-weight:700;font-size:402.436px;fill:rgb(174,226,57);stroke:rgb(174,226,57);stroke-width:7.68px;">（<tspan x="659.265px 1033.53px 1407.796px " y="710px 710px 710px ">税込）</tspan></text>
    </g>
    <g transform="matrix(0.34119,0,0,0.321819,-1.522827,-50.158289)">
        <g transform="matrix(402.435687,0,0,402.435687,687.435687,710)">
        </g>
        <text x="285px" y="710px" style="font-family:'ToppanBunkyuMidashiGothicStdN-ExtraBold', 'Toppan Bunkyu Midashi Gothic', sans-serif;font-weight:900;font-size:402.436px;fill:white;">月</text>
    </g>
    <g transform="matrix(0.34119,0,0,0.321819,-1.522827,84.368714)">
        <g transform="matrix(402.435687,0,0,402.435687,687.435687,710)">
        </g>
        <text x="285px" y="710px" style="font-family:'ToppanBunkyuMidashiGothicStdN-ExtraBold', 'Toppan Bunkyu Midashi Gothic', sans-serif;font-weight:900;font-size:402.436px;fill:white;">額</text>
    </g>
    <g transform="matrix(1.004562,0,0,0.996496,-147.393122,-1070.130535)">
        <path d="M422,1090.833L422,1442.167C422,1446.49 418.518,1450 414.23,1450L205.917,1450C201.629,1450 198.148,1446.49 198.148,1442.167L198.148,1090.833C198.148,1086.51 201.629,1083 205.917,1083L414.23,1083C418.518,1083 422,1086.51 422,1090.833Z" style="fill:none;stroke:white;stroke-width:8.33px;stroke-linecap:round;stroke-miterlimit:1.5;"/>
    </g>
</svg>
